<?xml version="1.0" encoding="UTF-8"?>
<svg xmlns="http://www.w3.org/2000/svg" width="91" height="58" viewBox="0 0 91 58" fill="none">
  <g id="Group">
    <path id="Vector" d="M67.5124 8.4626L60.8895 1.68412C60.6393 1.42803 60.3404 1.22453 60.0105 1.08558C59.6805 0.946627 59.3261 0.875032 58.968 0.875H52.3448C50.861 0.875 49.6583 2.07787 49.6583 3.56146C49.6583 5.04506 50.8612 6.24793 52.3448 6.24793H57.8367L63.6693 12.2173C64.6836 13.2553 66.4342 13.272 67.4683 12.2614C68.5297 11.2246 68.5494 9.52379 67.5124 8.4626Z" fill="#1A1A1A"></path>
    <path id="Vector_2" d="M14.0816 30.5728C6.58098 30.5728 0.5 36.6537 0.5 44.1543C0.5 51.6549 6.58098 57.7359 14.0816 57.7359C21.5821 57.7359 27.6631 51.6551 27.6631 44.1543C27.6629 36.6537 21.5821 30.5728 14.0816 30.5728ZM14.0816 51.4538C10.0505 51.4538 6.78189 48.1852 6.78189 44.1541C6.78189 40.1231 10.0505 36.8545 14.0816 36.8545C18.1126 36.8545 21.3812 40.1231 21.3812 44.1541C21.3811 48.1853 18.1124 51.4538 14.0816 51.4538Z" fill="#F96515"></path>
    <path id="Vector_3" d="M13.9475 41.1357L34.5213 30.5327L38.1533 37.3725L16.5009 46.5752C15.0126 47.2079 13.2904 46.5497 12.6031 45.0858C11.916 43.6219 12.51 41.8766 13.9475 41.1357Z" fill="#1A1A1A"></path>
    <path id="Vector_4" d="M76.9184 30.5728C69.4178 30.5728 63.3368 36.6537 63.3368 44.1543C63.3368 51.6549 69.4178 57.7359 76.9184 57.7359C84.4189 57.7359 90.4999 51.6549 90.4999 44.1543C90.4999 36.6537 84.4189 30.5728 76.9184 30.5728ZM76.9184 51.4538C72.8873 51.4538 69.6187 48.1852 69.6187 44.1541C69.6187 40.1231 72.8873 36.8545 76.9184 36.8545C80.9494 36.8545 84.218 40.1231 84.218 44.1541C84.218 48.1853 80.9494 51.4538 76.9184 51.4538Z" fill="#F96515"></path>
    <path id="Vector_5" d="M73.5389 43.8895L64.7966 25.5711L71.6895 22.5894L79.054 41.5038C79.6408 43.0107 78.9303 44.712 77.446 45.3541C75.9617 45.996 74.2353 45.349 73.5389 43.8895Z" fill="#1A1A1A"></path>
    <path id="Vector_6" d="M87.608 22.1078C87.4034 22.8575 86.65 23.3193 85.8876 23.1653C81.3586 22.2509 64.7331 20.009 56.5805 34.2116L44.5819 25.7745L41.7477 12.9013C43.2127 12.9357 44.484 12.9538 45.4998 12.9538C59.2624 12.9538 64.7964 7.32568 64.7964 7.32568C64.7964 7.32568 67.5777 8.9383 68.9297 14.7693C69.0656 15.3557 69.5857 15.7734 70.1877 15.7744C73.4235 15.7804 83.2304 15.9478 86.3239 17.7163C87.8379 18.5822 88.048 20.5089 87.608 22.1078Z" fill="#F96515"></path>
    <path id="Vector_7" d="M56.5808 34.2108L56.0647 38.9752C55.8058 41.3691 53.7848 43.1855 51.3763 43.1855H38.9556C38.0918 43.1855 37.3493 42.5825 37.1665 41.7386C36.2122 37.3038 31.2811 23.9487 6.24057 19.8055C3.62213 19.371 1.56496 17.3265 1.1285 14.7098L0.769905 12.5658C0.632269 11.7473 1.2969 11.0175 2.12448 11.0755C9.38793 11.5916 30.8955 12.6563 41.748 12.9008L56.5808 34.2108Z" fill="#F96515"></path>
    <path id="Vector_8" d="M50.5913 36.0679H43.9404C43.2123 36.0679 42.6221 36.658 42.6221 37.3862C42.6221 38.1145 43.2123 38.7046 43.9404 38.7046H50.5913C51.3195 38.7046 51.9096 38.1145 51.9096 37.3862C51.9096 36.658 51.3194 36.0679 50.5913 36.0679Z" fill="#1A1A1A"></path>
    <path id="Vector_9" d="M19.2215 12.3667L23.0371 17.5014C23.5131 18.1421 24.1325 18.6625 24.8456 19.021C25.5587 19.3796 26.3458 19.5663 27.144 19.5663H49.5946C51.0032 19.5663 52.1477 18.4296 52.1573 17.021L52.1853 12.912C52.192 11.9304 51.405 11.1274 50.4234 11.1144L20.0665 10.7135C19.2089 10.7022 18.71 11.6783 19.2215 12.3667Z" fill="#1A1A1A"></path>
    <path id="Vector_10" d="M66.9027 13.2831C65.4026 13.2831 64.1864 12.067 64.1864 10.5667V5.85844C64.1864 4.35832 65.4025 3.14209 66.9027 3.14209C68.4029 3.14209 69.6191 4.35815 69.6191 5.85844V10.5667C69.6191 12.067 68.4029 13.2831 66.9027 13.2831Z" fill="#1A1A1A"></path>
  </g>
</svg>
