<?xml version="1.0" encoding="UTF-8"?>
<svg xmlns="http://www.w3.org/2000/svg" width="19" height="16" viewBox="0 0 19 16" fill="none">
  <g id="Group 1000004080">
    <path id="Vector" d="M15 5.49997C16.841 5.49997 18.3333 6.99235 18.3333 8.83329C18.3333 10.6742 16.841 12.1666 15 12.1666L4.16667 12.1667C1.86548 12.1667 0 10.301 0 7.99984C0 5.79149 1.71839 3.98452 3.89079 3.84233C4.82516 1.86669 6.83612 0.5 9.16667 0.5C12.1056 0.5 14.5373 2.67334 14.9414 5.50049C14.961 5.50015 14.9803 5.49997 15 5.49997Z" fill="#F96515"></path>
    <rect id="Rectangle 34624957" width="0.97822" height="5.16026" transform="matrix(0.945158 -0.326615 0.44627 0.894898 7.5 10.8483)" fill="white"></rect>
    <rect id="Rectangle 34624959" width="1.148" height="6.83737" transform="matrix(0.949844 -0.312724 0.463733 0.885975 14.1688 9.15723)" fill="white"></rect>
    <rect id="Rectangle 34624958" width="1.148" height="9.76126" transform="matrix(0.949844 -0.312724 0.463733 0.885975 8.73853 6.85095)" fill="white"></rect>
  </g>
</svg>
