<?xml version="1.0" encoding="UTF-8"?>
<svg xmlns="http://www.w3.org/2000/svg" width="10" height="20" viewBox="0 0 10 20" fill="none">
  <g id="Group 1000004079">
    <path id="Vector" d="M7.39924 12.3186V2.42813C7.39924 1.08703 6.31206 0 4.97112 0C3.63002 0 2.54299 1.08703 2.54299 2.42813V12.3186C1.45655 13.0829 0.746704 14.3463 0.746704 15.7756C0.746704 18.1087 2.63803 20 4.97112 20C7.30417 20 9.19549 18.1087 9.19549 15.7756C9.19549 14.3463 8.48549 13.0829 7.39924 12.3186Z" fill="#F96515"></path>
    <path id="Vector_2" d="M4.97109 18.6163C3.36234 18.6163 2.05359 17.3074 2.05359 15.6989C2.05359 14.4772 2.81273 13.3896 3.95179 12.9653V2.42799C3.95179 1.86588 4.40894 1.40869 4.97109 1.40869C5.53304 1.40869 5.99035 1.86588 5.99035 2.42799V12.9653C7.12929 13.3895 7.88855 14.4771 7.88855 15.6987C7.88855 17.3074 6.5798 18.6163 4.97109 18.6163Z" fill="white"></path>
    <path id="Vector_3" d="M3.95179 4.29199V12.9655C2.81273 13.3898 2.05359 14.4774 2.05359 15.699C2.05359 17.3077 3.36234 18.6165 4.97109 18.6165C6.5798 18.6165 7.88855 17.3077 7.88855 15.699C7.88855 14.4774 7.12929 13.3897 5.99035 12.9655V4.29199H3.95179Z" fill="white"></path>
  </g>
</svg>
