<?xml version="1.0" encoding="UTF-8"?>
<svg xmlns="http://www.w3.org/2000/svg" width="107" height="103" viewBox="0 0 107 103" fill="none">
  <rect width="107" height="102.633" fill="white"></rect>
  <g clip-path="url(#clip0_1404_15995)">
    <path d="M16.013 55.2001C16.013 52.9179 16.0101 50.6372 16.013 48.355C16.0145 47.2652 16.3901 46.8931 17.5063 46.8931C21.844 46.8901 26.1802 46.8886 30.5179 46.896C31.6715 46.8975 32.1039 47.3293 32.1054 48.4681C32.1129 52.833 32.1129 57.1979 32.1129 61.5628C32.1129 63.1408 31.7239 63.5547 30.1348 63.5621C26.6949 63.5785 23.255 63.5711 19.8151 63.5666C18.9936 63.5666 18.1677 63.583 17.3492 63.519C16.3018 63.4371 16.0175 63.0932 16.016 62.0451C16.0116 59.763 16.016 57.4823 16.0145 55.2001H16.013ZM25.7657 58.7983C25.5129 57.8247 25.3094 57.0148 25.0909 56.2079C24.9203 55.5737 24.8485 55.0333 25.3917 54.4483C26.0784 53.7069 25.8839 52.6231 25.1253 52.0098C24.3862 51.4128 23.3837 51.4708 22.6864 52.1497C22.058 52.763 22.0011 53.8945 22.667 54.5659C23.1143 55.017 23.1024 55.4502 22.9468 55.9787C22.7313 56.7141 22.5532 57.4584 22.3468 58.1968C22.2495 58.5437 22.2764 58.7968 22.7178 58.7983C23.6814 58.8012 24.645 58.7983 25.7642 58.7983H25.7657Z" fill="#6BC530"></path>
    <path d="M55.4325 53.9232C55.012 55.601 54.5781 57.2743 54.1726 58.9566C53.8135 60.4468 53.8285 60.4497 52.2649 60.4542C50.7911 60.4572 50.8105 60.4542 50.4604 59.0176C50.0325 57.2684 49.5671 55.5281 48.997 53.7908C48.997 55.6338 48.997 57.4783 48.997 59.3213C48.997 60.4289 48.9731 60.4527 47.8763 60.4557C47.3287 60.4572 46.7796 60.4483 46.2319 60.4542C45.7307 60.4587 45.5167 60.222 45.5167 59.7247C45.5212 56.2039 45.5197 52.6832 45.5107 49.1624C45.5107 48.613 45.7801 48.415 46.2963 48.418C47.4918 48.4269 48.6888 48.4269 49.8843 48.421C50.408 48.418 50.6893 48.6309 50.8195 49.1653C51.1891 50.6808 51.608 52.1844 52.012 53.6925C52.0734 53.9188 52.1587 54.1391 52.3936 54.3699C52.5327 53.9396 52.6913 53.5153 52.8065 53.0791C53.1462 51.7855 53.4903 50.4903 53.7881 49.1862C53.9093 48.6547 54.1846 48.421 54.7128 48.421C55.9337 48.424 57.1547 48.424 58.3757 48.421C58.8799 48.4195 59.0849 48.6636 59.0834 49.1564C59.0759 52.6772 59.0744 56.198 59.0834 59.7188C59.0834 60.2205 58.8769 60.4542 58.3772 60.4512C57.7547 60.4483 57.1293 60.4289 56.5083 60.4587C55.8185 60.4929 55.5866 60.1743 55.5941 59.5208C55.6135 57.8103 55.5956 56.0997 55.5941 54.3877C55.5941 54.2403 55.5941 54.093 55.5941 53.9456L55.4325 53.9232Z" fill="#2E2E2E"></path>
    <path d="M69.4855 64.0444C64.4281 64.1932 60.0321 59.6512 60.0186 54.6193C60.0051 49.5414 64.3593 44.9502 69.7997 45.0931C74.9439 45.2271 79.1259 49.525 79.1125 54.7087C79.099 59.7777 74.4845 64.3034 69.487 64.0444H69.4855ZM69.6994 47.3276C65.9094 47.1103 62.4665 50.2887 62.2301 54.2233C61.9907 58.2071 65.2076 61.7637 69.4316 61.8604C73.3608 61.9497 76.6975 59.1286 76.892 54.7876C77.0701 50.8276 73.892 47.3708 69.6979 47.3276H69.6994Z" fill="#2E2E2E"></path>
    <path d="M33.2956 54.3696C33.2956 52.7841 33.2926 51.1986 33.2956 49.6116C33.2986 48.4639 33.3494 48.4177 34.5345 48.4147C35.8796 48.4132 37.2233 48.4147 38.5684 48.4147C42.3061 48.4147 44.2602 50.1893 44.4712 53.911C44.5296 54.9323 44.4084 55.9997 44.166 56.9956C43.6782 59.0054 41.9141 60.3423 39.7071 60.4227C37.8412 60.4896 35.9724 60.4346 34.1051 60.4509C33.4766 60.4569 33.2866 60.1413 33.2911 59.5711C33.3046 57.8368 33.2956 56.1024 33.2956 54.3681V54.3696ZM37.3176 54.4321H37.3131C37.3131 55.2256 37.2876 56.0205 37.3295 56.8125C37.3415 57.0343 37.5031 57.3738 37.6796 57.4423C38.7674 57.8606 40.129 57.14 40.2802 56.025C40.3954 55.1735 40.4223 54.2892 40.337 53.4347C40.1979 52.0531 39.3674 51.4398 37.9879 51.5187C37.533 51.5455 37.3026 51.7211 37.3131 52.2005C37.3295 52.9449 37.3176 53.6892 37.3176 54.4336V54.4321Z" fill="#2E2E2E"></path>
    <path d="M85.1964 48.4154C87.7491 48.4302 87.1565 48.1504 88.0199 50.3477C89.2169 53.3921 90.3825 56.4499 91.5571 59.5033C91.8593 60.2893 91.7621 60.4382 90.9406 60.4516C90.1177 60.465 89.2947 60.4233 88.4733 60.462C87.7969 60.4947 87.4319 60.1836 87.3166 59.5658C87.1835 58.8467 86.787 58.5847 86.0613 58.6473C85.4179 58.7023 84.764 58.6919 84.1191 58.6473C83.4503 58.6011 83.0762 58.8795 82.949 59.5122C82.8009 60.2461 82.37 60.523 81.6159 60.4665C80.8468 60.4084 80.0717 60.456 79.2996 60.4486C78.7505 60.4426 78.5156 60.2342 78.737 59.6536C80.0957 56.112 81.4288 52.5614 82.8189 49.0317C82.9281 48.7548 83.3755 48.5106 83.7061 48.4407C84.1835 48.3409 84.6982 48.4154 85.1964 48.4154ZM85.2548 52.7713L85.0244 52.7847C84.7715 53.6005 84.5022 54.4104 84.2852 55.2351C84.2553 55.3468 84.4767 55.6401 84.6039 55.6535C85.0573 55.7056 85.5196 55.6743 86.1481 55.6743C85.8189 54.6054 85.5361 53.6884 85.2548 52.7713Z" fill="#2E2E2E"></path>
    <path d="M28.9373 45.9153C28.1578 46.1029 27.8331 45.631 27.5039 44.8464C27.1418 43.983 26.5942 43.1225 25.9178 42.4794C24.7343 41.3539 22.9373 41.4284 21.827 42.6387C21.1911 43.3309 20.7288 44.2227 20.3487 45.0936C20.0914 45.6831 19.8385 45.9466 19.1727 45.9302C17.5851 45.893 17.4879 45.7933 18.0415 44.2718C18.7971 42.198 19.9058 40.4116 22.1428 39.6508C24.3273 38.9065 26.2904 39.3814 27.9288 40.9594C28.9807 41.9732 29.6795 43.2431 30.0416 44.6708C30.3573 45.9153 30.3468 45.9183 28.9388 45.9168L28.9373 45.9153Z" fill="#6BC530"></path>
    <path d="M69.7876 48.6879C72.1682 48.7147 73.9024 49.8327 74.6565 51.8261C74.9318 52.5541 74.8166 52.755 74.0475 52.8771C73.8754 52.9039 73.6869 52.8756 73.5283 52.9337C72.5079 53.3059 71.8226 53.1585 71.4231 51.9854C71.1717 51.247 70.3772 51.046 69.5976 51.1085C68.8121 51.1725 68.1986 51.5566 67.9053 52.2772C67.3353 53.6795 67.2919 55.137 67.7258 56.5795C67.9682 57.3834 68.5113 57.9551 69.4121 58.0638C70.3846 58.1829 71.0161 57.7199 71.4605 56.8951C72.1188 55.6744 72.1293 55.6804 73.4894 55.9558C75.1024 56.2833 75.2176 56.5364 74.3946 57.9387C73.3398 59.7326 70.9098 60.7509 68.8584 60.3683C66.4465 59.9187 64.8769 58.5536 64.3038 56.2133C63.6873 53.6989 64.3278 51.4956 66.3806 49.7955C67.2395 49.0839 68.5382 48.673 69.7891 48.6879H69.7876Z" fill="#2E2E2E"></path>
  </g>
  <defs>
    <clipPath id="clip0_1404_15995">
      <rect width="75.7007" height="24.7483" fill="white" transform="translate(16.0137 39.3066)"></rect>
    </clipPath>
  </defs>
</svg>
