<?xml version="1.0" encoding="UTF-8"?>
<svg xmlns="http://www.w3.org/2000/svg" width="91" height="90" viewBox="0 0 91 90" fill="none">
  <g clip-path="url(#clip0_1465_1254)">
    <path d="M68.6899 81.6937C67.8567 81.1131 66.9406 80.6614 65.9727 80.3539L58.3981 77.9486C54.4997 81.3473 50.377 83.0024 46.0855 83.0024C41.5516 83.0024 37.2061 81.1552 33.1145 77.356L23.6727 80.3539C20.2953 81.4263 17.7898 84.1573 16.935 87.4766L71.7689 88.7387C71.7689 86.6167 70.4894 83.4934 68.6899 81.6937Z" fill="#F96515"></path>
    <path d="M58.3979 77.9486L54.589 68.5654H35.0574L33.1142 77.356C37.2059 81.1552 41.5515 83.0024 46.0853 83.0024C50.3767 83.0023 54.4994 81.3473 58.3979 77.9486Z" fill="#F96515"></path>
    <path d="M44.8232 88.422C44.5722 88.422 44.3314 88.3222 44.1539 88.1447C43.9763 87.9672 43.8766 87.7264 43.8766 87.4754V82.8522C43.8766 82.3294 45.7698 82.475 45.7698 82.9979V87.4754C45.7698 87.7264 45.6701 87.9672 45.4925 88.1447C45.315 88.3222 45.0743 88.422 44.8232 88.422Z" fill="#1A1A1A"></path>
    <path d="M44.8231 79.2129C44.572 79.2129 44.3313 79.3126 44.1537 79.4901C43.9762 79.6677 43.8765 79.9084 43.8765 80.1595V82.8525C44.5036 82.9377 45.1348 82.986 45.7697 82.9981V80.1596C45.7697 80.0353 45.7452 79.9122 45.6977 79.7973C45.6501 79.6825 45.5804 79.5781 45.4925 79.4902C45.4046 79.4023 45.3002 79.3325 45.1854 79.285C45.0705 79.2374 44.9474 79.2129 44.8231 79.2129Z" fill="#1A1A1A"></path>
    <path d="M70.4963 87.0182C70.4081 85.0668 69.7605 83.2318 68.6899 81.6943C71.0817 83.3591 72.6739 86.0032 72.9779 88.9639C73.035 89.5196 72.5936 90.0015 72.035 90.0015L63.1085 90.0013L58.3981 90.0015L53.6426 90.0013H45.7701L44.9018 89.0548L43.8769 90.0013L17.6109 90.0015C17.0509 90.0015 16.6103 89.5176 16.6681 88.9606C16.7202 88.4602 16.8093 87.9644 16.9349 87.4772H70.0542C70.305 87.4772 70.5077 87.2686 70.4963 87.0182Z" fill="#F96515"></path>
    <path d="M43.8765 87.4771H45.7697V90.0012H43.8765V87.4771Z" fill="#1A1A1A"></path>
    <path d="M27.4848 82.9302L24.9064 83.7489C24.296 83.9428 23.6733 83.4872 23.6733 82.8468V80.3542L35.0575 76.7393L27.4848 82.9302ZM62.1617 82.9302L64.7401 83.7489C65.3505 83.9428 65.9732 83.4872 65.9732 82.8468V80.3542L54.589 76.7393L62.1617 82.9302Z" fill="#1A1A1A"></path>
    <path d="M31.271 68.5654L35.0574 76.7389C35.0574 76.7389 36.1895 78.411 38.6645 79.6867L40.5577 80.468C41.7642 80.8537 43.1805 81.1091 44.8231 81.1091C51.6352 81.1091 54.5889 76.7389 54.5889 76.7389L58.3752 68.5654H31.271Z" fill="#1A1A1A"></path>
    <path d="M39.6113 72.8232C39.3603 72.8232 39.1195 72.923 38.942 73.1005C38.7645 73.278 38.6647 73.5188 38.6647 73.7698V79.6869C39.273 79.9994 39.9062 80.2608 40.5579 80.4681V73.7698C40.5579 73.5188 40.4582 73.278 40.2807 73.1005C40.1031 72.923 39.8624 72.8232 39.6113 72.8232Z" fill="#1A1A1A"></path>
    <path d="M33.7951 82.5562L33.7952 76.8005L30.3199 74.4102C30.2045 74.4764 30.0814 74.5323 29.9508 74.5739L28.8049 74.9377C28.4218 75.0594 28.0874 75.2998 27.85 75.6242C27.6127 75.9486 27.4847 76.3401 27.4847 76.742V83.8182C31.2708 86.2142 33.7951 83.8795 33.7951 82.5562Z" fill="#1A1A1A"></path>
    <path d="M31.2712 68.5654V72.7698C31.271 73.1028 31.183 73.4298 31.016 73.7178C30.849 74.0059 30.609 74.2448 30.3202 74.4104C31.0489 75.2742 31.7869 76.0695 32.5333 76.8008L32.5332 82.5565C32.5332 83.8797 30.0089 84.9169 27.4847 83.8186C27.4847 85.1418 29.1799 86.2145 31.2711 86.2145C33.3623 86.2145 35.0574 85.1418 35.0574 83.8186V68.5654H31.2712Z" fill="#1A1A1A"></path>
    <path d="M60.8998 82.556L60.8999 74.9375L54.5892 80.6772V83.8181C58.3756 86.214 60.8998 83.8792 60.8998 82.556Z" fill="#1A1A1A"></path>
    <path d="M60.8416 74.9381L59.6957 74.5743C59.3126 74.4526 58.9781 74.2121 58.7408 73.8877C58.5034 73.5633 58.3755 73.1718 58.3755 72.7698V68.5654H54.5891V80.6777C56.3109 79.7002 57.9953 78.4118 59.6377 76.8028L59.6376 82.5565C59.6376 83.8797 57.1134 84.9169 54.5891 83.8186C54.5891 85.1418 56.2843 86.2145 58.3755 86.2145C60.4667 86.2145 62.1619 85.1418 62.1619 83.8186V76.7424C62.1618 76.3405 62.0338 75.949 61.7965 75.6246C61.5591 75.3002 61.2246 75.0598 60.8416 74.9381Z" fill="#1A1A1A"></path>
    <path d="M56.2403 30.6978L51.5804 28.3403C49.478 27.6325 47.2012 27.2734 44.823 27.2734C42.4448 27.2734 40.168 27.6325 38.0655 28.3403L33.4057 30.6978C28.6656 34.0628 25.5912 39.8732 25.5912 47.9791C25.5912 50.2637 25.8594 54.6137 25.8594 54.6137C26.1718 58.6425 26.6918 62.0326 27.0576 63.7214C30.2839 68.5652 36.53 74.7983 44.8229 74.7983C53.1158 74.7983 59.4774 66.5613 60.6227 65.0538C61.004 64.5519 61.2536 63.9626 61.3488 63.3396C61.7383 60.8025 62.7924 53.4329 62.7924 47.979C62.7926 38.6512 58.9552 33.0989 56.2403 30.6978Z" fill="#F96515"></path>
    <path d="M56.2403 30.6978C58.3752 32.887 61.5305 38.651 61.5305 47.9791C61.5305 53.4329 60.4764 60.8026 60.0869 63.3397C59.9916 63.9627 59.742 64.552 59.3608 65.0539C58.112 66.6974 54.9249 70.4229 50.4351 72.3427C45.9452 74.2625 43.5342 74.0087 39.2373 72.5313C34.9404 71.0539 30.5296 67.9995 27.0577 63.7215C27.3096 64.8834 27.8316 65.9697 28.5812 66.8925C32.0617 71.1811 35.7534 73.9287 39.611 75.2114H50.0352C53.8929 73.9287 57.5846 71.1811 61.065 66.8925C61.8147 65.9697 62.3366 64.8834 62.5885 63.7215C62.9543 62.0326 63.4741 58.6424 63.7866 54.6138L64.0548 47.9792C64.0547 39.8731 60.9803 34.0627 56.2403 30.6978Z" fill="#F96515"></path>
    <path d="M49.6912 41.8951C49.6912 41.8951 48.1784 42.2571 44.8232 42.2571C41.468 42.2571 39.9552 41.8951 39.9552 41.8951L38.0657 28.3403C36.3886 28.9049 34.8228 29.6921 33.4058 30.6978L39.2374 72.5314C41.1531 74.3001 43.0461 74.7984 44.8232 74.7984C46.8572 74.7984 48.7389 74.2904 50.4352 72.3428L56.2404 30.6978C54.8235 29.6919 53.2577 28.9049 51.5806 28.3403L49.6912 41.8951Z" fill="#F96515"></path>
    <path d="M45.2904 71.7827C44.0208 71.7827 42.6684 70.7038 41.2998 69.375L41.5667 75.1619C42.7857 76.3064 44.0278 76.875 45.2904 76.875C46.5531 76.875 47.7951 76.3064 49.0141 75.1619L49.2998 69.375C48.0879 70.8383 46.7436 71.7827 45.2904 71.7827Z" fill="#1A1A1A"></path>
    <path d="M44.8232 62.7071C52.3066 62.7071 58.0967 59.9871 62.3008 55.9718C62.5751 53.3346 62.7929 50.4594 62.7929 47.98C62.7929 45.8848 61.4224 45.0677 61.4224 45.0677C61.1792 45.0842 60.9207 45.1293 60.6473 45.2063C58.8027 45.7251 53.7371 48.6524 44.8234 48.6524C35.9096 48.6524 30.8439 45.7251 28.9994 45.2063C26.8278 44.5956 25.5917 45.9774 25.5917 47.98C25.5917 49.6105 25.6542 51.2273 25.7485 52.7795C27.4848 56.7555 34.3164 62.7071 44.8232 62.7071Z" fill="#1A1A1A"></path>
    <path d="M61.4222 45.0672C61.4914 45.9967 61.5306 46.9656 61.5306 47.9794C61.5306 50.0638 61.3767 52.4278 61.1646 54.6951C61.0533 55.8853 54.9243 61.4443 44.8231 61.4443C34.3162 61.4443 27.7784 56.0966 25.7481 52.779C25.7859 53.4016 25.8283 54.0148 25.8747 54.6128C26.1329 57.0243 32.7463 63.9685 44.8231 63.9685C56.8999 63.9685 63.5132 57.0243 63.7715 54.6128C63.9336 52.5236 64.0549 50.2638 64.0549 47.9794C64.0549 46.2289 63.1103 44.9529 61.4222 45.0672Z" fill="#1A1A1A"></path>
    <path d="M8.64668 20.1209C8.32581 19.8241 8.50011 19.2877 8.93411 19.2362L15.0837 18.5068C15.2606 18.4858 15.4143 18.3748 15.4889 18.213L18.0827 12.5897C18.2658 12.1928 18.8299 12.1927 19.013 12.5896L21.6068 18.2129C21.6814 18.3746 21.8341 18.486 22.011 18.507L28.1609 19.2362C28.5949 19.2877 28.7687 19.8243 28.4479 20.121L23.9018 24.3259C23.771 24.4468 23.7128 24.6268 23.7475 24.8015L24.954 30.8755C25.0392 31.3041 24.583 31.6363 24.2016 31.4228L18.798 28.3973C18.6425 28.3103 18.4537 28.3107 18.2983 28.3977L12.894 31.422C12.5127 31.6355 12.0556 31.3041 12.1408 30.8754L13.3475 24.8019C13.3822 24.6272 13.3241 24.4468 13.1934 24.3258L8.64668 20.1209Z" fill="#F96515"></path>
    <path d="M35.0745 7.82886C34.7536 7.53213 34.9279 6.99569 35.3619 6.94424L41.5115 6.21482C41.6884 6.19385 41.8421 6.08277 41.9167 5.92103L44.5105 0.297684C44.6936 -0.0991772 45.2577 -0.0992534 45.4408 0.297608L48.0346 5.92091C48.1092 6.08265 48.2619 6.19403 48.4388 6.215L54.5887 6.94424C55.0227 6.99569 55.1965 7.53229 54.8757 7.82902L50.3296 12.0339C50.1988 12.1548 50.1406 12.3348 50.1753 12.5095L51.3818 18.5835C51.467 19.0121 51.0108 19.3443 50.6294 19.1308L45.2258 16.1053C45.0703 16.0183 44.8815 16.0187 44.7261 16.1057L39.3218 19.13C38.9405 19.3435 38.4834 19.0121 38.5686 18.5834L39.7753 12.5099C39.81 12.3352 39.7519 12.1548 39.6212 12.0338L35.0745 7.82886Z" fill="#F96515"></path>
    <path d="M61.5022 20.1209C61.1814 19.8241 61.3557 19.2877 61.7897 19.2362L67.9393 18.5068C68.1162 18.4858 68.2698 18.3748 68.3444 18.213L70.9383 12.5897C71.1213 12.1928 71.6855 12.1927 71.8686 12.5896L74.4624 18.2129C74.537 18.3746 74.6896 18.486 74.8665 18.507L81.0165 19.2362C81.4505 19.2877 81.6243 19.8243 81.3034 20.121L76.7574 24.3259C76.6266 24.4468 76.5684 24.6268 76.6031 24.8015L77.8096 30.8755C77.8948 31.3041 77.4385 31.6363 77.0572 31.4228L71.6535 28.3973C71.4981 28.3103 71.3093 28.3107 71.1538 28.3977L65.7496 31.422C65.3682 31.6355 64.9112 31.3041 64.9964 30.8754L66.2031 24.8019C66.2378 24.6272 66.1797 24.4468 66.0489 24.3258L61.5022 20.1209Z" fill="#F96515"></path>
  </g>
  <defs>
    <clipPath id="clip0_1465_1254">
      <rect width="90" height="90" fill="white" transform="translate(0.299805)"></rect>
    </clipPath>
  </defs>
</svg>
