<?xml version="1.0" encoding="UTF-8"?>
<svg xmlns="http://www.w3.org/2000/svg" width="57" height="56" viewBox="0 0 57 56" fill="none">
  <g id="Group">
    <g id="Group_2">
      <path id="Vector" d="M20.41 0C19.3662 0 18.52 0.846231 18.52 1.89003V5.93887C18.52 6.98267 19.3662 7.8289 20.41 7.8289C21.4538 7.8289 22.3 6.98267 22.3 5.93887V1.89003C22.3 0.846231 21.4538 0 20.41 0ZM6.23891 18.2199H2.19008C1.14628 18.2199 0.300049 19.0662 0.300049 20.11C0.300049 21.1538 1.14628 22 2.19008 22H6.23891C7.28272 22 8.12895 21.1538 8.12895 20.11C8.12895 19.0662 7.28272 18.2199 6.23891 18.2199ZM8.86279 5.88985C8.12454 5.15173 6.92789 5.15198 6.1899 5.8901C5.4519 6.62822 5.45203 7.82499 6.19015 8.56299L10.4849 12.8569C11.2233 13.5949 12.4201 13.5945 13.1578 12.8565C13.8958 12.1184 13.8957 10.9216 13.1576 10.1836L8.86279 5.88985Z" fill="#F96515"></path>
    </g>
    <g id="Group_3">
      <path id="Vector_2" d="M36.1901 48.1711C35.1463 48.1711 34.3 49.0173 34.3 50.0611V54.11C34.3 55.1538 35.1463 56 36.1901 56C37.2339 56 38.0801 55.1538 38.0801 54.11V50.0611C38.0801 49.0173 37.2339 48.1711 36.1901 48.1711ZM54.41 34H50.3611C49.3173 34 48.4711 34.8462 48.4711 35.89C48.4711 36.9338 49.3173 37.7801 50.3611 37.7801H54.41C55.4538 37.7801 56.3 36.9338 56.3 35.89C56.3 34.8462 55.4538 34 54.41 34ZM46.115 43.1421C45.3768 42.4044 44.1801 42.4042 43.4421 43.1425C42.7041 43.8806 42.7042 45.0774 43.4423 45.8155L47.7373 50.1093C48.4755 50.8473 49.6723 50.8469 50.4102 50.1089C51.1482 49.3708 51.148 48.174 50.4099 47.4359L46.115 43.1421Z" fill="#F96515"></path>
    </g>
    <g id="Group 1000004108">
      <path id="Vector_3" d="M33.4005 6.41191L31.0309 8.78144C26.4817 13.3315 26.4817 20.719 31.0309 25.2682C35.5809 29.8182 42.9685 29.8182 47.5185 25.2682L49.8873 22.8995C54.4373 18.3495 54.4373 10.9619 49.8873 6.41191C45.3381 1.8627 37.9506 1.8627 33.4005 6.41191ZM45.1731 18.2095L43.9885 19.394C42.0343 21.349 38.8601 21.349 36.9051 19.394C34.9509 17.4399 34.8662 14.3505 36.8203 12.3955L38.0897 11.1261C40.0447 9.17187 43.2189 9.17187 45.1731 11.1261C47.1282 13.0811 47.1281 16.2553 45.1731 18.2095Z" fill="#F96515"></path>
      <path id="Vector_4" d="M38.0896 13.4959C33.5403 8.94668 26.1529 8.94668 21.6028 13.4959C19.5153 15.5834 18.3861 18.2685 18.2135 21.0018C18.2135 21.8107 18.8694 22.4666 19.6783 22.4666H23.4421C24.2511 22.4666 24.907 21.8107 24.907 21.0018C25.0658 19.9442 25.5601 18.9656 26.3169 18.2101C28.272 16.2559 31.4453 16.2559 33.4003 18.2101L35.7453 20.5551C37.6995 22.5093 40.8736 22.5093 42.8287 20.5551L43.9888 19.3951L38.0896 13.4959Z" fill="#1D1D1D"></path>
      <path id="Vector_5" d="M23.1994 49.5882L25.5689 47.2186C30.1181 42.6685 30.1181 35.2811 25.5689 30.7318C21.0189 26.1818 13.6313 26.1818 9.0813 30.7318L6.71255 33.1006C2.16255 37.6506 2.16255 45.0382 6.71255 49.5882C11.2618 54.1374 18.6494 54.1374 23.1994 49.5882ZM11.4268 37.7906L12.6114 36.6061C14.5656 34.6511 17.7398 34.6511 19.6948 36.6061C21.649 38.5602 21.7337 41.6496 19.7796 43.6046L18.5102 44.874C16.5552 46.8282 13.381 46.8282 11.4268 44.874C9.47173 42.9189 9.47182 39.7448 11.4268 37.7906Z" fill="#F96515"></path>
      <path id="Vector_6" d="M18.5098 42.5049C23.059 47.0541 30.4465 47.0541 34.9966 42.5049C37.0841 40.4174 38.2133 37.7323 38.3859 34.999C38.3859 34.19 37.73 33.5342 36.921 33.5342H33.1572C32.3483 33.5342 31.6924 34.19 31.6924 34.999C31.5335 36.0566 31.0393 37.0352 30.2824 37.7907C28.3274 39.7449 25.154 39.7449 23.199 37.7907L20.854 35.4457C18.8998 33.4915 15.7257 33.4915 13.7706 35.4457L12.6105 36.6057L18.5098 42.5049Z" fill="#1D1D1D"></path>
    </g>
  </g>
</svg>
