<?xml version="1.0" encoding="UTF-8"?>
<svg xmlns="http://www.w3.org/2000/svg" width="91" height="90" viewBox="0 0 91 90" fill="none">
  <g clip-path="url(#clip0_1465_1203)">
    <path d="M66.5224 25.3125H49.0068C48.8109 25.3127 48.6183 25.3635 48.4479 25.4602C48.2775 25.5568 48.1349 25.696 48.0342 25.864L41.5553 36.6612H27.9368L21.4579 25.864C21.3572 25.696 21.2147 25.5568 21.0442 25.4602C20.8738 25.3635 20.6812 25.3127 20.4853 25.3125H2.96974C2.66875 25.3125 2.38009 25.4321 2.16726 25.6449C1.95444 25.8577 1.83487 26.1464 1.83487 26.4474V28.7171C1.83487 29.0181 1.95444 29.3067 2.16726 29.5196C2.38009 29.7324 2.66875 29.852 2.96974 29.852H17.723L23.8706 40.0987C24.0723 40.4348 24.3575 40.7129 24.6986 40.9061C25.0397 41.0992 25.425 41.2007 25.8169 41.2007H43.6752C44.0672 41.2007 44.4524 41.0992 44.7935 40.9061C45.1346 40.7129 45.4198 40.4348 45.6215 40.0987L51.7691 29.852H66.5224C66.8234 29.852 67.112 29.7324 67.3249 29.5196C67.5377 29.3067 67.6572 29.0181 67.6572 28.7171V26.4474C67.6572 26.1464 67.5377 25.8577 67.3249 25.6449C67.112 25.4321 66.8234 25.3125 66.5224 25.3125Z" fill="#1A1A1A"></path>
    <path d="M27.9369 36.6611H32.4763V47.8328H27.9369V36.6611ZM37.0158 36.6611H41.5553V47.8328H37.0158V36.6611Z" fill="#1A1A1A"></path>
    <path d="M2.96974 25.3125H17.723V29.852H2.96974C2.66875 29.852 2.38009 29.7324 2.16726 29.5196C1.95444 29.3067 1.83487 29.0181 1.83487 28.7171V26.4474C1.83487 26.1464 1.95444 25.8577 2.16726 25.6449C2.38009 25.4321 2.66875 25.3125 2.96974 25.3125ZM51.7691 25.3125H66.5224C66.8234 25.3125 67.112 25.4321 67.3249 25.6449C67.5377 25.8577 67.6572 26.1464 67.6572 26.4474V28.7171C67.6572 29.0181 67.5377 29.3067 67.3249 29.5196C67.112 29.7324 66.8234 29.852 66.5224 29.852H51.7691V25.3125Z" fill="#F96515"></path>
    <path d="M23.9455 30.0083L19.6149 33.2563H7.50922C7.26367 33.2563 7.02474 33.3359 6.8283 33.4833L3.86062 35.7087C3.41179 35.5172 2.91317 35.4754 2.43872 35.5896C1.96427 35.7038 1.53925 35.9678 1.22668 36.3426C0.914124 36.7173 0.730669 37.1829 0.703527 37.6701C0.676385 38.1573 0.807 38.6404 1.076 39.0475C1.34501 39.4547 1.73807 39.7643 2.19691 39.9304C2.65574 40.0966 3.15591 40.1105 3.62325 39.97C4.09058 39.8295 4.50018 39.5421 4.79132 39.1504C5.08245 38.7588 5.23961 38.2838 5.23949 37.7958C5.23602 37.7076 5.2273 37.6196 5.21339 37.5325L7.88714 35.526H19.9928C20.2383 35.526 20.4773 35.4464 20.6737 35.2991L25.119 31.9648L23.9455 30.0083ZM66.5224 35.526C66.2161 35.526 65.913 35.5881 65.6315 35.7087L62.6638 33.4833C62.4674 33.3359 62.2285 33.2563 61.9829 33.2563H49.8773L45.5466 30.0083L44.3732 31.9648L48.8184 35.2991C49.0149 35.4464 49.2538 35.526 49.4994 35.526H61.605L64.2787 37.5325C64.2648 37.6196 64.2561 37.7076 64.2526 37.7958C64.2526 38.2447 64.3858 38.6835 64.6352 39.0568C64.8846 39.43 65.2391 39.7209 65.6538 39.8927C66.0685 40.0645 66.5249 40.1095 66.9652 40.0219C67.4055 39.9343 67.8099 39.7181 68.1273 39.4007C68.4448 39.0833 68.6609 38.6789 68.7485 38.2386C68.8361 37.7983 68.7911 37.3419 68.6193 36.9272C68.4476 36.5124 68.1566 36.158 67.7834 35.9086C67.4101 35.6592 66.9713 35.526 66.5224 35.526Z" fill="#1A1A1A"></path>
    <path d="M10.9138 61.6284H19.9928V63.8982H10.9138V61.6284ZM49.4993 61.6284H58.5783V63.8982H49.4993V61.6284Z" fill="#1A1A1A"></path>
    <path d="M49.4993 85.4605H44.9599V46.875H49.4993V85.4605ZM19.9928 85.4605H24.5322V60.919V60.9667V46.875H19.9928V83.4813V85.4605Z" fill="#F96515"></path>
    <path d="M18.8579 46.875H25.6671V51.4145H18.8579V46.875ZM43.825 46.875H50.6342V51.4145H43.825V46.875Z" fill="#1A1A1A"></path>
    <path d="M24.5323 60.4934H44.9599V65.0329H24.5323V60.4934ZM25.6671 46.875H43.825V51.4145H25.6671V46.875Z" fill="#1A1A1A"></path>
    <path d="M18.8579 85.4604H25.6671V89.9999H18.8579V85.4604ZM43.825 85.4604H50.6342V89.9999H43.825V85.4604Z" fill="#F96515"></path>
    <path d="M34.7461 65.0329C39.7602 65.0329 43.825 60.9681 43.825 55.9539C43.825 50.9398 39.7602 46.875 34.7461 46.875C29.7319 46.875 25.6671 50.9398 25.6671 55.9539C25.6671 60.9681 29.7319 65.0329 34.7461 65.0329Z" fill="#F96515"></path>
    <path d="M34.7461 59.3585C36.6264 59.3585 38.1507 57.8342 38.1507 55.9539C38.1507 54.0736 36.6264 52.5493 34.7461 52.5493C32.8658 52.5493 31.3415 54.0736 31.3415 55.9539C31.3415 57.8342 32.8658 59.3585 34.7461 59.3585Z" fill="#1A1A1A"></path>
    <path d="M9.77896 66.1676C11.6593 66.1676 13.1836 64.6433 13.1836 62.763C13.1836 60.8827 11.6593 59.3584 9.77896 59.3584C7.89865 59.3584 6.37436 60.8827 6.37436 62.763C6.37436 64.6433 7.89865 66.1676 9.77896 66.1676Z" fill="#F96515"></path>
    <path d="M59.7132 66.1676C61.5935 66.1676 63.1178 64.6433 63.1178 62.763C63.1178 60.8827 61.5935 59.3584 59.7132 59.3584C57.8329 59.3584 56.3086 60.8827 56.3086 62.763C56.3086 64.6433 57.8329 66.1676 59.7132 66.1676Z" fill="#F96515"></path>
    <path d="M43.8251 85.4603V89.9998H25.6672V85.4603C25.6636 84.6566 25.7397 83.8545 25.8942 83.0657C26.0473 82.3061 26.2991 81.5697 26.6432 80.8754C26.9705 80.1889 27.4075 79.5602 27.937 79.0142C29.4431 77.481 31.4657 76.5627 33.6113 76.4381C33.9858 76.404 34.3603 76.3813 34.7462 76.3813C35.132 76.3813 35.5065 76.404 35.8811 76.4381C38.1079 76.5629 40.1993 77.5476 41.7143 79.1845C42.2293 79.7514 42.6473 80.3994 42.9513 81.1024C43.2281 81.6926 43.4338 82.3135 43.5641 82.9522C43.7428 83.7762 43.8303 84.6172 43.8251 85.4603Z" fill="#1A1A1A"></path>
    <path d="M35.8817 76.4391V90.0007H33.612V76.4391C33.9865 76.405 34.361 76.3823 34.7469 76.3823C35.1327 76.3823 35.5072 76.405 35.8817 76.4391ZM43.8258 85.4613V85.6769L38.9118 89.7057L37.4705 87.958L43.5648 82.9532C43.7435 83.7771 43.831 84.6182 43.8258 85.4613ZM42.952 81.1034L38.821 84.1108L37.4819 82.2723L41.7149 79.1855C42.23 79.7524 42.6479 80.4004 42.952 81.1034ZM32.0459 87.9807L30.6386 89.7511L25.6679 85.779V85.4613C25.6643 84.6575 25.7403 83.8554 25.8949 83.0667L32.0459 87.9807ZM32.0459 82.3063L30.6386 84.0767L26.6439 80.8764C26.9712 80.1898 27.4081 79.5612 27.9376 79.0152L32.0459 82.3063Z" fill="#F96515"></path>
    <path d="M18.8579 60.4937H25.6671V65.0331H18.8579V60.4937ZM43.825 60.4937H50.6342V65.0331H43.825V60.4937Z" fill="#1A1A1A"></path>
    <path d="M88.4067 28.1725C87.2231 31.2457 85.433 33.9178 83.0856 36.114C80.4137 38.6135 76.9149 40.5997 72.6864 42.0166C72.5462 42.0634 72.4029 42.1009 72.2574 42.1289C72.0652 42.1653 71.8697 42.1849 71.6758 42.1875H71.6379C71.4312 42.1875 71.2236 42.1676 71.0177 42.129C70.8721 42.101 70.7294 42.0629 70.5913 42.0175C66.3578 40.603 62.8547 38.6177 60.1801 36.1181C57.8316 33.922 56.0419 31.2515 54.86 28.1783C52.7108 22.5907 52.8331 16.4354 52.9315 11.489L52.9333 11.413C52.953 11.0046 52.9658 10.5755 52.9728 10.1017C53.0088 7.77566 54.9392 5.85118 57.3676 5.72149C62.4307 5.45073 66.3474 3.86878 69.6939 0.743854L69.7232 0.718064C70.2789 0.229776 70.9791 -0.00967119 71.6758 0.00029891C72.3478 0.00862106 73.017 0.247821 73.5528 0.717981L73.5814 0.743772C76.9286 3.86878 80.8454 5.45073 85.9084 5.72141C88.3368 5.85118 90.2673 7.77558 90.3032 10.1017C90.3102 10.5787 90.323 11.0071 90.3428 11.413L90.3439 11.4452C90.4419 16.4009 90.5636 22.5685 88.4067 28.1725Z" fill="#1A1A1A"></path>
    <path d="M84.0208 21.0927C84.0208 27.7346 78.628 33.1411 71.9916 33.1647H71.9491C65.2932 33.1647 59.8771 27.749 59.8771 21.0927C59.8771 14.4368 65.2932 9.021 71.9491 9.021H71.9917C78.628 9.04465 84.0208 14.4512 84.0208 21.0927Z" fill="#F96515"></path>
    <path d="M77.4282 19.3559L71.9913 24.7935L70.8165 25.9683C70.6847 26.1004 70.528 26.2052 70.3555 26.2766C70.183 26.348 69.9981 26.3846 69.8114 26.3843C69.6246 26.3846 69.4396 26.348 69.2671 26.2766C69.0945 26.2052 68.9378 26.1004 68.8058 25.9683L66.28 23.4413C65.7249 22.8861 65.7249 21.987 66.28 21.4316C66.8343 20.8765 67.7345 20.8765 68.2896 21.4316L69.8114 22.9534L75.4186 17.3462C75.9736 16.7909 76.8739 16.7909 77.4282 17.3462C77.9832 17.9013 77.9832 18.8016 77.4282 19.3559Z" fill="#1A1A1A"></path>
  </g>
  <defs>
    <clipPath id="clip0_1465_1203">
      <rect width="90" height="90" fill="white" transform="translate(0.700012)"></rect>
    </clipPath>
  </defs>
</svg>
