<?xml version="1.0" encoding="UTF-8"?>
<svg xmlns="http://www.w3.org/2000/svg" width="64" height="52" viewBox="0 0 64 52" fill="none">
  <g clip-path="url(#clip0_1606_3562)">
    <path d="M0 46.4846V42.0039H1.4643L1.8611 43.9124C1.8611 43.9198 1.87739 44.0442 1.90848 44.2709C1.93957 44.505 1.97067 44.7303 2.00176 44.9644C2.02545 44.7925 2.05654 44.5747 2.09504 44.3258C2.13353 44.0679 2.15722 43.9287 2.15722 43.9049L2.55402 42.0113H4.00204V46.492H3.02929L3.12256 43.0248L2.41336 46.492H1.61088L0.901679 43.0248L0.994957 46.492H0V46.4846Z" fill="white"></path>
    <path d="M6.53966 44.6452V43.8347C6.53966 43.3353 6.50856 43.0316 6.44638 42.9145C6.38419 42.7975 6.26723 42.7352 6.10436 42.7352C5.9415 42.7352 5.83193 42.7975 5.76975 42.9145C5.70756 43.0316 5.67647 43.3427 5.67647 43.8347V44.6452C5.67647 45.1282 5.70756 45.432 5.76975 45.5564C5.83193 45.6809 5.9489 45.7431 6.11176 45.7431C6.27463 45.7431 6.38419 45.6809 6.44638 45.5638C6.50116 45.4394 6.53966 45.1356 6.53966 44.6437V44.6452ZM4.60156 44.2407C4.60156 43.7028 4.61785 43.3057 4.65634 43.0568C4.69484 42.8078 4.75702 42.6123 4.8503 42.473C4.97467 42.2789 5.14642 42.1307 5.35666 42.0285C5.56691 41.9351 5.81565 41.8877 6.10436 41.8877C6.39308 41.8877 6.64922 41.9351 6.85206 42.0285C7.0549 42.1218 7.22517 42.27 7.35102 42.473C7.4443 42.6137 7.50648 42.8078 7.54498 43.0568C7.58347 43.3057 7.59976 43.6954 7.59976 44.2332C7.59976 44.7711 7.58347 45.1608 7.54498 45.4097C7.50648 45.6587 7.4443 45.8542 7.35102 45.9935C7.22665 46.1876 7.0623 46.3358 6.85206 46.4292C6.64182 46.5225 6.39308 46.5773 6.10436 46.5773C5.81565 46.5773 5.56691 46.5299 5.35666 46.4292C5.14642 46.3358 4.98355 46.1876 4.8503 45.9935C4.76443 45.8528 4.69484 45.6587 4.65634 45.4097C4.62525 45.1756 4.60156 44.7785 4.60156 44.2407Z" fill="white"></path>
    <path d="M8.73551 46.4832V42.8679H7.89453V41.9951H10.6662V42.8679H9.78673V46.4832H8.73551Z" fill="white"></path>
    <path d="M12.878 44.6452V43.8347C12.878 43.3353 12.8469 43.0316 12.7847 42.9145C12.7225 42.7975 12.6055 42.7352 12.4427 42.7352C12.2798 42.7352 12.1702 42.7975 12.108 42.9145C12.0459 43.0316 12.0148 43.3427 12.0148 43.8347V44.6452C12.0148 45.1282 12.0459 45.432 12.108 45.5564C12.1702 45.6809 12.2872 45.7431 12.4501 45.7431C12.6129 45.7431 12.7225 45.6809 12.7847 45.5638C12.8469 45.4394 12.878 45.1356 12.878 44.6437V44.6452ZM10.9473 44.2407C10.9473 43.7028 10.9636 43.3057 11.002 43.0568C11.0405 42.8078 11.1027 42.6123 11.196 42.473C11.3204 42.2789 11.4921 42.1307 11.7024 42.0285C11.9126 41.9351 12.1613 41.8877 12.4501 41.8877C12.7388 41.8877 12.9949 41.9351 13.1978 42.0285C13.4006 42.1218 13.5709 42.27 13.6967 42.473C13.79 42.6137 13.8522 42.8078 13.8907 43.0568C13.9292 43.3057 13.9455 43.6954 13.9455 44.2332C13.9455 44.7711 13.9292 45.1608 13.8907 45.4097C13.8522 45.6587 13.79 45.8542 13.6967 45.9935C13.5724 46.1876 13.408 46.3358 13.1978 46.4292C12.9875 46.5225 12.7388 46.5773 12.4501 46.5773C12.1613 46.5773 11.9126 46.5299 11.7024 46.4292C11.4921 46.3358 11.3293 46.1876 11.196 45.9935C11.1101 45.8528 11.0405 45.6587 11.002 45.4097C10.9636 45.1756 10.9473 44.7785 10.9473 44.2407Z" fill="white"></path>
    <path d="M15.5641 43.8674H15.6959C15.9135 43.8674 16.069 43.82 16.1548 43.7355C16.2481 43.6496 16.2866 43.5014 16.2866 43.291C16.2866 43.0969 16.2392 42.9636 16.1548 42.8776C16.0616 42.7991 15.9135 42.7606 15.6959 42.7606H15.5641V43.8674ZM14.5291 46.4856V42.0049H15.7047C16.0941 42.0049 16.374 42.0212 16.5457 42.0597C16.7175 42.0982 16.8655 42.1605 16.9736 42.2464C17.098 42.3472 17.2001 42.4805 17.2623 42.6361C17.3245 42.7917 17.3556 42.971 17.3556 43.1814C17.3556 43.4392 17.3082 43.657 17.2238 43.8274C17.1305 43.9993 16.9899 44.1474 16.8033 44.2556C17.1305 44.3964 17.3023 44.7387 17.3171 45.2765V45.2928C17.3171 45.3476 17.3245 45.4336 17.3245 45.5343C17.3319 46.0411 17.4178 46.3522 17.5732 46.4856H16.3503C16.3266 46.3922 16.3029 46.2989 16.2881 46.1893C16.2718 46.0885 16.2718 45.9788 16.2718 45.8618C16.2718 45.7921 16.2718 45.7062 16.2792 45.604C16.2866 45.5032 16.2866 45.4321 16.2866 45.401C16.2866 45.1283 16.2481 44.9416 16.177 44.8394C16.1075 44.7386 15.9742 44.6912 15.7876 44.6912H15.57V46.4826H14.5262L14.5291 46.4856Z" fill="white"></path>
    <path d="M19.0043 45.6899H19.0976C19.3152 45.6899 19.4796 45.6351 19.5965 45.5343C19.7061 45.4336 19.7594 45.2765 19.7594 45.075C19.7594 44.8883 19.7046 44.7475 19.5965 44.6542C19.487 44.5608 19.3167 44.5223 19.0828 44.5223H19.0132V45.6914H19.0058L19.0043 45.6899ZM19.0043 43.7503H19.0739C19.2767 43.7503 19.4322 43.7029 19.5329 43.6185C19.6335 43.5325 19.6809 43.4007 19.6809 43.2214C19.6809 43.0658 19.6335 42.9413 19.5329 42.8628C19.4396 42.7769 19.2989 42.7383 19.1198 42.7383H19.0502C19.0339 42.7383 19.0191 42.7383 19.0117 42.7457L19.0043 43.7503ZM17.9605 46.4856V42.0049H19.0887C19.4307 42.0049 19.672 42.0212 19.8201 42.0434C19.9681 42.0745 20.0999 42.1131 20.2095 42.1842C20.3723 42.2849 20.4893 42.4094 20.5752 42.5665C20.6611 42.722 20.6996 42.9176 20.6996 43.128C20.6996 43.3221 20.6611 43.494 20.5826 43.6496C20.5041 43.8052 20.3797 43.9459 20.2169 44.0941C20.4197 44.1949 20.5678 44.3356 20.6685 44.5075C20.7691 44.6794 20.8239 44.8898 20.8239 45.1313C20.8239 45.3343 20.7928 45.521 20.7232 45.7003C20.6537 45.8796 20.5604 46.0277 20.4345 46.1596C20.3176 46.2841 20.1769 46.37 20.0066 46.4174C19.8349 46.4723 19.5713 46.496 19.213 46.496H17.959V46.4886L17.9605 46.4856Z" fill="white"></path>
    <path d="M22.4004 42.0049H21.3566V46.4856H22.4004V42.0049Z" fill="white"></path>
    <path d="M23.0692 46.4841V42.0049H24.113V43.8659L24.8992 42.0049H25.9726L24.9998 43.9682L25.9963 46.493H24.8992L24.3454 44.872L24.1204 45.3002V46.493H23.0692V46.4841Z" fill="white"></path>
    <path d="M26.2306 46.4841V42.0049H28.6676V42.8776H27.2744V43.7029H28.567V44.5994H27.2744V45.5803H28.6676V46.493H26.2306V46.4841Z" fill="white"></path>
    <path d="M31.339 46.4832V42.8679H30.498V41.9951H33.2697V42.8679H32.3902V46.4832H31.339Z" fill="white"></path>
    <path d="M35.4795 44.6452V43.8347C35.4795 43.3353 35.4484 43.0316 35.3862 42.9145C35.3241 42.7975 35.2071 42.7352 35.0442 42.7352C34.8814 42.7352 34.7718 42.7975 34.7096 42.9145C34.6474 43.0316 34.6163 43.3427 34.6163 43.8347V44.6452C34.6163 45.1282 34.6474 45.432 34.7096 45.5564C34.7718 45.6809 34.8888 45.7431 35.0516 45.7431C35.2145 45.7431 35.3241 45.6809 35.3862 45.5638C35.4484 45.4394 35.4795 45.1356 35.4795 44.6437V44.6452ZM33.5488 44.2407C33.5488 43.7028 33.5651 43.3057 33.6036 43.0568C33.6421 42.8078 33.7043 42.6123 33.7976 42.473C33.9219 42.2789 34.0937 42.1307 34.3039 42.0285C34.5142 41.9351 34.7629 41.8877 35.0516 41.8877C35.3403 41.8877 35.5965 41.9351 35.7993 42.0285C36.0022 42.1218 36.1724 42.27 36.2983 42.473C36.3916 42.6137 36.4537 42.8078 36.4922 43.0568C36.5307 43.3057 36.547 43.6954 36.547 44.2332C36.547 44.7711 36.5307 45.1608 36.4922 45.4097C36.4537 45.6587 36.3916 45.8542 36.2983 45.9935C36.1739 46.1876 36.0096 46.3358 35.7993 46.4292C35.5891 46.5225 35.3403 46.5773 35.0516 46.5773C34.7629 46.5773 34.5142 46.5299 34.3039 46.4292C34.0937 46.3358 33.9308 46.1876 33.7976 45.9935C33.7117 45.8528 33.6421 45.6587 33.6036 45.4097C33.5725 45.1756 33.5488 44.7785 33.5488 44.2407Z" fill="white"></path>
    <path d="M37.1309 41.9957H38.1895V44.808C38.1895 45.2362 38.2132 45.494 38.268 45.5948C38.3227 45.6955 38.416 45.7429 38.5478 45.7429C38.6884 45.7429 38.7817 45.6881 38.8365 45.5874C38.8913 45.4866 38.915 45.2214 38.915 44.8006V41.9883H39.9499V44.848C39.9499 45.1755 39.9336 45.417 39.9114 45.5726C39.8803 45.7355 39.8329 45.8689 39.7707 45.9934C39.6612 46.1964 39.5057 46.3445 39.3118 46.4379C39.1089 46.5312 38.8439 46.5786 38.5256 46.5786C38.2295 46.5786 37.9807 46.5312 37.7942 46.4468C37.6076 46.3608 37.4595 46.2201 37.35 46.026C37.2715 45.8852 37.2182 45.7148 37.1782 45.4955C37.1397 45.2777 37.1309 44.9191 37.1309 44.405V41.9972V41.9957Z" fill="white"></path>
    <path d="M41.6609 43.8674H41.7927C42.0103 43.8674 42.1658 43.82 42.2516 43.7355C42.3449 43.6496 42.3834 43.5014 42.3834 43.291C42.3834 43.0969 42.336 42.9636 42.2516 42.8776C42.1584 42.7991 42.0103 42.7606 41.7927 42.7606H41.6609V43.8674ZM40.6259 46.4856V42.0049H41.8015C42.1909 42.0049 42.4708 42.0212 42.6425 42.0597C42.8143 42.0982 42.9623 42.1605 43.0704 42.2464C43.1948 42.3472 43.2969 42.4805 43.3591 42.6361C43.4213 42.7917 43.4524 42.971 43.4524 43.1814C43.4524 43.4392 43.405 43.657 43.3206 43.8274C43.2273 43.9993 43.0867 44.1474 42.9001 44.2556C43.2273 44.3964 43.3991 44.7387 43.4139 45.2765V45.2928C43.4139 45.3476 43.4213 45.4336 43.4213 45.5343C43.4287 46.0411 43.5146 46.3522 43.67 46.4856H42.4471C42.4234 46.3922 42.3997 46.2989 42.3849 46.1893C42.3686 46.0885 42.3686 45.9788 42.3686 45.8618C42.3686 45.7921 42.3686 45.7062 42.376 45.604C42.3834 45.5032 42.3834 45.4321 42.3834 45.401C42.3834 45.1283 42.3449 44.9416 42.2738 44.8394C42.2043 44.7386 42.071 44.6912 41.8845 44.6912H41.6668V46.4826H40.623L40.6259 46.4856Z" fill="white"></path>
    <path d="M45.5938 46.4841V42.0049H48.0308V42.8776H46.6376V43.7029H47.9301V44.5994H46.6376V45.5803H48.0308V46.493H45.5938V46.4841Z" fill="white"></path>
    <path d="M48.3027 46.4841L49.2606 44.2793L48.3649 42.0049H49.4546L49.8677 43.3369L50.2807 42.0049H51.3941L50.4747 44.2793L51.4164 46.4841H50.2956L49.8751 45.1906L49.4235 46.4841H48.3027Z" fill="white"></path>
    <path d="M52.7802 43.9296C52.7965 43.9296 52.8113 43.937 52.835 43.937H52.9209C53.1311 43.937 53.2792 43.8896 53.3725 43.7889C53.4658 43.6881 53.5131 43.5311 53.5131 43.3132C53.5131 43.134 53.4658 43.0021 53.3651 42.9235C53.2644 42.845 53.1 42.8065 52.875 42.8065H52.7817V43.9282L52.7802 43.9296ZM51.729 46.4856V42.0049H52.7566C53.1385 42.0049 53.4184 42.0212 53.5975 42.0523C53.7767 42.0834 53.9321 42.1382 54.0565 42.2153C54.2194 42.316 54.3452 42.4642 54.4296 42.6672C54.514 42.8702 54.5614 43.1028 54.5614 43.377C54.5614 43.8289 54.4444 44.18 54.2031 44.4127C53.9617 44.6468 53.6108 44.7638 53.1519 44.7638H52.7862V46.4782H51.7275V46.4856H51.729Z" fill="white"></path>
    <path d="M55.0617 46.4841V42.0049H57.4988V42.8776H56.1055V43.7029H57.3981V44.5994H56.1055V45.5803H57.4988V46.493H55.0617V46.4841Z" fill="white"></path>
    <path d="M59.1247 43.8674H59.2565C59.4742 43.8674 59.6296 43.82 59.7155 43.7355C59.8088 43.6496 59.8473 43.5014 59.8473 43.291C59.8473 43.0969 59.7999 42.9636 59.7155 42.8776C59.6222 42.7991 59.4742 42.7606 59.2565 42.7606H59.1247V43.8674ZM58.0898 46.4856V42.0049H59.2654C59.6548 42.0049 59.9346 42.0212 60.1064 42.0597C60.2781 42.0982 60.4262 42.1605 60.5343 42.2464C60.6586 42.3472 60.7608 42.4805 60.823 42.6361C60.8852 42.7917 60.9163 42.971 60.9163 43.1814C60.9163 43.4392 60.8689 43.657 60.7845 43.8274C60.6912 43.9993 60.5506 44.1474 60.364 44.2556C60.6912 44.3964 60.863 44.7387 60.8778 45.2765V45.2928C60.8778 45.3476 60.8852 45.4336 60.8852 45.5343C60.8926 46.0411 60.9784 46.3522 61.1339 46.4856H59.9109C59.8873 46.3922 59.8636 46.2989 59.8488 46.1893C59.8325 46.0885 59.8325 45.9788 59.8325 45.8618C59.8325 45.7921 59.8325 45.7062 59.8399 45.604C59.8473 45.5032 59.8473 45.4321 59.8473 45.401C59.8473 45.1283 59.8088 44.9416 59.7377 44.8394C59.6666 44.7372 59.5349 44.6912 59.3483 44.6912H59.1307V46.4826H58.0869L58.0898 46.4856Z" fill="white"></path>
    <path d="M62.0685 46.4832V42.8679H61.2275V41.9951H63.9992V42.8679H63.1197V46.4832H62.0685Z" fill="white"></path>
    <path d="M0.570027 48.3706V50.7798H0.768426C0.919447 50.7798 1.03049 50.7487 1.08527 50.6761C1.14005 50.6124 1.17263 50.4939 1.17263 50.3116V48.8373C1.17263 48.6625 1.14154 48.5365 1.08527 48.4728C1.03049 48.4017 0.919447 48.3691 0.768426 48.3691H0.570027V48.3706ZM0 51.2629V47.9023H0.839495C1.43321 47.9023 1.73377 48.2431 1.73377 48.9173V50.2494C1.73377 50.9236 1.43321 51.2644 0.839495 51.2644H0V51.2629Z" fill="white"></path>
    <path d="M2.76417 51.2625H2.25781V48.7584H2.76417V51.2625ZM2.76417 48.3702H2.25781V47.8945H2.76417V48.3702Z" fill="white"></path>
    <path d="M4.64229 49.3764L4.207 49.4476C4.16702 49.2416 4.07226 49.1379 3.91384 49.1379C3.75542 49.1379 3.69175 49.2016 3.69175 49.3364C3.69175 49.4401 3.77022 49.5498 3.93753 49.6772C4.207 49.8832 4.35802 50.0017 4.4054 50.0417C4.57122 50.2166 4.65117 50.4062 4.65117 50.6196C4.65117 50.833 4.58751 51.0078 4.45277 51.1189C4.31804 51.2301 4.15222 51.2938 3.93013 51.2938C3.49483 51.2938 3.23277 51.0641 3.1543 50.5959L3.59847 50.4685C3.63845 50.7307 3.74949 50.8641 3.93901 50.8641C4.09003 50.8641 4.1685 50.793 4.1685 50.6418C4.1685 50.5307 4.09003 50.4047 3.92272 50.2699C3.7643 50.1514 3.61328 50.0239 3.45486 49.9054C3.28903 49.7394 3.20908 49.5646 3.20908 49.3661C3.20908 49.1675 3.27274 49.009 3.40748 48.883C3.54221 48.7556 3.70063 48.6934 3.89903 48.6934C4.09743 48.6934 4.26326 48.7571 4.39799 48.883C4.51644 49.0104 4.6038 49.169 4.64377 49.3749L4.64229 49.3764Z" fill="white"></path>
    <path d="M6.58855 49.6134H6.08959V49.5497C6.08959 49.28 5.99483 49.1378 5.80383 49.1378C5.61284 49.1378 5.51808 49.2726 5.51808 49.5497V50.4684C5.51808 50.738 5.61284 50.8803 5.80383 50.8803C5.99483 50.8803 6.08959 50.7454 6.08959 50.4684V50.3098H6.59595V50.3735C6.59595 50.9914 6.33389 51.3085 5.80383 51.3085C5.27378 51.3085 5.01172 50.9988 5.01172 50.3735V49.6371C5.01172 49.0192 5.27378 48.7021 5.80383 48.7021C6.31908 48.7096 6.57966 49.0118 6.58855 49.6134Z" fill="white"></path>
    <path d="M8.10959 50.4703V49.5516C8.10959 49.282 8.01483 49.1397 7.82384 49.1397C7.63284 49.1397 7.53808 49.2746 7.53808 49.5516V50.4703C7.53808 50.74 7.63284 50.8822 7.82384 50.8822C8.01335 50.8748 8.10959 50.74 8.10959 50.4703ZM7.0332 50.3755V49.6391C7.0332 49.0212 7.29527 48.7041 7.82532 48.7041C8.35537 48.7041 8.61743 49.0138 8.61743 49.6391V50.3755C8.61743 50.9934 8.35537 51.3104 7.82532 51.3104C7.30267 51.303 7.0332 50.9934 7.0332 50.3755Z" fill="white"></path>
    <path d="M9.72631 50.4302L10.0432 48.7588H10.5658L9.9706 51.2629H9.47165L8.87793 48.7588H9.40058L9.71742 50.4302H9.72631Z" fill="white"></path>
    <path d="M11.3417 49.6776H11.9117V49.5502C11.9117 49.2805 11.817 49.1382 11.626 49.1382C11.435 49.1382 11.3402 49.2731 11.3402 49.5502V49.6776H11.3417ZM12.4107 49.6376V50.1058H11.3343V50.4703C11.3343 50.74 11.4291 50.8822 11.6201 50.8822C11.8111 50.8822 11.9058 50.7474 11.9058 50.4703V50.4155H12.4122C12.4048 51.0096 12.1427 51.3104 11.6201 51.3104C11.0974 51.3104 10.8279 51.0008 10.8279 50.3755V49.6391C10.8279 49.0212 11.09 48.7041 11.6201 48.7041C12.1501 48.7115 12.4122 49.0212 12.4122 49.6391L12.4107 49.6376Z" fill="white"></path>
    <path d="M13.3921 51.2634H12.8857V48.7593H13.3773V49.0527H13.3847C13.512 48.823 13.709 48.7119 13.9621 48.7119H14.0658V49.2587C13.931 49.2276 13.82 49.2113 13.7326 49.2113C13.6379 49.2113 13.5579 49.2424 13.4869 49.2987C13.4232 49.3535 13.3832 49.4409 13.3832 49.5446V51.2649H13.3906L13.3921 51.2634Z" fill="white"></path>
    <path d="M15.768 51.2629V48.4017H15.2217V47.9023H16.877V48.4017H16.3306V51.2629H15.768Z" fill="white"></path>
    <path d="M17.6921 51.2629H17.1857V47.9023H17.6921V48.9884C17.8105 48.8847 17.8979 48.8136 17.9453 48.7825C18.04 48.7351 18.1511 48.7114 18.2858 48.7114C18.4205 48.7114 18.5227 48.7588 18.6027 48.8536C18.6826 48.9484 18.7137 49.0759 18.7137 49.2418V51.2703H18.2073V49.3278C18.2073 49.2092 18.1437 49.1455 18.0252 49.1455C17.9468 49.1455 17.8357 49.2003 17.6921 49.304V51.2614V51.2629Z" fill="white"></path>
    <path d="M19.6879 49.6776H20.2579V49.5502C20.2579 49.2805 20.1631 49.1382 19.9722 49.1382C19.7812 49.1382 19.6864 49.2731 19.6864 49.5502V49.6776H19.6879ZM20.7643 49.6376V50.1058H19.6879V50.4703C19.6879 50.74 19.7826 50.8822 19.9736 50.8822C20.1646 50.8822 20.2594 50.7474 20.2594 50.4703V50.4155H20.7657C20.7583 51.0096 20.4963 51.3104 19.9736 51.3104C19.451 51.3104 19.1815 51.0008 19.1815 50.3755V49.6391C19.1815 49.0212 19.4436 48.7041 19.9736 48.7041C20.4963 48.7115 20.7657 49.0212 20.7657 49.6391L20.7643 49.6376Z" fill="white"></path>
    <path d="M22.8419 51.2629H22.2793V47.9023H22.8419V49.2729H23.443V47.9023H24.0057V51.2629H23.443V49.7723H22.8419V51.2629Z" fill="white"></path>
    <path d="M25.0337 51.2625H24.5273V48.7584H25.0337V51.2625ZM25.0337 48.3702H24.5273V47.8945H25.0337V48.3702Z" fill="white"></path>
    <path d="M26.5638 50.7477V49.266C26.4453 49.1786 26.3506 49.1386 26.2706 49.1386C26.1048 49.1386 26.0249 49.2734 26.0249 49.5431V50.4781C26.0249 50.7477 26.1122 50.8826 26.2706 50.8826C26.3491 50.8752 26.4453 50.8352 26.5638 50.7477ZM27.0702 51.2634H26.5949V51.0011H26.5875C26.5001 51.1122 26.4128 51.1997 26.3417 51.2382C26.2632 51.2856 26.167 51.3019 26.0411 51.3019C25.8827 51.3019 25.7554 51.2382 25.6606 51.1197C25.5659 51.0011 25.5185 50.8263 25.5185 50.604V49.4068C25.5185 49.1845 25.5659 49.0112 25.6606 48.8912C25.7554 48.7726 25.8827 48.7089 26.0411 48.7089C26.1448 48.7089 26.2307 48.7326 26.318 48.7726C26.3654 48.8037 26.4527 48.8674 26.5712 48.9712V47.9014H27.0776V51.2619H27.0702V51.2634Z" fill="white"></path>
    <path d="M28.5834 50.7477V49.266C28.4649 49.1786 28.3702 49.1386 28.2902 49.1386C28.1244 49.1386 28.0444 49.2734 28.0444 49.5431V50.4781C28.0444 50.7477 28.1318 50.8826 28.2902 50.8826C28.3687 50.8752 28.4723 50.8352 28.5834 50.7477ZM29.0897 51.2634H28.6145V51.0011H28.6071C28.5197 51.1122 28.4324 51.1997 28.3613 51.2382C28.2828 51.2856 28.1866 51.3019 28.0607 51.3019C27.9023 51.3019 27.775 51.2382 27.6802 51.1197C27.5855 51.0011 27.5381 50.8263 27.5381 50.604V49.4068C27.5381 49.1845 27.5855 49.0112 27.6802 48.8912C27.775 48.7726 27.9023 48.7089 28.0607 48.7089C28.1644 48.7089 28.2502 48.7326 28.3376 48.7726C28.385 48.8037 28.4723 48.8674 28.5908 48.9712V47.9014H29.0971V51.2619H29.0897V51.2634Z" fill="white"></path>
    <path d="M30.0634 49.6776H30.6334V49.5502C30.6334 49.2805 30.5387 49.1382 30.3477 49.1382C30.1567 49.1382 30.0619 49.2731 30.0619 49.5502V49.6776H30.0634ZM31.1324 49.6376V50.1058H30.056V50.4703C30.056 50.74 30.1507 50.8822 30.3417 50.8822C30.5327 50.8822 30.6275 50.7474 30.6275 50.4703V50.4155H31.1339C31.1264 51.0096 30.8644 51.3104 30.3417 51.3104C29.8191 51.3104 29.5496 51.0008 29.5496 50.3755V49.6391C29.5496 49.0212 29.8117 48.7041 30.3417 48.7041C30.8718 48.7115 31.1339 49.0212 31.1339 49.6391L31.1324 49.6376Z" fill="white"></path>
    <path d="M32.1138 51.2634H31.6074V48.7593H32.0901V49.0127C32.2248 48.8942 32.3122 48.823 32.367 48.7904C32.4617 48.7356 32.5728 48.7119 32.7075 48.7119C32.8422 48.7119 32.9444 48.7593 33.0243 48.8542C33.1043 48.949 33.1354 49.0764 33.1354 49.2424V51.2708H32.629V49.3283C32.629 49.2098 32.5654 49.1461 32.4469 49.1461C32.3684 49.1461 32.2574 49.2009 32.1138 49.3046V51.2619V51.2634Z" fill="white"></path>
    <path d="M36.3755 49.0197H35.8129V48.7575C35.8129 48.4878 35.7181 48.353 35.5434 48.353C35.345 48.353 35.2429 48.4804 35.2429 48.7249V50.4288C35.2429 50.6748 35.3465 50.8008 35.5434 50.8008C35.7256 50.8008 35.8129 50.6896 35.8129 50.46V50.0554H36.3755V50.4437C36.3755 50.697 36.3045 50.8956 36.1697 51.0541C36.0187 51.2201 35.8055 51.3075 35.536 51.3075C35.2503 51.3075 35.0371 51.2201 34.8787 51.0541C34.7365 50.8956 34.6729 50.697 34.6729 50.4437V48.7086C34.6729 48.4552 34.7439 48.2566 34.8787 48.0981C35.0371 47.9321 35.2503 47.8447 35.536 47.8447C35.8055 47.8447 36.0187 47.9321 36.1697 48.1144C36.3045 48.2804 36.3755 48.5026 36.3755 48.7649V49.0182V49.0197Z" fill="white"></path>
    <path d="M37.4282 51.2629H36.9219V47.9023H37.4282V48.9884C37.5467 48.8847 37.634 48.8136 37.6814 48.7825C37.7762 48.7351 37.8872 48.7114 38.022 48.7114C38.1567 48.7114 38.2588 48.7588 38.3388 48.8536C38.4173 48.9484 38.4498 49.0759 38.4498 49.2418V51.2703H37.9435V49.3278C37.9435 49.2092 37.8798 49.1455 37.7614 49.1455C37.6829 49.1455 37.5719 49.2003 37.4282 49.304V51.2614V51.2629Z" fill="white"></path>
    <path d="M39.9486 50.6451V49.9873C39.7265 50.1147 39.568 50.2332 39.4807 50.3355C39.4022 50.4303 39.3696 50.534 39.3696 50.6451C39.3696 50.7963 39.4481 50.8748 39.6065 50.8748C39.725 50.8748 39.836 50.8037 39.9471 50.6451H39.9486ZM39.4022 49.4879H38.8959C38.9121 49.2346 38.9906 49.0434 39.1327 48.9101C39.2749 48.7752 39.4733 48.7041 39.7102 48.7041C40.2017 48.7041 40.4549 48.9338 40.4549 49.3857V50.9948C40.4549 51.0422 40.4712 51.1297 40.4949 51.2571H40.0033C39.9959 51.2097 39.987 51.146 39.9796 51.0585C39.7812 51.2171 39.5843 51.3045 39.3859 51.3045C39.2201 51.3045 39.0928 51.2497 38.998 51.1386C38.9107 51.0348 38.8633 50.9089 38.8633 50.734C38.8633 50.4644 38.9506 50.2421 39.1327 50.0688C39.2986 49.9028 39.5769 49.7443 39.956 49.6005V49.4494C39.956 49.236 39.8686 49.1249 39.7028 49.1249C39.5917 49.1249 39.5133 49.156 39.4733 49.2197C39.4259 49.2909 39.4096 49.3709 39.4022 49.4894V49.4879Z" fill="white"></path>
    <path d="M41.4761 51.2634H40.9697V48.7593H41.4613V49.0527H41.4687C41.596 48.823 41.7929 48.7119 42.0461 48.7119H42.1498V49.2587C42.015 49.2276 41.904 49.2113 41.8166 49.2113C41.7219 49.2113 41.6419 49.2424 41.5708 49.2987C41.5072 49.3535 41.4672 49.4409 41.4672 49.5446V51.2649H41.4746L41.4761 51.2634Z" fill="white"></path>
    <path d="M44.0094 51.2634H43.5031V49.3209C43.5031 49.2024 43.4483 49.1386 43.3209 49.1386C43.2425 49.1386 43.1314 49.1935 42.9878 49.2972V51.2634H42.4814V48.7593H42.9641V49.0127C43.0988 48.8942 43.1936 48.823 43.2336 48.7904C43.3209 48.7356 43.4157 48.7119 43.5267 48.7119C43.6452 48.7119 43.7399 48.7356 43.8036 48.783C43.8584 48.823 43.9147 48.9016 43.9694 49.0127C44.1678 48.8142 44.3574 48.7119 44.5395 48.7119C44.8563 48.7119 45.0147 48.8868 45.0147 49.235V51.2634H44.5084V49.3209C44.5084 49.2024 44.4447 49.1386 44.3263 49.1386C44.2478 49.1386 44.1367 49.1935 44.002 49.2972V51.2634H44.0094Z" fill="white"></path>
    <path d="M47.131 48.7263V50.4303C47.131 50.6763 47.2346 50.8022 47.4315 50.8022C47.6285 50.8022 47.7321 50.6748 47.7321 50.4303V48.7263C47.7321 48.4803 47.6285 48.3544 47.4315 48.3544C47.2346 48.3544 47.131 48.4818 47.131 48.7263ZM46.5684 50.4466V48.7115C46.5684 48.4581 46.6394 48.2596 46.7742 48.101C46.9326 47.9351 47.1458 47.8477 47.4315 47.8477C47.7173 47.8477 47.9305 47.9351 48.0889 48.101C48.2311 48.2596 48.2947 48.4581 48.2947 48.7115V50.4466C48.2947 50.7 48.2237 50.8985 48.0889 51.057C47.9305 51.223 47.7173 51.3104 47.4315 51.3104C47.1458 51.3104 46.9326 51.223 46.7742 51.057C46.6394 50.8985 46.5684 50.6925 46.5684 50.4466Z" fill="white"></path>
    <path d="M48.9207 51.2634V49.1875H48.6201V48.7593H48.9207V48.4496C48.9207 48.054 49.1102 47.8555 49.4907 47.8555H49.7439V48.2837H49.5929C49.4818 48.2837 49.4182 48.3385 49.4182 48.4496V48.7593H49.7113V49.1875H49.4182V51.2634H48.9192H48.9207Z" fill="white"></path>
    <path d="M51.8668 50.2331L52.2784 47.9023H52.8321L52.1437 51.2629H51.5811L50.8926 47.9023H51.4463L51.8594 50.2331H51.8668Z" fill="white"></path>
    <path d="M53.6314 51.2625H53.125V48.7584H53.6314V51.2625ZM53.6314 48.3702H53.125V47.8945H53.6314V48.3702Z" fill="white"></path>
    <path d="M54.606 49.6776H55.176V49.5502C55.176 49.2805 55.0812 49.1382 54.8902 49.1382C54.6992 49.1382 54.6045 49.2731 54.6045 49.5502V49.6776H54.606ZM55.6824 49.6376V50.1058H54.606V50.4703C54.606 50.74 54.7007 50.8822 54.8917 50.8822C55.0827 50.8822 55.1775 50.7474 55.1775 50.4703V50.4155H55.6838C55.6764 51.0096 55.4144 51.3104 54.8917 51.3104C54.3691 51.3104 54.0996 51.0008 54.0996 50.3755V49.6391C54.0996 49.0212 54.3617 48.7041 54.8917 48.7041C55.4218 48.7115 55.6838 49.0212 55.6838 49.6391L55.6824 49.6376Z" fill="white"></path>
    <path d="M56.2389 49.1864H55.9531V48.7582H56.2389V48.084H56.7452V48.7582H57.0932V49.1864H56.7452V50.6296C56.7452 50.7644 56.8 50.8355 56.92 50.8355H57.0947V51.28C57.031 51.2963 56.9436 51.3112 56.8415 51.3112C56.4462 51.3112 56.2478 51.1215 56.2478 50.7481V49.1864H56.2404H56.2389Z" fill="white"></path>
    <path d="M57.9243 51.2634H57.418V48.7593H57.9006V49.0127C58.0354 48.8942 58.1227 48.823 58.1775 48.7904C58.2723 48.7356 58.3833 48.7119 58.5181 48.7119C58.6528 48.7119 58.7549 48.7593 58.8349 48.8542C58.9148 48.949 58.9459 49.0764 58.9459 49.2424V51.2708H58.4396V49.3283C58.4396 49.2098 58.3759 49.1461 58.2575 49.1461C58.179 49.1461 58.0679 49.2009 57.9243 49.3046V51.2619V51.2634Z" fill="white"></path>
    <path d="M60.4515 50.6451V49.9873C60.2294 50.1147 60.071 50.2332 59.9836 50.3355C59.9051 50.4303 59.8726 50.534 59.8726 50.6451C59.8726 50.7963 59.951 50.8748 60.1095 50.8748C60.2279 50.8748 60.339 50.8037 60.45 50.6451H60.4515ZM59.9051 49.4879H59.3988C59.4151 49.2346 59.4935 49.0434 59.6357 48.9101C59.7778 48.7752 59.9762 48.7041 60.2131 48.7041C60.7047 48.7041 60.9578 48.9338 60.9578 49.3857V50.9948C60.9578 51.0422 60.9741 51.1297 60.9978 51.2571H60.5063C60.4989 51.2097 60.49 51.146 60.4826 51.0585C60.2842 51.2171 60.0873 51.3045 59.8889 51.3045C59.723 51.3045 59.5957 51.2497 59.5009 51.1386C59.4136 51.0348 59.3662 50.9089 59.3662 50.734C59.3662 50.4644 59.4536 50.2421 59.6357 50.0688C59.8015 49.9028 60.0799 49.7443 60.4589 49.6005V49.4494C60.4589 49.236 60.3715 49.1249 60.2057 49.1249C60.0947 49.1249 60.0162 49.156 59.9762 49.2197C59.9288 49.2909 59.9051 49.3709 59.9051 49.4894V49.4879Z" fill="white"></path>
    <path d="M62.9928 51.2634H62.4865V49.3209C62.4865 49.2024 62.4317 49.1386 62.3043 49.1386C62.2259 49.1386 62.1148 49.1935 61.9712 49.2972V51.2634H61.4648V48.7593H61.9475V49.0127C62.0822 48.8942 62.177 48.823 62.217 48.7904C62.3043 48.7356 62.3991 48.7119 62.5101 48.7119C62.6286 48.7119 62.7233 48.7356 62.787 48.783C62.8418 48.823 62.8981 48.9016 62.9528 49.0127C63.1512 48.8142 63.3408 48.7119 63.5229 48.7119C63.8397 48.7119 63.9981 48.8868 63.9981 49.235V51.2634H63.4918V49.3209C63.4918 49.2024 63.4281 49.1386 63.3097 49.1386C63.2312 49.1386 63.1201 49.1935 62.9854 49.2972V51.2634H62.9928Z" fill="white"></path>
    <path d="M19.5899 24.5746C19.9704 24.1553 20.5597 24.1168 21.0009 24.102L21.7382 21.9905L23.5608 23.9464C24.4758 23.8842 25.4071 23.8293 26.3369 23.7908C25.8957 23.17 25.755 22.5343 25.755 21.8735L21.7382 19.7783L8.7179 28.2523L14.6432 27.0802L15.9224 27.4832L19.1013 23.5789L19.5899 24.5717V24.5746Z" fill="white"></path>
    <path d="M55.0597 26.2655L51.8409 23.5732L49.5149 21.9819L47.414 23.5732L39.5668 15.7275L38.1484 17.5515C38.2106 17.6212 38.2654 17.6997 38.3261 17.7693C38.4579 17.9323 38.5971 18.0953 38.7377 18.2731C38.8547 18.4213 38.9776 18.568 39.1093 18.7236C39.6438 19.3755 40.2568 20.1045 40.6447 20.8261C40.7839 21.0899 40.8624 21.361 40.9245 21.5714C40.9556 21.6959 41.0015 21.8515 41.0326 21.9048H41.0563C41.1881 21.9122 41.4679 21.89 41.7152 21.8663C42.5369 21.7966 43.4593 21.7181 44.1108 22.1537C44.1656 22.1923 44.2115 22.2234 44.2588 22.2619C44.398 22.2382 44.5535 22.2382 44.74 22.2693C45.4685 22.3775 46.7181 23.4176 46.9816 24.0074C47.0897 24.24 47.408 24.9616 46.9357 25.5365C46.8425 25.6447 46.7418 25.7232 46.6337 25.7854L47.4169 26.4685L48.3008 28.254L50.1383 23.5747L56.3656 28.254L55.0627 26.267L55.0597 26.2655Z" fill="white"></path>
    <path d="M18.2941 39.7011C18.2867 39.6626 18.263 39.624 18.2171 39.5529C18.1712 39.4833 18.2319 39.4284 18.186 39.4522C18.1475 39.4759 18.0543 39.63 17.961 39.63C17.8677 39.63 18.0928 39.421 17.7833 39.6374C17.4739 39.8552 17.6279 39.7618 17.6131 39.6759C17.5982 39.59 17.5124 39.6759 17.5982 39.59C17.6841 39.504 17.7152 39.5203 17.6678 39.4507C17.6219 39.381 17.7374 39.4359 17.6219 39.381C17.505 39.3188 17.6293 39.4744 17.505 39.3188C17.388 39.1632 17.4665 39.141 17.4043 39.0239C17.3495 38.9069 17.234 38.7528 17.2177 38.8298C17.2103 38.9158 17.2103 39.1173 17.1245 39.0239C17.0386 38.9306 17.0001 38.7528 16.8683 38.7291C16.8535 38.7291 16.8372 38.7217 16.8298 38.7143C16.8372 38.6994 16.8372 38.6831 16.8372 38.6683V38.6609C16.8683 38.6461 16.8994 38.6224 16.9231 38.5913C16.9379 38.5602 16.9379 38.5216 16.9468 38.4905C16.9468 38.4757 16.932 38.4757 16.9231 38.4757C16.9083 38.4905 16.8683 38.4994 16.8298 38.5068C16.8372 38.4757 16.8446 38.4372 16.8683 38.4061C16.8831 38.3749 16.8446 38.3438 16.8135 38.3601C16.7987 38.3675 16.7824 38.3749 16.7676 38.3749C16.8135 38.3201 16.8446 38.2505 16.7987 38.1808C16.7913 38.1734 16.775 38.166 16.7676 38.1734C16.7291 38.2194 16.7129 38.2594 16.6507 38.2816C16.5959 38.3053 16.5959 38.3987 16.6655 38.4209C16.6803 38.4283 16.6966 38.4357 16.7203 38.4446C16.7129 38.4594 16.7055 38.4757 16.6966 38.4994C16.6818 38.492 16.6655 38.492 16.6507 38.4846C16.5426 38.4387 16.473 38.6091 16.5885 38.6624C16.6033 38.6698 16.6122 38.6698 16.627 38.6772C16.6196 38.7009 16.6122 38.7232 16.6033 38.7469C16.5959 38.7928 16.6033 38.8239 16.6107 38.8713C16.6181 38.895 16.6107 38.9173 16.6107 38.941C16.5648 39.0343 16.5248 39.104 16.5337 39.1351C16.5411 39.1973 16.7662 39.1973 16.5411 39.1973C16.3161 39.1973 16.3323 39.1114 16.3323 39.058C16.3323 39.0047 16.433 38.895 16.3708 38.8802C16.3087 38.8654 16.3397 38.8417 16.2465 38.8417H16.2317C16.2702 38.8032 16.3087 38.772 16.3486 38.7409C16.356 38.7335 16.3486 38.7261 16.3412 38.7261C16.2554 38.7498 16.1236 38.772 16.0081 38.8269C15.9311 38.7498 15.8067 38.7187 15.9148 38.695C15.9696 38.6802 16.0007 38.6639 16.0229 38.6491C16.1932 38.572 16.3323 38.4401 16.3634 38.2772C16.3634 38.2697 16.356 38.2697 16.356 38.2697C16.3175 38.3468 16.2554 38.3868 16.1784 38.4016C16.1636 38.2846 16.2405 38.4164 16.2642 38.1764C16.2953 37.9364 16.319 37.9052 16.2879 37.8889C16.2494 37.8741 16.2183 37.8741 16.2021 37.843C16.1872 37.8045 16.2169 37.5096 16.1251 37.68C16.0392 37.843 15.8689 38.1453 15.8541 38.0993C15.8304 38.0534 15.8304 37.9052 15.7771 37.9052C15.7238 37.9052 15.8008 37.7274 15.8319 37.5941C15.8556 37.4622 15.8704 37.3303 15.8704 37.3303C15.8704 37.3303 15.7149 37.5244 15.6217 37.4474C15.5284 37.3778 15.6143 37.1288 15.598 36.9732C15.5832 36.8177 15.7756 36.4769 15.5284 36.7095C15.2796 36.9495 15.1094 36.8873 15.1094 36.8873C15.1094 36.8873 15.1642 36.4606 15.1553 36.422C15.1479 36.3835 15.0857 36.4843 15.0161 36.2665C14.9465 36.0487 15.0235 36.1109 14.9391 36.0027C14.8532 35.8946 14.8147 35.9405 14.6519 35.7316C14.489 35.5138 14.606 35.5997 14.6371 35.5538C14.6608 35.5078 14.5749 35.4456 14.5364 35.4219C14.4979 35.3982 14.4816 35.3285 14.4742 35.4841C14.4668 35.6397 14.2492 35.8649 14.3572 35.9568C14.4653 36.0501 14.5275 36.019 14.5201 36.0961C14.5127 36.182 14.4579 36.2131 14.489 36.3139C14.5201 36.4072 14.412 36.4072 14.3025 36.3598C14.1944 36.3139 14.1633 36.3598 14.3025 36.5539C14.4416 36.748 14.566 36.9569 14.4194 36.8873C14.2714 36.8177 14.2181 36.5065 14.2714 36.8177C14.3261 37.1288 14.2862 37.0355 14.3883 37.2133C14.4905 37.3911 14.2018 37.074 14.2329 37.2592C14.2403 37.3051 14.2403 37.3363 14.2403 37.3526C14.1944 37.3289 14.1544 37.314 14.1011 37.2903C14.0962 37.2903 14.0937 37.2928 14.0937 37.2977C14.1633 37.4844 14.3025 37.5778 14.4579 37.7008C14.4964 37.7319 14.5349 37.7704 14.5749 37.8089H14.5601C14.4357 37.8163 14.3276 37.7704 14.2107 37.7156C14.1648 37.6845 14.11 37.7467 14.1559 37.7926C14.2329 37.8623 14.3261 37.9097 14.4268 37.9319C14.4194 37.963 14.4579 38.0179 14.5201 38.1334C14.6519 38.3586 14.7141 38.4446 14.6682 38.4446C14.6223 38.4446 14.529 38.289 14.5512 38.4594C14.5823 38.6224 14.683 38.8239 14.5897 38.7706C14.4964 38.7083 14.4268 38.5068 14.372 38.4683C14.3173 38.4298 14.2714 38.2979 14.2714 38.2979C14.2714 38.2979 14.2092 38.4061 14.2403 38.4994C14.2714 38.5928 14.1159 38.5542 14.2329 38.6624C14.3409 38.7706 14.2181 38.7557 14.2566 38.8565C14.2951 38.9499 14.1707 38.8802 14.2951 38.9499C14.4194 39.0195 14.5201 39.0432 14.5586 39.058C14.5971 39.0728 14.7452 39.0432 14.5971 39.0728C14.449 39.0965 14.372 39.1114 14.449 39.2121C14.526 39.3203 14.5497 39.258 14.6119 39.4299C14.6741 39.5929 14.7511 39.6314 14.6978 39.7011C14.6519 39.7633 14.6045 39.8092 14.5423 39.8255H14.4653V39.833H14.4579C14.372 39.833 14.3646 39.7085 14.3572 39.6463C14.3498 39.584 14.4431 39.6389 14.3424 39.5144C14.2492 39.3899 14.3735 39.6003 14.2492 39.3899C14.1248 39.181 14.2566 39.258 14.11 39.1336C13.9619 39.0091 13.9619 39.0565 13.9234 38.9706C13.8849 38.8847 13.8227 38.9247 13.8849 38.8847C13.9471 38.8387 14.0167 38.8298 13.9545 38.7454C13.8923 38.6594 14.1248 38.3735 14.0715 38.2564C14.0167 38.1482 13.7383 38.489 13.7147 38.249C13.691 38.009 13.9086 38.172 13.6762 37.9378C13.4437 37.7037 13.5281 37.8519 13.4985 37.8919C13.4674 37.9378 13.4837 38.1008 13.3741 37.8993C13.2572 37.6978 13.4126 37.7363 13.4126 37.6045C13.4126 37.4726 13.4363 37.4029 13.3356 37.4652C13.2349 37.52 13.1343 37.5111 13.1802 37.4192C13.2261 37.3333 13.2424 37.1555 13.2039 37.1007C13.1654 37.0458 13.1802 37.1007 13.1269 37.1081C13.0721 37.1155 13.0025 37.1392 12.9788 36.9999C12.9551 36.8606 12.8618 36.7673 12.8618 36.7673C12.8618 36.7673 12.8071 36.868 12.7538 36.8369C12.699 36.8058 12.6457 36.6739 12.6605 36.5495C12.6842 36.425 12.8929 36.2931 12.7064 36.2383C12.5198 36.1835 12.6057 36.3243 12.4813 36.1376C12.357 35.9509 12.3955 35.7879 12.2726 35.7182C12.1482 35.6486 12.1719 36.0368 12.1867 36.1613C12.1941 36.2857 12.2104 36.2931 12.1408 36.2694C12.086 36.2546 12.0786 36.1687 12.0712 36.2383C12.1023 36.3154 12.1482 36.3776 12.2104 36.4324C12.2178 36.4398 12.2104 36.4472 12.203 36.4472C12.1645 36.4472 12.1097 36.4546 12.0786 36.4472C12.0712 36.4472 12.0638 36.4398 12.0549 36.4398V36.4709L12.0934 36.5095C12.1082 36.5243 12.1319 36.5332 12.1556 36.548L12.2015 36.5939C12.2163 36.6087 12.2163 36.6324 12.1941 36.6487C12.1704 36.6636 12.1482 36.6725 12.1245 36.6725C12.1171 36.7732 12.0164 36.8206 12.1556 36.9836C12.3111 37.1703 12.2948 37.1851 12.28 37.2711C12.2652 37.357 12.3658 37.5037 12.2252 37.4029C12.0845 37.3022 12.0164 37.2162 11.9616 37.0844C11.9069 36.9525 11.9927 36.9451 11.8921 36.8755C11.7914 36.8058 11.8062 36.6354 11.7914 36.8058C11.7766 36.9836 11.8462 36.9688 11.784 37.2177C11.7766 37.2414 11.7692 37.2637 11.7692 37.28C11.7233 37.2726 11.6611 37.2563 11.6448 37.234C11.6522 37.234 11.6596 37.234 11.6522 37.2266C11.6374 37.1955 11.6211 37.1718 11.5826 37.1881C11.5367 37.2118 11.5367 37.274 11.5515 37.3126C11.59 37.3985 11.6522 37.4607 11.7292 37.4993V37.5304C11.6833 37.523 11.6359 37.5067 11.59 37.5156C11.59 37.5156 11.5826 37.5156 11.5826 37.523C11.5752 37.6089 11.6685 37.6711 11.7455 37.7008C11.7529 37.7319 11.7603 37.7556 11.784 37.7867C11.8299 37.8638 11.9083 37.8875 11.9542 37.9112C12.0001 37.9349 11.969 37.9808 12.009 38.0668C12.0401 38.1364 12.0638 38.1438 12.1171 38.1986C12.1319 38.1986 12.1408 38.206 12.1556 38.206C12.2252 38.2297 12.2326 38.2757 12.28 38.3305C12.3037 38.3616 12.3259 38.3764 12.3496 38.4075C12.3732 38.4387 12.3806 38.4535 12.4191 38.4698C12.465 38.4935 12.5124 38.5009 12.5361 38.5557C12.5509 38.5794 12.5213 38.6017 12.4976 38.5868C12.4206 38.5172 12.2889 38.572 12.203 38.5009C12.1645 38.4698 12.1334 38.4387 12.1097 38.3927C12.1023 38.369 12.1023 38.3305 12.086 38.3068C12.0786 38.2757 12.0549 38.2609 12.0401 38.252C11.9942 38.2446 11.9394 38.2831 11.9394 38.2831C11.9394 38.2831 11.7455 38.1275 11.7144 38.0653C11.6907 38.0193 11.6285 38.0505 11.6211 38.1201C11.6359 38.1438 11.6359 38.1749 11.6359 38.1971C11.6359 38.2046 11.6433 38.212 11.6433 38.2209C11.7203 38.3527 11.7055 38.2757 11.7055 38.4224C11.7055 38.5616 12.1704 39.2521 11.8062 39.3069C11.744 39.3144 11.6048 39.144 11.5974 39.0195C11.6981 38.981 11.7055 38.8802 11.6744 38.7869C11.5574 38.7409 11.4568 38.4461 11.4879 38.4061C11.4953 38.3912 11.5027 38.375 11.5027 38.3601H11.4953C11.3783 38.3912 11.3013 38.3053 11.2006 38.2742C11.1932 38.2742 11.2006 38.2668 11.2006 38.2668C11.2865 38.2668 11.3487 38.3053 11.4094 38.2357C11.4242 38.2208 11.4331 38.2045 11.4405 38.1897C11.4331 38.1897 11.4257 38.1897 11.4168 38.1823C11.362 38.1675 11.3087 38.1512 11.2613 38.1275C11.2154 38.1127 11.1843 38.0964 11.1532 38.0579C11.1458 38.0505 11.1532 38.0342 11.1606 38.043C11.2376 38.0668 11.3087 38.0816 11.3857 38.0579C11.4005 38.0267 11.4242 38.0267 11.4405 38.0119C11.4405 38.0119 11.4331 38.0119 11.4331 38.0045C11.2465 37.8726 11.1769 37.9186 11.1147 37.6934C11.0526 37.4918 11.0688 37.4296 11.0688 37.4222C11.0688 37.4296 11.054 37.4607 10.9756 37.3763C10.8897 37.2903 10.8675 37.1362 10.7816 37.0118C10.6957 36.8873 10.7194 36.9036 10.6883 37.0666C10.6572 37.2296 10.5403 37.2844 10.5951 37.4163C10.6498 37.5482 10.6957 37.6178 10.6261 37.6252C10.5492 37.6326 10.5092 37.6015 10.5092 37.6489C10.5166 37.6948 10.4944 37.563 10.5166 37.6948C10.5403 37.8267 10.3848 37.7808 10.4396 37.8726C10.4944 37.9586 10.5877 37.8267 10.4944 37.9586C10.4011 38.0905 10.3241 37.9512 10.4011 38.0905C10.4781 38.2297 10.4944 38.292 10.5329 38.3853C10.5714 38.4861 10.4944 38.4164 10.5092 38.5942C10.524 38.772 10.4396 38.7498 10.5788 38.9276C10.7268 39.1054 10.7964 38.8032 10.7801 39.184C10.7727 39.5174 10.7416 39.627 10.7416 39.6418C10.749 39.627 10.7727 39.5722 10.8423 39.6655C10.9045 39.7589 10.9815 39.8211 10.9193 39.8359C10.4307 39.7278 10.3226 39.3781 10.3226 39.3781C10.3226 39.3781 10.524 39.3781 10.4085 39.301C10.293 39.224 10.2382 39.1232 10.2071 39.224C10.176 39.3247 9.951 39.301 10.0295 39.178C10.1065 39.0536 10.1849 39.061 10.1997 38.9454C10.2145 38.8284 10.1686 38.8135 10.1376 38.7898C10.1065 38.775 10.145 38.8358 10.1376 38.6342C10.1302 38.4401 10.1524 38.5172 10.1139 38.495C10.0754 38.4727 10.0443 38.3868 10.0369 38.3083C10.0221 38.2312 9.98209 38.2772 9.91991 38.1764C9.9658 38.1142 9.98209 38.006 9.9436 38.0282C9.9051 38.0519 9.75704 38.0356 9.73483 37.8964C9.71114 37.7571 9.61046 37.64 9.61046 37.64C9.61046 37.64 9.64896 37.7482 9.62527 37.8652C9.60158 37.9823 9.57049 37.9823 9.60158 38.043C9.63267 38.1053 9.74964 38.1053 9.63267 38.1053C9.5157 38.1053 9.5009 38.0816 9.5468 38.1675C9.58529 38.2609 9.57789 38.3542 9.5157 38.3305C9.44612 38.3068 9.53939 38.3764 9.52311 38.4075C9.49942 38.4461 9.33655 38.3527 9.35284 38.4001C9.36765 38.4461 9.26697 38.3764 9.43871 38.6254C9.60898 38.8743 9.53939 38.858 9.44612 38.7883C9.35284 38.7187 9.19738 38.5009 9.23735 38.6254C9.27585 38.7498 9.40762 38.8506 9.36913 38.858C9.32323 38.8654 9.12039 38.6802 9.21366 38.8343C9.29954 38.9899 9.5083 39.0358 9.30694 39.0595C9.10558 39.0743 8.93531 38.8343 9.10558 39.0743C9.27585 39.3144 9.57789 39.6018 9.40762 39.4936C9.23735 39.3855 8.95752 39.1291 9.15888 39.3618C9.36024 39.5944 9.49942 39.7263 9.32915 39.6418C9.15888 39.5485 9.13519 39.4714 9.25216 39.6966C9.36913 39.9219 9.08189 39.6729 9.1041 39.7663C9.1115 39.79 9.12779 39.8048 9.13519 39.8211C9.1115 39.8285 9.08041 39.8285 9.0582 39.8359C9.01971 39.8433 8.98121 39.8596 8.95012 39.8744C8.92643 39.8893 8.94272 39.9204 8.96493 39.9293H9.04192C9.06561 39.9293 9.08041 39.9293 9.1041 39.9219H9.11891L9.1115 39.9293H10.9341L14.5482 39.9219L18.2467 39.9145C18.3785 39.9293 18.3015 39.7366 18.2926 39.7055L18.2941 39.7011Z" fill="white"></path>
    <path d="M42.9077 39.8335C42.9151 39.7876 42.9462 39.7402 43.0084 39.6468C43.0706 39.5535 42.9936 39.4838 43.0469 39.515C43.1017 39.5461 43.2172 39.7402 43.3341 39.7402C43.4511 39.7402 43.1639 39.4764 43.5592 39.7476C43.9545 40.0187 43.7606 39.9032 43.7768 39.8024C43.7917 39.6942 43.9086 39.8024 43.7916 39.6942C43.6747 39.5861 43.6436 39.6009 43.7058 39.5164C43.768 39.4231 43.6199 39.5016 43.768 39.4231C43.916 39.346 43.7606 39.5476 43.916 39.346C44.0715 39.1519 43.9708 39.1208 44.0404 38.9652C44.11 38.8097 44.2654 38.6156 44.2728 38.7252C44.2802 38.8334 44.2802 39.0897 44.3972 38.9652C44.5053 38.8408 44.5601 38.6155 44.7303 38.5844C44.754 38.577 44.7688 38.5696 44.7851 38.5607C44.7777 38.5459 44.7703 38.5222 44.7703 38.5059C44.7703 38.5059 44.7703 38.5034 44.7703 38.4985C44.7318 38.4748 44.6844 38.4437 44.6622 38.4051C44.6385 38.3666 44.6474 38.3192 44.6311 38.2733C44.6311 38.2585 44.6459 38.2496 44.6622 38.2585C44.6859 38.2822 44.7392 38.2896 44.7866 38.297C44.7792 38.251 44.7629 38.211 44.7407 38.1725C44.717 38.134 44.7718 38.0866 44.8103 38.1103C44.8251 38.1251 44.8488 38.134 44.8725 38.134C44.8103 38.0718 44.7792 37.971 44.834 37.8851C44.8414 37.8702 44.8651 37.8702 44.8725 37.8777C44.9273 37.9325 44.9495 37.9858 45.0205 38.0169C45.0901 38.0481 45.0901 38.1651 44.9968 38.1873C44.9732 38.1947 44.9509 38.211 44.9347 38.2184C44.9495 38.2422 44.9584 38.257 44.9658 38.2807C44.9806 38.2733 45.0043 38.2659 45.0205 38.2659C45.1597 38.2036 45.2456 38.4214 45.0975 38.4985C45.0827 38.5059 45.0664 38.5133 45.0516 38.5133C45.0664 38.537 45.0753 38.5681 45.0827 38.5993C45.0975 38.6541 45.0827 38.7 45.0753 38.7622C45.0679 38.7934 45.0679 38.8171 45.0753 38.8482C45.1375 38.9652 45.176 39.0571 45.1686 39.0971C45.1538 39.1742 44.874 39.1742 45.1538 39.1742C45.4336 39.1742 45.4247 39.066 45.4247 38.9963C45.4247 38.9193 45.3004 38.7874 45.3788 38.7711C45.4558 38.7563 45.4173 38.7252 45.5343 38.7252H45.558C45.5121 38.6793 45.4573 38.6393 45.4099 38.5933C45.4025 38.5859 45.4099 38.5696 45.4173 38.5785C45.5254 38.6096 45.6972 38.6407 45.8437 38.7104C45.937 38.617 46.0999 38.5711 45.9607 38.5474C45.8911 38.5326 45.8526 38.5089 45.8289 38.4852C45.6113 38.3844 45.4336 38.214 45.3862 38.0036C45.3862 37.9962 45.3936 37.9888 45.4011 37.9962C45.447 38.0969 45.5328 38.1444 45.6335 38.1592C45.6572 38.011 45.5565 38.174 45.5165 37.8717C45.478 37.5695 45.4469 37.522 45.4928 37.5072C45.5387 37.4924 45.5861 37.4924 45.6098 37.445C45.6335 37.3991 45.595 37.0183 45.7031 37.2361C45.8112 37.445 46.0288 37.8258 46.0525 37.771C46.0762 37.7087 46.0836 37.5309 46.1532 37.5309C46.2302 37.5309 46.1221 37.3057 46.091 37.1353C46.0599 36.9649 46.0451 36.8019 46.0451 36.8019C46.0451 36.8019 46.2391 37.042 46.356 36.9575C46.473 36.8642 46.3708 36.5456 46.3871 36.3515C46.4019 36.1574 46.1547 35.7158 46.473 36.0181C46.55 36.0952 46.6285 36.1426 46.6906 36.1811C46.7528 36.2122 46.8076 36.227 46.8535 36.227C46.9394 36.2344 46.9927 36.2033 46.9927 36.2033C46.9927 36.2033 46.9853 36.0863 46.969 35.9544C46.9527 35.8225 46.9379 35.6743 46.9453 35.6521C46.9527 35.6062 47.0386 35.7292 47.123 35.458C47.2 35.1706 47.1156 35.2565 47.1926 35.1009C47.2311 35.0239 47.2622 34.9928 47.2932 34.9453C47.3243 34.8994 47.3628 34.8209 47.4561 34.6816C47.6427 34.4015 47.4798 34.4949 47.4635 34.449C47.4487 34.403 47.5642 34.3319 47.6264 34.3008C47.6812 34.2771 47.7271 34.2074 47.6886 34.363C47.6649 34.4401 47.7271 34.5497 47.7966 34.6742C47.8662 34.7912 47.9358 34.9142 47.8736 34.9853C47.7567 35.1172 47.656 35.0624 47.7034 35.1943C47.7493 35.3261 47.8277 35.381 47.804 35.5128C47.7804 35.6447 47.9121 35.6447 48.0528 35.5825C48.192 35.5202 48.2305 35.5825 48.0528 35.8225C47.9758 35.8536 47.9358 35.9159 47.8973 35.9781C47.8662 36.0477 47.8351 36.1174 47.773 36.1796C47.8899 36.1796 48.0676 36.1796 48.0676 36.0018C48.109 36.0018 48.1298 36.0225 48.1298 36.064C48.0128 36.2418 48.0676 36.476 47.8973 36.6538C47.9595 36.6538 48.075 36.716 48.1298 36.5915V36.8242C48.192 36.8242 48.2467 36.7619 48.3074 36.7619C48.2453 37.0568 47.8958 37.1738 47.7182 37.4065C47.7804 37.4065 47.8958 37.4065 47.958 37.3828C48.0276 37.3591 48.1061 37.3279 48.1757 37.2894C48.2305 37.2509 48.3074 37.3279 48.2453 37.3902C48.1446 37.4835 48.0276 37.5383 47.8958 37.568C47.9032 37.6065 47.8573 37.685 47.7715 37.8317C47.6012 38.1192 47.5227 38.2273 47.5849 38.2273C47.6471 38.2273 47.7626 38.0332 47.733 38.2422C47.6945 38.4511 47.5627 38.7148 47.6782 38.6378C47.7952 38.5607 47.887 38.3044 47.958 38.257C48.0276 38.211 48.0898 38.0392 48.0898 38.0392C48.0898 38.0392 48.1668 38.1784 48.1283 38.2955C48.0898 38.42 48.2838 38.3651 48.1431 38.497C48.0039 38.6363 48.1668 38.6215 48.112 38.737C48.0572 38.8541 48.229 38.7682 48.0572 38.8615C47.8944 38.9549 47.77 38.986 47.7241 39.0008C47.6782 39.0156 47.4916 38.986 47.6782 39.0156C47.8648 39.0467 47.9654 39.0615 47.8648 39.1934C47.7641 39.3327 47.733 39.2557 47.656 39.4646C47.579 39.6735 47.4783 39.7209 47.5553 39.8143C47.6175 39.8913 47.6797 39.9535 47.7493 39.9772H47.8499V39.9847C47.8573 39.9847 47.8573 39.9921 47.8648 39.9921C47.9728 39.9921 47.9891 39.8365 47.9965 39.752C48.0039 39.6661 47.8884 39.7372 48.0113 39.5816C48.1357 39.426 47.9728 39.6987 48.1357 39.426C48.2986 39.1549 48.1209 39.2557 48.3134 39.1001C48.5073 38.9445 48.4999 38.9993 48.5532 38.8911C48.608 38.7741 48.685 38.8363 48.608 38.7741C48.531 38.7193 48.4377 38.7045 48.5147 38.5874C48.5917 38.4703 48.2971 38.1058 48.3667 37.9666C48.4363 37.8273 48.7931 38.2614 48.8168 37.9517C48.8479 37.6406 48.568 37.851 48.8627 37.5561C49.1647 37.2613 49.0492 37.4391 49.0877 37.5013C49.1262 37.5561 49.1025 37.7725 49.2506 37.5161C49.3986 37.2598 49.2047 37.3072 49.2047 37.1353C49.2047 36.9634 49.1736 36.879 49.3054 36.9486C49.4371 37.0183 49.5615 37.0034 49.4993 36.8938C49.4445 36.7767 49.4223 36.553 49.4682 36.4819C49.5141 36.4122 49.4993 36.4819 49.5615 36.4967C49.6311 36.5115 49.7244 36.5352 49.7555 36.3574C49.7866 36.1707 49.9035 36.0626 49.9035 36.0626C49.9035 36.0626 49.9731 36.187 50.0427 36.1485C50.3447 35.9159 50.1049 35.621 49.9879 35.3884C50.0501 35.3261 50.1656 35.3261 50.2826 35.3261C50.4602 35.1483 50.4602 34.7986 50.6942 34.6816C50.8111 34.8594 50.6942 35.0935 50.7563 35.2713C50.8185 35.2091 50.8733 35.3335 50.8733 35.2091C50.8733 35.3261 50.8111 35.4417 50.6956 35.5039H50.9281C50.9281 35.6818 50.6956 35.621 50.6956 35.7988C50.7578 35.7988 50.8126 35.7988 50.8126 35.861C50.7504 36.0388 51.0451 36.1559 50.7815 36.3352C50.5802 36.5752 50.6112 36.5915 50.6261 36.7071C50.6409 36.8242 50.518 37.002 50.6956 36.8775C50.7815 36.8153 50.8511 36.753 50.9044 36.6908C50.9592 36.6286 50.9977 36.5589 51.0362 36.473C51.1058 36.3026 50.9977 36.2863 51.1295 36.2018C51.2612 36.1159 51.2375 35.8684 51.2612 36.1159C51.2686 36.233 51.2538 36.2863 51.2464 36.3485C51.239 36.4108 51.2316 36.4878 51.2701 36.6434C51.2775 36.6745 51.2849 36.7056 51.2938 36.7204C51.356 36.713 51.4256 36.6893 51.4493 36.6582C51.4419 36.6582 51.4345 36.6508 51.4419 36.6434C51.4655 36.6049 51.4878 36.5737 51.5351 36.5886C51.5973 36.6123 51.5973 36.6967 51.5736 36.7516C51.5277 36.8597 51.4493 36.9382 51.3486 36.9916C51.3486 37.0064 51.3486 37.0153 51.3412 37.0301C51.4034 37.0227 51.4581 36.999 51.5188 37.0064C51.5188 37.0064 51.5263 37.0064 51.5263 37.0138C51.5337 37.1146 51.4182 37.2005 51.3249 37.239C51.3175 37.2776 51.3101 37.3087 51.279 37.3561C51.2168 37.4568 51.1161 37.4806 51.0613 37.5117C51.0066 37.5428 51.0377 37.5976 50.9918 37.7058C50.9533 37.7917 50.9222 37.8065 50.86 37.8688C50.8452 37.8688 50.8289 37.8762 50.8141 37.8836C50.7282 37.9147 50.7134 37.9769 50.6586 38.0392C50.6275 38.0777 50.5964 38.1014 50.5653 38.1399C50.5343 38.1859 50.5269 38.2022 50.4721 38.2259C50.4099 38.257 50.3551 38.2644 50.324 38.334C50.3092 38.3651 50.3388 38.3963 50.3699 38.3725C50.4706 38.2866 50.6335 38.3577 50.7504 38.2644C50.8052 38.2259 50.8437 38.1873 50.8674 38.1251C50.8822 38.094 50.8748 38.0481 50.8911 38.0169C50.9059 37.9858 50.9296 37.9621 50.9533 37.9473C51.008 37.9399 51.085 37.9858 51.085 37.9858C51.085 37.9858 51.3338 37.7917 51.3723 37.7058C51.396 37.6435 51.4804 37.6821 51.4966 37.7754C51.4818 37.8065 51.4729 37.8451 51.4818 37.8762C51.4744 37.8836 51.4744 37.891 51.467 37.8999C51.3663 38.0703 51.39 37.9695 51.39 38.1562C51.39 38.3429 50.7934 39.2201 51.2657 39.2808C51.3515 39.2957 51.5218 39.0793 51.5292 38.9163C51.4048 38.8615 51.3974 38.7385 51.4285 38.6141C51.5766 38.5518 51.6995 38.1799 51.6684 38.1251C51.6536 38.1103 51.6447 38.0866 51.6447 38.0703C51.6447 38.0703 51.6521 38.0703 51.6521 38.0777C51.8002 38.1236 51.9008 38.008 52.0326 37.9695C52.04 37.9695 52.04 37.9621 52.0326 37.9621C51.9245 37.9621 51.8461 38.008 51.7617 37.9236C51.7469 37.9088 51.7306 37.8851 51.7158 37.8688C51.7232 37.8688 51.7395 37.8688 51.7469 37.8614C51.809 37.8465 51.886 37.8154 51.9482 37.7917C52.003 37.768 52.0415 37.7532 52.08 37.7058C52.0874 37.6984 52.08 37.6821 52.0652 37.6821C51.9645 37.7132 51.8786 37.728 51.778 37.7058C51.7469 37.6984 51.7158 37.691 51.6847 37.6747L51.6921 37.6673C51.9245 37.4969 52.0178 37.5502 52.0948 37.2716C52.1718 37.0079 52.157 36.9308 52.157 36.9219C52.157 36.9294 52.1718 36.9679 52.2739 36.8671C52.382 36.7501 52.4131 36.5574 52.5227 36.4019C52.6308 36.2463 52.5997 36.2626 52.6397 36.4715C52.6782 36.6804 52.8336 36.7516 52.764 36.9219C52.6944 37.0923 52.6323 37.1783 52.7255 37.1931C52.8188 37.2079 52.881 37.162 52.8736 37.2242C52.8662 37.279 52.8973 37.1072 52.8662 37.279C52.8351 37.4494 53.0365 37.3961 52.9669 37.5043C52.9047 37.6213 52.7803 37.4494 52.9047 37.6213C53.0291 37.7917 53.1223 37.6065 53.0291 37.7917C52.9284 37.9784 52.9121 38.0481 52.8588 38.1725C52.804 38.297 52.9136 38.211 52.8899 38.4437C52.8662 38.6689 52.9832 38.6378 52.7966 38.863C52.61 39.0882 52.5256 38.7074 52.5331 39.189C52.5405 39.6157 52.579 39.7476 52.5878 39.7787C52.5804 39.755 52.5493 39.6854 52.4635 39.8098C52.3865 39.9269 52.2858 40.0113 52.3702 40.035C52.998 39.8958 53.1297 39.4527 53.1297 39.4527C53.1297 39.4527 52.8736 39.4527 53.0128 39.352C53.1519 39.2512 53.2304 39.1267 53.2689 39.2512C53.3074 39.3757 53.5946 39.352 53.5014 39.189C53.4007 39.026 53.3 39.0408 53.2763 38.8941C53.2526 38.7459 53.3148 38.7237 53.3533 38.7C53.3918 38.6763 53.3459 38.7548 53.3533 38.5059C53.3607 38.257 53.3296 38.3577 53.3844 38.3192C53.4392 38.2881 53.4703 38.1799 53.4851 38.0792C53.4999 37.9784 53.5547 38.0332 53.6331 37.9088C53.5783 37.8228 53.5561 37.691 53.6094 37.7221C53.6627 37.7532 53.8493 37.7295 53.8804 37.5517C53.9115 37.365 54.0433 37.2183 54.0433 37.2183C54.0433 37.2183 53.9974 37.3576 54.0284 37.5057C54.0595 37.6539 54.0906 37.6539 54.0595 37.731C54.021 37.808 53.873 37.808 54.021 37.808C54.1691 37.808 54.1839 37.7769 54.1291 37.8851C54.0743 38.0021 54.0906 38.1251 54.175 38.0866C54.2609 38.0555 54.1439 38.1414 54.1676 38.1873C54.1913 38.2333 54.4075 38.1177 54.3853 38.1799C54.3616 38.2348 54.4934 38.1488 54.2772 38.4674C54.0595 38.7859 54.1454 38.7622 54.2624 38.6689C54.3793 38.5755 54.5807 38.3044 54.5259 38.4674C54.4711 38.6304 54.3083 38.7548 54.3631 38.7622C54.4178 38.7696 54.674 38.537 54.5644 38.7311C54.4475 38.9252 54.1839 38.9949 54.4475 39.0186C54.7036 39.0423 54.9198 38.7311 54.7036 39.0423C54.4948 39.3534 54.098 39.7179 54.3157 39.5772C54.5333 39.4379 54.8902 39.1119 54.634 39.4068C54.3779 39.7016 54.2002 39.872 54.409 39.7639C54.6266 39.6468 54.6488 39.5461 54.5096 39.8335C54.3705 40.121 54.7347 39.8024 54.6962 39.9269C54.6888 39.958 54.6725 39.9817 54.6577 39.9965H54.6651C54.6962 40.0113 54.7347 40.0039 54.7658 40.0113C54.8117 40.0261 54.8665 40.0424 54.905 40.0661C54.936 40.081 54.9124 40.1284 54.8902 40.1358H54.7895C54.7658 40.1358 54.7347 40.1358 54.7125 40.1284H54.6977L54.7051 40.1358H52.3702L47.7478 40.1284L43.0247 40.121C42.7997 40.1136 42.9077 39.872 42.9166 39.8261L42.9077 39.8335Z" fill="white"></path>
    <path d="M25.1571 30.3348C25.1334 30.3274 25.1112 30.3111 25.0801 30.3037C25.1038 30.3274 25.126 30.3422 25.1497 30.3659C25.1571 30.3585 25.1571 30.3422 25.1571 30.3348Z" fill="white"></path>
    <path d="M34.7422 13.0737C34.747 13.0737 34.747 13.0737 34.7422 13.0737H34.7493C34.7493 13.0666 34.7422 13.0666 34.7422 13.0737Z" fill="white"></path>
    <path d="M50.9121 19.594H51.0676C51.0913 19.517 50.9906 19.5629 50.9121 19.594Z" fill="white"></path>
    <path d="M37.2167 22.7836C37.0153 22.2635 36.697 21.3641 36.6822 20.9359C36.6511 20.1209 37.3336 19.469 37.0849 18.6926C37.2789 18.5844 38.148 19.9728 38.2413 20.1432C37.4269 19.6542 37.2878 19.8631 37.3721 20.8025C37.4343 21.4234 37.4891 22.8043 38.1317 23.1303C37.729 23.154 37.3869 23.2237 37.2167 22.7806V22.7836ZM37.2552 25.5781C36.1388 26.6879 35.4637 28.263 35.1838 29.7995C34.4006 29.7062 36.5948 24.7632 37.0686 24.3364C37.1545 24.5691 37.4565 25.384 37.2552 25.5781ZM34.8981 26.7501C35.2934 25.6477 35.3482 26.1367 35.0535 27.0213C34.8833 26.9976 34.8359 26.9042 34.8981 26.7501ZM34.9366 27.4406C34.6493 28.38 34.6182 27.6495 34.79 27.1383C34.9529 27.1843 34.9988 27.2865 34.9366 27.4406ZM34.5487 26.479C35.0062 25.424 35.0062 25.8507 34.6804 26.7813C34.5176 26.7338 34.4717 26.6346 34.5487 26.479ZM34.4791 29.638C33.3153 30.081 33.0207 31.6013 32.3233 32.4933C31.509 33.5408 30.3305 33.4475 29.1045 33.5646C29.562 33.7201 30.748 33.9913 30.0195 34.418C29.3222 34.821 28.4679 33.7898 27.6772 33.9291C27.4759 33.9602 25.9716 34.6269 26.0723 34.1691C26.1582 33.812 27.4137 33.5631 27.6077 33.2845C27.7394 33.083 27.5381 32.6711 27.9097 32.4859C28.3835 32.2458 28.4531 32.757 28.8558 32.8741C29.491 33.0682 30.8028 32.9911 31.4231 32.6874C32.1294 32.3466 32.5395 31.4694 32.9511 30.8486C33.0207 30.7404 34.4006 28.8305 34.6419 29.4513C34.6567 29.5684 34.6034 29.6291 34.4791 29.638ZM27.2671 31.3538C26.934 31.059 26.6009 31.0427 26.3062 30.7182C26.7252 30.5937 28.7951 30.167 28.6411 31.176C28.5241 31.8739 27.695 31.7272 27.2686 31.3538H27.2671ZM23.5523 27.8688C24.5754 28.14 25.8561 28.8616 26.6852 27.9622C27.732 26.8139 26.7785 26.1767 25.825 25.4714C25.9331 25.2773 27.9882 25.3544 28.1673 25.4018C28.9654 25.6344 28.3687 25.5959 28.1747 26.0848C28.0193 26.4568 26.9103 29.6469 26.2055 29.2824C25.1425 28.7238 24.3992 28.7697 23.5538 27.8703L23.5523 27.8688ZM28.4916 26.7664C28.499 26.805 28.4842 26.7279 28.4916 26.7664ZM28.7403 28.8779C28.4383 28.6067 28.0341 28.5978 27.6698 28.506C27.7394 27.8466 28.0104 27.8614 28.4457 28.0629C28.9269 28.2882 28.764 28.909 28.7403 28.8779ZM26.7933 29.8795C27.0021 29.6158 27.3441 29.515 27.6461 29.398C26.9177 29.3431 28.2813 29.0646 28.5922 29.5224C28.5922 29.5224 28.7788 30.5152 28.7699 30.6011C28.4205 30.1818 28.0326 30.0114 27.4833 30.127C27.6151 29.9951 27.7779 29.9092 27.9556 29.878C27.5988 29.6765 27.1724 29.801 26.7918 29.878L26.7933 29.8795ZM29.3207 29.9032C29.3207 29.9581 29.2748 29.9343 29.3207 29.9032ZM30.3601 25.6966C30.5614 25.7737 31.3521 26.279 31.3373 25.7278C31.3299 25.4092 30.3675 25.2314 30.1735 25.0995C30.8487 24.8743 31.4601 25.464 32.0805 25.2388C32.4373 25.1069 32.9718 24.4713 33.0888 24.0979C33.4071 24.2994 31.8022 25.867 31.6467 26.0078C31.1818 26.4345 29.5058 29.1505 29.1652 29.0883C29.103 28.7697 29.4451 28.506 29.374 28.1489C29.297 27.7607 28.8232 27.6525 28.7921 27.2258C29.0942 27.4821 29.2881 27.8081 29.7308 27.7221C29.9559 27.6762 30.5688 26.8761 30.5836 26.6583C30.6843 25.3544 28.9402 26.3486 28.536 26.7516C28.7062 25.9678 29.5902 25.4018 30.3586 25.6966H30.3601ZM28.6618 24.0356C27.0717 24.0831 26.2263 21.6071 27.3352 20.5818C27.0406 21.1878 26.8703 21.8546 27.1724 22.4917C27.5055 22.3213 27.4433 21.2026 27.9245 20.8618C27.661 21.7464 27.2967 22.9569 28.3435 23.4074C28.2354 22.911 28.3583 22.4058 28.4516 21.9257C28.5597 22.6236 28.5212 23.9364 29.4125 23.4C29.6301 23.2681 30.1098 21.9953 30.4445 22.1731C30.3364 22.3435 30.289 22.5302 30.3053 22.7317C30.7243 22.2502 31.1655 22.2976 31.6082 21.9864C31.7563 21.8857 31.9265 21.699 32.1353 21.6367C31.7785 21.3345 31.3373 21.133 30.9094 20.9537C31.5845 20.7833 32.2982 21.5286 32.8327 21.3345C33.3375 21.1567 33.4293 20.0928 33.9801 19.8127C34.5546 19.5179 34.9099 19.7431 35.3689 20.2084C35.6088 20.4573 35.6325 20.6825 35.8264 20.9151C35.8412 20.93 36.5238 21.5434 36.5238 21.5508C36.5934 22.0635 36.4379 21.8383 35.9034 21.9464C35.1276 22.1094 34.4539 22.591 33.7092 22.7688C32.7246 23.0088 33.5152 22.754 32.6461 22.0857C32.4995 21.9775 32.1264 21.4886 31.9487 21.9775C32.1353 22.3035 32.3752 22.1716 32.6002 22.0783C32.2819 22.3583 32.9333 22.7925 32.9259 23.071C32.7394 23.0162 32.6387 22.6902 32.4373 22.6058C32.3056 22.551 32.2123 22.6828 32.0805 22.6369C31.6778 22.505 32.6313 22.2872 31.5371 22.342C31.3047 22.3569 30.4667 23.157 30.7465 23.2118C30.9094 23.2429 31.3595 22.9866 31.4838 23.1733C31.0811 23.2977 30.7317 23.5615 30.4208 23.8326C30.4134 23.8326 30.9864 23.7941 30.9864 23.8786C30.9864 24.0579 29.947 24.3438 29.7915 24.3824C29.8537 24.289 29.8848 24.1883 29.8922 24.0801C29.7915 23.9408 28.7447 24.0327 28.6589 24.0327L28.6618 24.0356ZM27.3278 19.6038C27.8934 19.146 27.8786 16.5767 28.7388 16.5693C28.499 17.1753 27.9008 18.2925 28.2739 18.9356C28.576 19.4631 29.5072 19.3697 30.0269 19.6735C29.0571 19.6275 28.0578 19.5416 27.1576 19.992C27.1501 19.829 27.2035 19.7046 27.3278 19.6038ZM29.91 13.8992C30.3601 13.7911 29.6923 14.1318 29.6612 14.1941C29.5058 14.5052 29.4525 14.4652 29.7856 14.6519C29.2422 14.892 29.1415 15.2417 28.8943 15.7306C28.1347 15.172 29.4214 14.0148 29.91 13.8992ZM30.9257 14.9009C31.663 14.9468 31.5386 13.7673 31.4217 13.348C31.8022 13.7125 31.817 13.954 31.8555 14.2948C31.8792 14.5038 31.6689 15.5128 31.6926 15.5291C31.8555 15.661 32.313 14.7764 32.4921 14.769C33.2058 14.7305 33.6011 16.4537 34.5783 15.9647C34.5398 16.8804 34.1978 16.1514 33.8809 16.2285C33.5093 16.3144 33.4782 16.5619 33.191 16.6241C32.6328 16.7412 32.0124 16.0033 31.6319 15.7084C31.3521 15.4906 31.1433 15.2817 30.8102 15.1646C30.5392 15.0713 30.1128 15.2268 29.8878 15.0787C30.2135 14.932 30.5629 14.8697 30.9271 14.9009H30.9257ZM32.236 17.1442C32.5854 16.9738 32.9881 16.8952 33.2902 17.2138C33.3287 17.0968 33.305 16.9886 33.2206 16.8952C34.1593 16.9101 32.7942 17.8658 32.7394 17.9043C32.8711 17.4702 32.6224 17.2449 32.2345 17.1442H32.236ZM31.2588 16.2833C30.7628 15.8254 30.2357 15.6936 29.6612 16.1055C30.1424 14.9498 31.5297 16.0047 32.0109 16.5322C31.6778 16.5085 31.3906 16.6952 31.1344 16.8893C31.1655 16.7026 31.4142 16.4241 31.2588 16.2833ZM29.0098 16.3915C29.0335 16.3989 29.0172 16.4611 29.0098 16.3915ZM29.1874 16.4774C29.6375 16.7797 30.5289 17.6494 31.1107 17.5398C31.4986 17.4702 31.623 16.6863 32.1338 16.8108C31.7696 17.1442 31.6763 18.2006 32.2419 18.4022C31.9162 18.5029 30.5984 17.7813 30.2949 17.6183C30.0388 17.479 29.0083 16.7486 29.0083 16.4315C29.0779 16.4004 29.1401 16.4167 29.186 16.4774H29.1874ZM33.413 18.7978H33.2265C33.1332 18.697 33.5211 18.254 33.6766 18.4333C33.6692 18.5963 33.5833 18.7207 33.413 18.7978ZM34.1104 18.7355C34.0793 18.7044 33.761 18.9756 33.5981 18.8526C33.7536 18.9771 33.9549 17.9606 33.4974 17.9828C33.5048 17.9828 33.1021 18.8363 32.9319 18.58C32.8549 18.4555 33.188 18.3399 33.0636 18.2392C33.0251 18.208 32.6298 18.4333 32.5365 18.4022C33.188 18.1843 33.1569 17.7043 33.8084 18.0065C34.3902 18.2777 34.599 18.8911 35.289 19.0926C35.7775 19.2393 36.3431 19.0452 36.5756 19.6749C36.583 19.7061 36.5134 20.9863 36.2114 20.7388C35.9863 20.5595 36.1655 20.2424 35.9167 20.0409C35.9552 20.072 34.5442 19.063 34.0171 19.0319C34.1252 18.9385 34.2259 18.8452 34.1104 18.737V18.7355ZM35.514 23.314C35.212 23.6785 34.8166 23.7956 34.522 24.0979C34.0719 24.5409 33.9475 25.3158 33.7625 25.9145C33.6381 26.2953 33.1732 27.1709 33.2813 27.568C33.4204 28.1118 34.3517 28.1741 34.4983 28.6779C33.9475 28.9179 33.1717 28.6156 32.8075 28.1578C32.4196 27.6762 32.8534 27.328 31.9858 27.5918C31.3417 27.7859 29.9159 30.0988 29.3414 29.9047C29.8996 28.989 30.597 28.1355 31.2647 27.2895C31.8851 26.5057 32.7853 26.319 33.3435 25.4966C33.5996 25.1247 33.878 24.5424 33.878 24.0845C33.878 23.4089 33.3657 23.9912 33.8928 23.4015C34.3665 22.8814 35.9478 22.3613 36.6304 22.4932C36.1966 22.6799 35.8012 22.9584 35.514 23.3155V23.314ZM35.2194 25.704C35.289 25.464 35.3659 25.2299 35.4681 25.0062C36.1507 25.3247 35.0728 26.0463 35.2194 25.704ZM34.8625 25.4551C34.9247 25.2225 35.0017 24.9973 35.095 24.772C35.7775 24.9899 34.7234 25.8433 34.8625 25.4551ZM34.4983 25.1751C34.5531 24.9573 34.6301 24.7409 34.716 24.5305C35.3985 24.7395 34.3443 25.6166 34.4983 25.1751ZM34.2348 26.7813C33.801 28.3252 33.9549 26.5723 34.1104 26.642C34.1489 26.6879 34.1874 26.7353 34.2348 26.7813ZM34.3591 27.6895C34.2659 27.6584 34.22 27.5888 34.2274 27.488C34.7545 26.1145 34.522 27.5962 34.3591 27.6895ZM34.3044 26.5249C33.6988 26.3382 34.6997 25.2373 34.5753 25.6715C34.4894 25.9589 34.405 26.2375 34.3044 26.5249ZM35.8249 17.7324C35.9256 17.6628 36.0189 17.5857 36.0959 17.4924C35.9567 18.0051 36.8169 18.7726 36.965 19.269C36.2972 19.0912 36.0574 18.2214 35.6236 17.7324C34.9795 17.0108 34.824 16.9412 34.824 15.9707C35.3748 16.4137 35.8012 17.0034 35.8249 17.7324ZM38.8883 22.9703C40.0135 22.6591 38.7802 21.5804 38.9889 21.0307C39.2288 21.1863 39.8891 22.6132 39.71 22.9244C39.6241 23.071 38.601 23.2814 38.4145 23.274C38.5226 23.0962 38.6854 22.994 38.8868 22.9718L38.8883 22.9703ZM21.3773 35.3337C21.401 35.1085 21.7726 34.6581 22.0525 34.8373C21.8748 35.3263 21.5402 35.7382 21.0753 35.9709C21.2071 35.7768 21.3077 35.5678 21.3773 35.3352V35.3337ZM39.6937 26.7353C39.7322 26.922 40.2756 28.6527 39.8492 28.6215C39.516 28.6067 39.6093 26.922 39.6937 26.7353ZM40.4769 30.1033C41.1521 33.6505 39.7011 30.3744 40.4769 30.1033ZM41.004 33.7201C41.0277 33.526 41.5 33.4564 41.6244 33.4327C41.4378 33.9839 41.0662 34.3024 40.6235 34.6595C40.5687 34.5351 40.9877 33.8372 41.004 33.7201ZM40.6013 34.6432C40.6062 34.6432 40.6112 34.6457 40.6161 34.6507C40.6013 34.6655 40.5924 34.6581 40.6013 34.6432ZM46.2705 29.5995C45.4873 27.7992 43.4944 27.3725 41.7192 27.7296C44.0837 27.854 45.5894 28.9786 45.4177 31.5405C45.2933 33.4579 44.3235 35.3737 42.8592 36.608C41.4245 37.8186 39.0985 38.6261 37.5394 37.1518C37.3455 36.974 36.3994 35.3204 37.1278 35.6152C37.1974 35.639 37.4773 36.3443 37.5394 36.4139C37.8193 36.7251 38.3227 37.0347 38.7565 36.9177C37.3914 35.7768 37.8178 33.4016 38.6173 32.0591C39.1607 31.1508 39.1918 31.0041 38.9593 29.9092C38.8661 29.4661 38.835 27.651 38.0991 28.1163C38.068 27.8911 38.2383 27.9148 38.3316 27.7755C38.4174 27.6436 37.766 25.7648 37.7349 25.6107C37.649 25.2699 37.1219 22.9184 38.1465 24.0356C38.5966 24.5246 38.6351 26.0463 38.7831 26.682C38.8527 27.0006 38.8601 27.248 38.8912 27.5117C38.8986 27.6125 38.4796 27.6436 38.527 27.814C38.5729 27.9918 38.9001 27.6747 38.9386 27.9C39.0008 28.2111 39.2022 28.629 39.2791 28.9712C39.4731 29.841 39.6671 30.7167 39.861 31.5865C39.9469 31.9673 40.5584 33.612 40.2874 33.9454C39.6982 34.6744 39.713 32.8904 39.559 32.8593C39.2643 32.8044 38.7905 35.3663 40.4192 35.2804C41.614 35.2182 42.7141 33.6431 42.4121 32.5022C42.2566 31.8961 41.7991 31.9895 41.5282 31.6324C41.3268 31.3612 41.0011 30.1033 41.1018 29.801C41.5667 28.4823 43.5284 29.5298 44.3591 29.4824C43.9711 28.466 42.917 28.0629 41.8924 28.0704C41.1787 28.0778 41.0855 28.3341 40.7449 27.7992C40.5984 27.574 40.3422 26.3708 40.4266 26.1145C40.6591 25.4003 42.3573 24.9039 43.102 24.7558C43.94 24.5854 44.4508 24.6787 45.2652 24.8491C45.7538 24.9499 46.2261 25.1603 45.8781 24.3838C45.7316 24.0505 44.7307 23.2592 44.3739 23.2044C43.9474 23.1348 44.0718 23.3985 43.6987 23.4681C43.2101 23.5615 42.6667 23.4993 42.1707 23.5378C41.5356 23.5926 40.8915 23.6697 40.2711 23.8326C39.9617 23.9097 38.8749 24.5231 38.6351 24.4387C37.7971 24.1438 40.1083 23.437 40.1853 23.4222C40.8604 23.2903 41.62 23.2207 42.3099 23.2044C42.7215 23.197 44.1399 23.4681 43.3493 22.9407C42.8059 22.5761 41.4023 22.8947 40.7745 22.8547C39.8832 22.7999 40.3792 23.0636 39.975 22.3732C39.7811 22.0472 39.75 21.5967 39.5723 21.2559C39.1385 20.4558 38.3464 19.5712 37.766 18.8496C37.1693 18.1117 36.6333 17.5146 36.1299 16.7234C35.9286 16.4048 35.1068 15.7454 35.0683 15.4195C35.021 15.0624 35.4711 14.5586 35.4563 14.123C34.9751 14.3097 34.867 14.7823 34.2229 14.643C33.7032 14.5349 33.114 13.8592 32.8652 13.4562C32.7098 13.2073 31.7563 11.3759 32.3603 11.1981C32.7246 11.0899 33.9194 12.2071 34.2451 12.4012C34.5635 12.5879 35.9123 12.8754 35.9123 13.1154C36.2217 12.2308 37.3307 13.3791 36.7577 12.1612C36.509 11.6337 36.013 10.9817 35.594 10.5787C34.4776 9.51482 32.4921 9.27478 31.7785 10.8899C31.5608 11.3862 31.6852 12.496 31.3062 12.8694C31.0263 13.1406 30.0728 13.0013 29.6538 13.188C28.3894 13.7392 27.9393 15.0653 28.5597 16.1988C28.0948 16.347 28.2265 16.1603 27.9467 16.7115C27.7453 17.1145 27.6447 17.6124 27.4729 18.0302C27.1635 18.8067 26.8984 19.3727 26.7356 20.1491C26.3788 21.8486 26.1611 22.9199 27.775 24.0445C28.1555 24.3083 29.0231 24.1616 29.2481 24.3942C29.5043 24.658 27.4729 24.6965 27.3485 24.6965C25.2624 24.735 23.1999 24.9143 21.1212 25.0373C20.5556 25.0684 19.6865 24.975 20.1129 25.704C20.2299 25.8982 20.7644 25.9752 20.9198 26.116C21.2219 26.3871 21.1908 26.6435 21.4232 26.9383C21.8659 27.5132 22.393 27.5518 22.9749 28.0407C23.6189 28.5756 23.8514 28.9253 24.6583 29.1742C25.2091 29.3372 25.976 29.4143 26.1552 29.9892C26.1167 29.8573 26.1315 30.9597 26.1404 30.9286C26.0634 31.1227 26.0856 31.3168 25.8916 31.4413C25.4415 31.7361 24.7827 30.8441 24.4185 30.6648C23.5582 30.2455 22.4804 30.1685 21.5654 30.4248C22.2864 30.3552 24.8064 30.7345 24.5665 31.9776C24.5206 32.2266 22.7824 32.8074 22.4493 32.8933C21.7519 33.0711 21.17 32.9007 20.5186 33.3364C19.5873 33.9498 18.6723 35.959 20.107 36.5576C21.3625 37.0851 22.7676 35.3159 22.6506 34.1602C22.2627 34.2847 21.635 34.3691 21.2929 34.6106C20.9746 34.8285 20.9361 35.4493 20.5245 35.5338C19.6095 35.7205 20.0818 34.2921 20.2684 34.3232C20.4164 34.3469 20.261 34.6566 20.3542 34.7188C20.4312 34.7736 23.2473 33.5779 23.5642 33.4608C24.8123 33.0267 26.0145 32.7229 27.3101 32.4755C26.9458 33.4297 25.3409 32.7704 24.8597 33.6001C24.5576 34.1276 24.6731 35.2759 24.4259 35.8968C24.1934 36.4717 23.8751 37.014 23.4798 37.4881C22.1384 39.1017 18.6175 40.616 17.5855 37.8763C18.0741 38.4038 18.6708 38.8854 19.4318 38.8306C19.4081 38.4661 18.8115 37.8763 18.6945 37.4644C18.5316 36.9058 18.5316 36.3087 18.6249 35.7338C18.7641 34.9574 19.1135 34.2669 19.5784 33.6386C20.0122 33.0563 20.5097 32.5674 21.176 32.234C21.672 31.985 22.1991 31.8458 22.7498 31.8769C22.8357 31.8843 23.9758 32.148 23.9669 32.1569C24.2615 31.6294 22.7025 30.8604 22.3856 30.7908C21.4321 30.5819 20.4164 31.016 19.6332 31.5198C18.3303 32.3658 17.4612 33.6312 17.0821 35.1055C16.6172 36.9295 16.7327 39.1729 18.5864 40.1893C20.3853 41.1746 22.7276 40.3597 24.1549 39.0943C24.9145 38.4187 25.5511 37.5963 25.9612 36.6569C26.1004 36.3309 26.1789 35.4923 26.4261 35.2759C26.6512 35.0744 27.1783 35.1752 27.4655 35.0981C27.846 34.9974 28.1096 34.664 28.419 34.5706C28.7373 34.4773 29.0942 34.7188 29.451 34.7647C30.2268 34.8655 31.204 34.741 31.9635 34.5869C32.732 34.4388 33.3287 34.1365 33.8409 33.5394C34.2289 33.0889 34.5694 32.4918 34.7633 31.9332C34.8951 31.545 34.8181 30.979 34.981 30.6456C35.4148 29.7536 36.013 30.6219 36.811 30.2574C37.532 29.924 37.532 28.6897 38.2531 28.4186C38.3701 28.9772 38.5329 29.3728 38.3227 29.8929C38.1213 30.3966 37.4936 30.9256 37.2137 31.4294C36.6792 32.391 36.3298 33.4238 36.3061 34.5336C36.2602 37.094 37.7245 38.9802 40.3851 38.8647C44.5885 38.7165 47.985 33.5408 46.2705 29.6054V29.5995Z" fill="white"></path>
    <path d="M33.4923 12.4136C32.9889 12.9722 34.4458 13.073 34.5154 12.9648C34.4917 12.95 33.593 12.3054 33.4923 12.4136Z" fill="white"></path>
    <path d="M34.2152 22.0062C34.9214 21.8047 36.402 21.5247 35.0295 21.052C34.7275 20.9512 33.9516 20.812 33.6881 20.9349C33.5637 20.9972 32.9597 21.7188 33.0751 21.8744C33.4557 21.8981 33.8436 21.9203 34.2152 22.0062Z" fill="white"></path>
    <path d="M5.36699 32.0031C5.36699 17.3045 17.3168 5.3456 32.0043 5.3456C46.6917 5.3456 58.6416 17.3045 58.6416 32.0031C58.6416 34.8125 58.1989 37.5285 57.3935 40.0741H62.9694C63.0153 39.8963 63.07 39.717 63.1248 39.5392C63.2729 39.0739 63.2566 38.7094 62.885 38.3286C62.3727 37.8085 62.6288 36.8306 63.2966 36.5594C63.6608 36.4113 63.7852 36.109 63.8163 35.7608C63.8784 35.0851 63.9332 34.4183 63.9954 33.7427C64.0265 33.4241 63.9406 33.1456 63.6534 32.9737C63.1263 32.6477 63.0567 32.1276 63.11 31.5927C63.1337 31.3438 63.227 31.1112 63.5364 31.0104C63.8696 30.9022 64.0013 30.6148 63.9702 30.2651C63.9081 29.5672 63.8311 28.8678 63.7615 28.1699C63.7304 27.8054 63.5986 27.5565 63.227 27.4009C62.5681 27.1209 62.4053 26.0822 62.9249 25.5932C63.1885 25.3443 63.2966 25.0658 63.2048 24.7235C63.0182 24.0167 62.848 23.3114 62.6155 22.6209C62.5459 22.4268 62.3283 22.1942 62.1343 22.1394C61.4828 21.9764 61.2652 21.4948 61.1497 20.9436C61.1112 20.7643 61.1734 20.5021 61.2978 20.3687C61.5776 20.0664 61.6161 19.7405 61.4606 19.3982C61.1734 18.7462 60.864 18.1017 60.5604 17.4586C60.4213 17.1638 60.1962 17.0245 59.8631 17.0008C59.6543 16.9845 59.413 16.8926 59.2664 16.7444C59.0488 16.5355 58.8785 16.2555 58.7541 15.9843C58.6919 15.8376 58.723 15.5724 58.8237 15.4494C59.0636 15.1471 59.0947 14.8597 58.9007 14.5574C58.4669 13.9055 58.0242 13.2535 57.543 12.6401C57.426 12.4934 57.1003 12.3689 56.9226 12.4223C56.511 12.5467 56.2564 12.446 56.0387 12.0963C55.9528 11.9644 55.8211 11.8563 55.7056 11.7466C55.4805 11.5288 55.4346 11.3051 55.5812 11.0176C55.7441 10.7153 55.713 10.3968 55.4805 10.1478C54.946 9.58923 54.4101 9.03803 53.8282 8.54166C53.6653 8.40238 53.3159 8.34755 53.0909 8.40978C52.432 8.59648 51.4696 7.86599 51.5629 7.19181C51.6177 6.7962 51.5007 6.50874 51.1824 6.29241C50.5768 5.8805 49.9875 5.45376 49.3672 5.07444C49.2043 4.97369 48.8475 4.93516 48.7468 5.03592C48.3974 5.39301 48.119 5.36189 47.777 5.06703C47.6763 4.98109 47.5372 4.94257 47.4128 4.90404C47.0634 4.79588 46.8783 4.59437 46.979 4.21357C47.0486 3.87277 46.902 3.60754 46.6148 3.46826C45.8774 3.10376 45.1342 2.74667 44.382 2.43551C44.2192 2.36587 43.8475 2.44291 43.7765 2.56738C43.5588 2.95559 43.3116 2.93188 42.9784 2.78519C42.8467 2.72296 42.6986 2.69184 42.552 2.65332C42.0634 2.52885 41.9006 2.35846 41.8621 1.84578C41.8473 1.56574 41.7229 1.43387 41.4667 1.36423C40.7383 1.17012 40.0172 0.961198 39.2873 0.774502C38.9616 0.688563 38.6832 0.735978 38.4182 1.02343C37.8985 1.58204 36.8369 1.38052 36.526 0.690044C36.3706 0.340359 36.0996 0.186261 35.7354 0.155145C35.1313 0.109212 34.5257 0.0855042 33.9202 0.0158636C33.5086 -0.0300696 33.1991 0.0469796 32.943 0.411482C32.4929 1.04714 31.5009 0.986388 31.0271 0.365549C30.8879 0.178852 30.577 0.00845498 30.352 0.0158636C29.585 0.039571 28.824 0.147736 28.057 0.217377C27.7698 0.248493 27.5995 0.395183 27.5063 0.667819C27.3434 1.13308 26.3203 1.54499 25.8628 1.34348C25.7858 1.31237 25.7162 1.22791 25.6688 1.14938C25.4601 0.737459 25.1107 0.667819 24.7079 0.777466C24.0802 0.940454 23.4598 1.11085 22.832 1.26643C22.3982 1.3746 22.1495 1.59982 22.0636 2.08138C21.9466 2.70962 20.8081 3.07413 20.3417 2.65628C20.0308 2.37624 19.6976 2.37624 19.3645 2.53182C18.7367 2.81186 18.1164 3.09783 17.5108 3.4327C17.3168 3.54087 17.077 3.80461 17.077 3.99131C17.0918 4.65808 16.6506 4.90701 16.1768 5.15594C15.9132 5.29522 15.6734 5.27299 15.3787 5.12482C15.1611 5.01666 14.7895 4.99295 14.5955 5.11741C13.9292 5.52044 13.2926 5.98718 12.6722 6.45244C12.5405 6.55319 12.4087 6.79323 12.4398 6.92659C12.6026 7.62448 12.1451 7.96675 11.7113 8.33866C11.4937 8.52536 11.2686 8.56388 11.0051 8.4083C10.703 8.22161 10.3921 8.29125 10.1523 8.52536C9.60888 9.04544 9.07439 9.58034 8.5473 10.1241C8.34594 10.3256 8.21417 10.6057 8.38443 10.862C8.65538 11.2651 8.57839 11.5525 8.22157 11.84C8.11348 11.9259 8.0439 12.0726 7.96543 12.1971C7.80256 12.4682 7.61601 12.6164 7.26807 12.4608C6.92753 12.3141 6.61661 12.3749 6.38415 12.7171C5.95774 13.338 5.49284 13.9425 5.09752 14.5797C4.98944 14.75 4.95835 15.1234 5.06643 15.239C5.39956 15.5961 5.36107 15.891 5.09012 16.2318C4.98944 16.3562 4.93466 16.5192 4.88136 16.6659C4.78068 16.946 4.60152 17.0852 4.29208 17.0304C3.84938 16.9534 3.57844 17.1697 3.40077 17.5579C3.12982 18.1476 2.84258 18.7299 2.57904 19.3197C2.42358 19.6693 2.41617 20.0027 2.68712 20.3361C3.10613 20.8562 2.65603 21.9586 1.99717 22.0742C1.67884 22.129 1.45379 22.292 1.3694 22.618C1.17544 23.3321 0.974078 24.0463 0.787524 24.7679C0.701649 25.0791 0.780121 25.3265 1.04367 25.5592C1.63294 26.063 1.43158 27.112 0.741625 27.4676C0.532862 27.5758 0.291526 27.8247 0.260433 28.0499C0.136064 28.8189 0.0738791 29.6028 0.0205778 30.3777C-0.00311164 30.7185 0.17604 30.96 0.523979 31.0756C0.648348 31.1215 0.787524 31.2312 0.849708 31.3467C1.12066 31.8816 0.732742 32.8522 0.190846 33.1159C0.0975685 33.1544 -0.00311164 33.2937 0.00429131 33.3871C0.0738791 34.288 0.174559 35.1874 0.260433 36.0882C0.284123 36.3061 0.368517 36.4142 0.609853 36.4453C0.780121 36.469 1.01257 36.5535 1.08216 36.6854C1.23762 36.9802 1.32202 37.3136 1.40789 37.6396C1.50117 37.9893 1.40049 38.299 1.07476 38.4694C0.756431 38.6398 0.734222 38.8961 0.811213 39.191C0.888204 39.4858 0.966675 39.7807 1.04367 40.0755H6.62253C5.80821 37.53 5.36551 34.8214 5.36551 32.0046L5.36699 32.0031Z" fill="white"></path>
    <path d="M7.11135 31.9156C7.15725 18.2023 18.201 7.10422 32.0045 7.09681C45.7311 7.08941 57.1153 18.2334 56.8814 32.4593C56.8429 35.1131 56.3691 37.675 55.5474 40.0724H57.0443C57.866 37.5268 58.3161 34.8182 58.3161 32.0015C58.3161 17.4807 46.5128 5.66992 32.0045 5.66992C17.4962 5.66992 5.68555 17.4807 5.68555 32.0015C5.68555 34.8182 6.13565 37.5268 6.95737 40.0724H8.45425C7.57774 37.5194 7.10543 34.7797 7.11284 31.9156H7.11135Z" fill="white"></path>
  </g>
  <defs>
    <clipPath id="clip0_1606_3562">
      <rect width="64" height="51.3103" fill="white"></rect>
    </clipPath>
  </defs>
</svg>
