<?xml version="1.0" encoding="UTF-8"?>
<svg xmlns="http://www.w3.org/2000/svg" width="16" height="12" viewBox="0 0 16 12" fill="none">
  <path d="M13.1875 6C11.6406 6 10.375 7.26559 10.375 8.8125C10.375 10.3594 11.6406 11.625 13.1875 11.625C14.7344 11.625 16 10.3594 16 8.8125C16 7.26559 14.7344 6 13.1875 6ZM13.1875 10.6875C12.1563 10.6875 11.3125 9.84372 11.3125 8.8125C11.3125 7.78128 12.1563 6.9375 13.1875 6.9375C14.2187 6.9375 15.0625 7.78128 15.0625 8.8125C15.0625 9.84372 14.2187 10.6875 13.1875 10.6875Z" fill="#B34B1E"></path>
  <path d="M2.8125 6C1.26559 6 0 7.26559 0 8.8125C0 10.3594 1.26559 11.625 2.8125 11.625C4.35941 11.625 5.625 10.3594 5.625 8.8125C5.625 7.26559 4.35941 6 2.8125 6ZM2.8125 10.6875C1.78128 10.6875 0.9375 9.84372 0.9375 8.8125C0.9375 7.78128 1.78128 6.9375 2.8125 6.9375C3.84372 6.9375 4.6875 7.78128 4.6875 8.8125C4.6875 9.84372 3.84372 10.6875 2.8125 10.6875Z" fill="#B34B1E"></path>
  <path d="M3.75 3.1875H8.5V6H3.75V3.1875ZM10.8438 1.3125H9.90625C9.64716 1.3125 9.4375 1.10284 9.4375 0.84375C9.4375 0.584656 9.64716 0.375 9.90625 0.375H10.8438C11.1028 0.375 11.3125 0.584656 11.3125 0.84375C11.3125 1.10284 11.1028 1.3125 10.8438 1.3125Z" fill="#F6B900"></path>
  <path d="M13.45 9.20444C13.3656 9.25132 13.2812 9.27947 13.1875 9.27947C13.0375 9.27947 12.8875 9.20444 12.7938 9.07325L10.6 5.792C10.45 5.57635 10.5157 5.28572 10.7219 5.13575C10.9375 4.9951 11.2281 5.05135 11.3781 5.26697L13.1875 7.95766L13.5812 8.54822C13.7219 8.76385 13.6656 9.05447 13.45 9.20444ZM8.03125 7.87322V9.74822H2.8125C2.29688 9.74822 1.875 9.32635 1.875 8.81072C1.875 8.2951 2.29688 7.87322 2.8125 7.87322H8.03125Z" fill="#F6B900"></path>
  <path d="M10.8438 0.375C10.5812 0.375 10.375 0.581219 10.375 0.84375V2.25H8.96875C8.80941 2.25 8.66875 2.32503 8.57503 2.45622L6.80934 5.0625H5.40938L3.91875 2.83125C3.675 2.46563 3.27187 2.25 2.83128 2.25H0.46875C0.206219 2.25 0 2.45622 0 2.71875C0 3.91878 0.909344 4.92184 2.08122 5.04372L3.58125 7.29375C3.825 7.65937 4.22813 7.875 4.66872 7.875H5.80312L6.125 8.46562L6.40625 9.02809C6.63122 9.46875 7.08128 9.75 7.5875 9.75H8.275C8.90309 9.75 9.4375 9.30941 9.55937 8.69063L9.63441 8.36253C10.0094 6.44997 11.7062 5.0625 13.6562 5.0625C13.9188 5.0625 14.125 4.85628 14.125 4.59375V3.65625C14.125 1.84687 12.6531 0.375 10.8438 0.375Z" fill="#B34B1E"></path>
</svg>
