<?xml version="1.0" encoding="UTF-8"?>
<svg xmlns="http://www.w3.org/2000/svg" width="21" height="14" viewBox="0 0 21 14" fill="none">
  <g id="Group">
    <path id="Vector" d="M15.028 2.43613L13.5562 0.929805C13.5006 0.872895 13.4342 0.827672 13.3609 0.796795C13.2876 0.765917 13.2088 0.750007 13.1293 0.75H11.6574C11.3277 0.75 11.0604 1.0173 11.0604 1.34699C11.0604 1.67668 11.3277 1.94398 11.6574 1.94398H12.8778L14.174 3.27051C14.3994 3.50117 14.7884 3.50488 15.0182 3.28031C15.2541 3.04992 15.2584 2.67195 15.028 2.43613Z" fill="white"></path>
    <path id="Vector_2" d="M3.15448 7.34994C1.48768 7.34994 0.136353 8.70126 0.136353 10.3681C0.136353 12.0349 1.48768 13.3862 3.15448 13.3862C4.82127 13.3862 6.1726 12.0349 6.1726 10.3681C6.17256 8.70126 4.82127 7.34994 3.15448 7.34994ZM3.15448 11.9902C2.2587 11.9902 1.53233 11.2638 1.53233 10.368C1.53233 9.47224 2.2587 8.74587 3.15448 8.74587C4.05026 8.74587 4.77663 9.47224 4.77663 10.368C4.77659 11.2638 4.05022 11.9902 3.15448 11.9902Z" fill="white"></path>
    <path id="Vector_3" d="M3.1247 9.6972L7.69666 7.34098L8.50377 8.86095L3.69213 10.906C3.36138 11.0466 2.97869 10.9003 2.82595 10.575C2.67326 10.2497 2.80525 9.86184 3.1247 9.6972Z" fill="white"></path>
    <path id="Vector_4" d="M17.1182 7.34994C15.4514 7.34994 14.1001 8.70126 14.1001 10.3681C14.1001 12.0349 15.4514 13.3862 17.1182 13.3862C18.785 13.3862 20.1363 12.0349 20.1363 10.3681C20.1363 8.70126 18.785 7.34994 17.1182 7.34994ZM17.1182 11.9902C16.2224 11.9902 15.4961 11.2638 15.4961 10.368C15.4961 9.47224 16.2224 8.74587 17.1182 8.74587C18.014 8.74587 18.7404 9.47224 18.7404 10.368C18.7404 11.2638 18.014 11.9902 17.1182 11.9902Z" fill="white"></path>
    <path id="Vector_5" d="M16.3672 10.3092L14.4245 6.23846L15.9563 5.57585L17.5928 9.77905C17.7232 10.1139 17.5653 10.492 17.2355 10.6347C16.9056 10.7773 16.522 10.6335 16.3672 10.3092Z" fill="white"></path>
    <path id="Vector_6" d="M19.4937 5.46884C19.4482 5.63544 19.2808 5.73806 19.1114 5.70384C18.1049 5.50064 14.4103 5.00244 12.5987 8.15857L9.93229 6.28365L9.30249 3.42294C9.62804 3.4306 9.91054 3.43462 10.1363 3.43462C13.1946 3.43462 14.4244 2.18392 14.4244 2.18392C14.4244 2.18392 15.0425 2.54228 15.3429 3.83806C15.3731 3.96837 15.4887 4.06119 15.6225 4.06142C16.3416 4.06275 18.5209 4.09994 19.2083 4.49294C19.5448 4.68537 19.5914 5.11353 19.4937 5.46884Z" fill="white"></path>
    <path id="Vector_7" d="M12.5988 8.15752L12.4841 9.21627C12.4265 9.74826 11.9774 10.1519 11.4422 10.1519H8.68206C8.4901 10.1519 8.3251 10.0179 8.28448 9.83037C8.07241 8.84486 6.97663 5.87705 1.41206 4.95634C0.83018 4.85978 0.373032 4.40545 0.276039 3.82396L0.196352 3.34752C0.165766 3.16564 0.313461 3.00345 0.497368 3.01634C2.11147 3.13103 6.89092 3.36763 9.3026 3.42197L12.5988 8.15752Z" fill="white"></path>
    <path id="Vector_8" d="M11.2678 8.57064H9.78979C9.628 8.57064 9.49683 8.70177 9.49683 8.86361C9.49683 9.02544 9.628 9.15658 9.78979 9.15658H11.2678C11.4296 9.15658 11.5607 9.02544 11.5607 8.86361C11.5607 8.70177 11.4296 8.57064 11.2678 8.57064Z" fill="white"></path>
    <path id="Vector_9" d="M4.29671 3.30328L5.1446 4.44433C5.2504 4.5867 5.38803 4.70234 5.5465 4.78202C5.70497 4.86169 5.87988 4.90319 6.05726 4.9032H11.0463C11.3593 4.9032 11.6136 4.65058 11.6158 4.33757L11.622 3.42445C11.6235 3.20632 11.4486 3.02789 11.2305 3.025L4.48448 2.93589C4.2939 2.93339 4.18304 3.15031 4.29671 3.30328Z" fill="white"></path>
    <path id="Vector_10" d="M14.8925 3.5073C14.5592 3.5073 14.2889 3.23706 14.2889 2.90367V1.85738C14.2889 1.52402 14.5591 1.25374 14.8925 1.25374C15.2259 1.25374 15.4961 1.52398 15.4961 1.85738V2.90367C15.4961 3.23706 15.2259 3.5073 14.8925 3.5073Z" fill="white"></path>
  </g>
</svg>
