<?xml version="1.0" encoding="UTF-8"?>
<svg xmlns="http://www.w3.org/2000/svg" width="20" height="24" viewBox="0 0 20 24" fill="none">
  <g id="Group 1000004073">
    <circle id="Ellipse 1989" cx="10.0709" cy="7.40647" r="5.76731" fill="white"></circle>
    <path id="Vector" d="M11.9425 18.479C16.3329 18.7315 19.6424 19.8599 19.6424 21.2133C19.6424 22.7515 15.3586 23.9999 10.0712 23.9999C4.78547 23.9999 0.5 22.7515 0.5 21.2133C0.5 19.8756 3.7333 18.7591 8.04635 18.4877L11.9425 18.479Z" fill="white"></path>
    <path id="Vector_2" d="M9.98621 0C14.1284 0 17.4866 3.3582 17.4866 7.50147C17.4866 9.83994 14.3263 14.7245 11.9424 18.479C11.1606 19.7107 10.462 20.8207 9.98621 21.6793C9.52609 20.8499 8.83077 19.7366 8.04623 18.4877C5.67479 14.7142 2.48474 9.69774 2.48474 7.50147C2.48474 3.3582 5.84294 0 9.98621 0ZM13.3374 7.21869C13.3374 5.37171 11.8321 3.8659 9.98621 3.8659C8.13923 3.8659 6.63396 5.37171 6.63396 7.21869C6.63396 9.06459 8.13923 10.5699 9.98621 10.5699C11.8321 10.5699 13.3374 9.06459 13.3374 7.21869Z" fill="#F96515"></path>
  </g>
</svg>
