<?xml version="1.0" encoding="UTF-8"?>
<svg xmlns="http://www.w3.org/2000/svg" width="24" height="22" viewBox="0 0 24 22" fill="none">
  <g id="Group">
    <path id="Vector" d="M14.109 6.82861H5.26477C4.71249 6.82861 4.26477 7.27633 4.26477 7.82861V20.8917C4.26477 21.2801 4.5796 21.5949 4.96793 21.5949H23.2969C23.6852 21.5949 24 21.2801 24 20.8917V7.82861C24 7.27633 23.5523 6.82861 23 6.82861H14.109Z" fill="white"></path>
    <path id="Vector_2" d="M23.2968 1.90625H4.9679C4.57957 1.90625 4.26474 2.22108 4.26474 2.60941V5.71098C4.26474 5.97619 4.3701 6.23055 4.55763 6.41808L5.37816 7.23861C5.5657 7.42615 5.82005 7.5315 6.08527 7.5315H22.1795C22.4447 7.5315 22.699 7.42615 22.8866 7.23861L23.7071 6.41808C23.8946 6.23055 24 5.97619 24 5.71098V2.60941C24 2.22112 23.6851 1.90625 23.2968 1.90625Z" fill="white"></path>
    <path id="Vector_3" d="M9.18684 4.71894C8.79818 4.71894 8.48368 4.40444 8.48368 4.01578V1.20316C8.48368 0.814498 8.79818 0.5 9.18684 0.5C9.5755 0.5 9.88999 0.814498 9.88999 1.20316V4.01578C9.88999 4.40444 9.5755 4.71894 9.18684 4.71894Z" fill="white"></path>
    <path id="Vector_4" d="M19.031 4.71894C18.6424 4.71894 18.3279 4.40444 18.3279 4.01578V1.20316C18.3279 0.814498 18.6424 0.5 19.031 0.5C19.4197 0.5 19.7342 0.814498 19.7342 1.20316V4.01578C19.7342 4.40444 19.4197 4.71894 19.031 4.71894Z" fill="white"></path>
    <path id="Vector_5" d="M14.1089 6.12549H4.26474V6.82864C4.26474 14.1067 0.290077 17.5072 0.250232 17.5401C0.0243312 17.731 -0.0587819 18.0428 0.0428476 18.3202C0.143774 18.5969 0.406801 18.7823 0.70208 18.7823H19.031C19.1958 18.7823 19.3551 18.7246 19.4815 18.6195C19.6634 18.4671 24 14.8009 24 6.82864V6.12549H14.1089Z" fill="#F96515"></path>
    <path id="Vector_6" d="M14.1089 0.5C13.7203 0.5 13.4058 0.814498 13.4058 1.20316V4.01578C13.4058 4.40444 13.7203 4.71894 14.1089 4.71894C14.4976 4.71894 14.8121 4.40444 14.8121 4.01578V1.20316C14.8121 0.814498 14.4976 0.5 14.1089 0.5Z" fill="white"></path>
  </g>
</svg>
