<?xml version="1.0" encoding="UTF-8"?>
<svg xmlns="http://www.w3.org/2000/svg" width="25" height="24" viewBox="0 0 25 24" fill="none">
  <g id="Group">
    <g id="Clip path group">
      <mask id="mask0_1424_3182" style="mask-type:luminance" maskUnits="userSpaceOnUse" x="0" y="0" width="25" height="24">
        <g id="a">
          <path id="Vector" d="M0.5 7.24792e-05H24.4999V24H0.5V7.24792e-05Z" fill="white"></path>
        </g>
      </mask>
      <g mask="url(#mask0_1424_3182)">
        <g id="Group_2">
          <path id="Vector_2" d="M16.8585 9.55673C6.49028 6.01351 13.4814 1.76885 17.0001 0.094902C17.0481 0.0720272 17.0318 7.43866e-05 16.9786 7.43866e-05H14.4684C14.0714 7.43866e-05 13.6791 0.0919018 13.3161 0.269371C9.32996 2.21772 1.29261 6.95818 7.78585 10.9338C15.232 15.493 7.24913 21.4464 3.07137 24H19.4531C21.6438 20.873 26.1831 12.7433 16.8585 9.55673Z" fill="#F96515"></path>
          <path id="Vector_3" d="M17.6085 8.68772C7.72778 5.63401 13.4287 2.1566 17.087 0.365461C17.2579 0.281742 17.2035 7.24792e-05 17.0165 7.24792e-05H16.8806C13.4392 1.60329 5.96739 5.94451 16.5375 9.55673C25.8621 12.7433 21.3229 20.873 19.1321 24H20.9888C21.4536 24 21.8806 23.7181 22.1002 23.2659C24.2051 18.9321 26.1695 11.3336 17.6085 8.68772Z" fill="white"></path>
          <path id="Vector_4" d="M7.80287 10.9333C3.00228 7.99405 6.04774 4.63668 9.62288 2.29861C5.62324 4.54157 1.03625 8.2279 6.41313 11.5201C12.7108 15.376 6.10465 20.2292 1.29172 23.1795C0.934114 23.3987 1.07572 23.9995 1.48475 23.9995H3.08844C7.26616 21.4459 15.249 15.4925 7.80287 10.9333Z" fill="white"></path>
        </g>
      </g>
    </g>
  </g>
</svg>
