<?xml version="1.0" encoding="UTF-8"?>
<svg xmlns="http://www.w3.org/2000/svg" width="50" height="42" viewBox="0 0 50 42" fill="none">
  <g id="a" clip-path="url(#clip0_1569_2389)">
    <path id="Vector" d="M0.494655 0.0555754C0.509564 0.172734 0.500618 0.300408 0.543853 0.407052C1.08802 1.73936 1.61131 3.08218 2.19722 4.39647C2.82487 5.80087 3.91768 6.73063 5.34593 7.25034C9.85132 8.89207 14.3537 10.5398 18.8696 12.1545C27.1528 15.1165 35.4465 18.056 43.7327 21.012C44.3141 21.2193 44.8821 21.4716 45.4367 21.7405C45.6559 21.8471 45.8512 22.0379 46.0092 22.2302C46.4311 22.7379 46.4789 23.4003 46.1002 24.0116C45.878 24.3706 45.5948 24.7055 45.2877 24.9969C42.5281 27.609 39.7565 30.2105 36.9865 32.8135C36.8866 32.9082 36.7763 32.9923 36.6332 33.1109C36.7569 33.123 36.8389 33.1395 36.9209 33.1395C38.0734 33.1455 39.2243 33.1485 40.3767 33.1515C40.6898 33.1515 40.7495 33.1094 40.8613 32.8105C41.067 32.2608 41.392 31.7906 41.8005 31.3776C43.3093 29.853 44.827 28.3375 46.3298 26.8054C46.8337 26.2917 47.3361 25.7675 47.7759 25.1997C48.0651 24.8257 48.2932 24.3826 48.4602 23.9365C48.9119 22.7394 48.6496 21.6384 47.8743 20.6575C47.3167 19.9531 46.5594 19.5055 45.7483 19.1645C44.0845 18.4631 42.4103 17.7871 40.7405 17.1037C37.5158 15.7849 34.2881 14.4706 31.0663 13.1488C25.9258 11.0385 20.7928 8.9146 15.6493 6.81174C11.8506 5.25864 8.10999 3.57185 4.40221 1.80845C3.2453 1.25871 2.08392 0.723983 0.924024 0.183249C0.7973 0.124669 0.673559 0.0615836 0.548326 0L0.493164 0.0555754H0.494655Z" fill="#262626"></path>
    <path id="Vector_2" d="M3.96639 8.59961C3.97384 8.69724 3.96042 8.77084 3.98577 8.82942C4.65069 10.366 5.43638 11.8335 6.5262 13.1147C7.22691 13.9394 8.13633 14.444 9.16801 14.7249C13.9224 16.0137 18.6782 17.3009 23.4341 18.5882C27.2194 19.6126 31.0047 20.6354 34.79 21.6598C34.8288 21.6703 34.8675 21.6824 34.9048 21.6929C35.3431 21.8266 35.4102 21.9753 35.2268 22.4018C35.2164 22.4259 35.2119 22.4514 35.2 22.4935C35.7069 22.6301 36.2078 22.7653 36.7072 22.8975C39.0896 23.5254 41.472 24.1502 43.8515 24.7856C44.1541 24.8667 44.3912 24.8412 44.6014 24.5873C44.737 24.4236 44.913 24.2959 45.0606 24.1412C45.639 23.5389 45.5302 22.7458 44.7833 22.3763C44.3211 22.1465 43.8216 21.9843 43.3297 21.8206C39.9439 20.6925 36.5552 19.572 33.1664 18.45C28.0528 16.7557 22.9376 15.0629 17.824 13.3686C14.7901 12.3637 11.7517 11.3694 8.72522 10.3405C7.2761 9.8478 5.84935 9.28604 4.41066 8.75732C4.275 8.70776 4.13635 8.6642 3.96191 8.60412L3.96639 8.59961Z" fill="#262626"></path>
    <path id="Vector_3" d="M30.7471 25.2662C31.6536 25.4435 32.5347 25.6177 33.4173 25.7889C35.9801 26.2831 38.5429 26.7698 41.1042 27.2714C41.4888 27.3465 41.7765 27.2579 42.0553 26.974C42.5428 26.4799 43.0632 26.0187 43.5715 25.5456C43.6237 25.496 43.6863 25.457 43.7862 25.3804C43.3673 25.2692 43.0184 25.1731 42.6666 25.083C37.4277 23.7236 32.1873 22.3658 26.9484 21.0064C21.0908 19.4864 15.2332 17.9663 9.37559 16.4447C8.97008 16.3396 8.56456 16.23 8.15756 16.1278C8.10687 16.1143 8.02487 16.1143 7.99952 16.1443C7.97418 16.1744 7.98909 16.254 8.00698 16.3051C8.02785 16.3666 8.06512 16.4252 8.10388 16.4808C8.75986 17.4181 9.41584 18.3553 10.0733 19.2926C10.7442 20.2509 11.6939 20.7751 12.8016 21.0094C14.3446 21.3369 15.8966 21.6238 17.4441 21.9257C21.3442 22.6857 25.2458 23.4442 29.1474 24.2043C29.5455 24.2824 29.945 24.356 30.3431 24.4371C30.4594 24.4611 30.5772 24.4912 30.6875 24.5377C30.9126 24.6309 30.9693 24.7811 30.8753 25.0064C30.8425 25.086 30.7993 25.1611 30.7471 25.2692V25.2662Z" fill="#262626"></path>
    <path id="Vector_4" d="M25.6414 28.4646C26.035 28.5156 26.4152 28.5667 26.7954 28.6148C29.7204 28.9888 32.6455 29.3628 35.5706 29.7368C36.5009 29.8555 37.4327 29.9726 38.363 30.0928C38.5613 30.1183 38.7238 30.0642 38.8729 29.9246C39.5542 29.2847 40.243 28.6508 40.9258 28.014C40.9765 27.9674 41.0137 27.9058 41.0838 27.8187C31.5199 26.0117 21.9963 24.2123 12.4175 22.4023C12.501 22.5405 12.5442 22.6457 12.6158 22.7268C13.3508 23.5484 14.0813 24.3745 14.8297 25.1841C15.5751 25.9877 16.5382 26.3903 17.5893 26.563C19.2248 26.8304 20.8677 27.0527 22.5062 27.2945C23.4081 27.4282 24.3101 27.5649 25.2106 27.7C25.2493 27.706 25.2896 27.7151 25.3284 27.7241C25.7339 27.8097 25.8025 27.9268 25.6802 28.3294C25.6683 28.3669 25.6593 28.4045 25.6414 28.4661V28.4646Z" fill="#262626"></path>
    <path id="Vector_5" d="M38.086 30.6605C37.5687 30.5944 37.102 30.5314 36.6354 30.4758C33.4479 30.1018 30.2619 29.7278 27.0745 29.3553C26.3469 29.2696 25.6194 29.1885 24.8918 29.1014C24.6503 29.0729 24.4401 29.1239 24.2299 29.2561C22.2709 30.4893 20.3059 31.7135 18.344 32.9421C18.2739 32.9857 18.2098 33.0413 18.0935 33.1284C18.2217 33.1344 18.2918 33.1419 18.3604 33.1419C20.0853 33.1419 21.8102 33.1419 23.5337 33.1419C27.322 33.1449 31.1117 33.1479 34.9 33.1569C35.2697 33.1569 35.5605 33.0473 35.8303 32.7859C36.5042 32.128 37.2004 31.4942 37.8877 30.8498C37.9399 30.8002 37.9921 30.7491 38.086 30.6605Z" fill="#262626"></path>
    <path id="Vector_6" d="M10.0793 36.2394V36.9543C9.87802 36.9799 9.68122 37.0099 9.48443 37.0309C9.14899 37.067 8.99692 37.2082 8.99394 37.5446C8.98648 38.524 8.98648 39.5033 8.99394 40.4826C8.99692 40.8131 9.14004 40.9452 9.4725 40.9828C9.67079 41.0053 9.86758 41.0339 10.0748 41.0609V41.7714H5.67676C5.67676 41.5611 5.66931 41.3598 5.68273 41.1615C5.68571 41.1195 5.75727 41.0579 5.80498 41.0489C5.9809 41.0143 6.1613 41.0008 6.33871 40.9768C6.61005 40.9392 6.74571 40.801 6.75615 40.5262C6.76659 40.2258 6.75913 39.9254 6.75913 39.6129H3.35996C3.35996 39.9584 3.33462 40.3054 3.36891 40.6463C3.38978 40.8491 3.59552 40.9362 3.78188 40.9783C3.9742 41.0218 4.17397 41.0369 4.3812 41.0669V41.7684H0.0278816V41.0624C0.226167 41.0354 0.42296 41.0068 0.619754 40.9828C0.962653 40.9422 1.08341 40.8086 1.08341 40.4556C1.08341 39.4958 1.08341 38.5375 1.08341 37.5777C1.08341 37.1977 0.959671 37.067 0.576519 37.0279C0.391652 37.0084 0.208276 36.9799 -0.000444807 36.9528C-0.000444807 36.7365 -0.00342653 36.5308 -0.000444807 36.3265C0.00104606 36.1823 0.115843 36.2243 0.191877 36.2243C0.864256 36.2213 1.53664 36.2228 2.20902 36.2228C2.85456 36.2228 3.5001 36.2228 4.14565 36.2228H4.37673V36.9528C4.18292 36.9784 3.98762 37.0084 3.79082 37.0309C3.46581 37.0685 3.32418 37.2142 3.31673 37.5371C3.31225 37.785 3.30927 38.0328 3.3212 38.2806C3.32418 38.3287 3.39574 38.4143 3.436 38.4143C4.52731 38.4188 5.61862 38.4143 6.70993 38.4098C6.7159 38.4098 6.72186 38.4038 6.74124 38.3948C6.74124 38.0553 6.75764 37.7099 6.73528 37.3659C6.72186 37.1691 6.55488 37.064 6.31485 37.0324C6.12402 37.0069 5.9317 36.9829 5.74087 36.9573C5.72298 36.9543 5.70509 36.9408 5.68422 36.9318V36.2379H10.0763L10.0793 36.2394Z" fill="#262626"></path>
    <path id="Vector_7" d="M28.3657 41.9487C28.2554 41.9562 28.1629 41.9667 28.0705 41.9667C27.252 41.9607 26.4335 41.9487 25.6151 41.9487C25.4257 41.9487 25.2722 41.8886 25.1574 41.7474C24.9114 41.4485 24.6698 41.1451 24.4358 40.8356C23.7187 39.8849 23.006 38.9311 22.2919 37.9788C22.2576 37.9337 22.2189 37.8916 22.1324 37.8616C22.1324 38.2206 22.1324 38.5796 22.1324 38.9386C22.1339 39.4823 22.1339 40.0245 22.1428 40.5683C22.1488 40.9618 22.2338 41.0579 22.6229 41.1285C22.8182 41.1646 23.0165 41.1901 23.2416 41.2232V41.9366H19.7455V41.2187C19.9498 41.1916 20.1525 41.1631 20.3553 41.1361C20.6803 41.094 20.81 40.9678 20.8115 40.6404C20.8175 39.655 20.8175 38.6682 20.8115 37.6829C20.81 37.3629 20.6699 37.2277 20.3493 37.1902C20.1466 37.1662 19.9438 37.1391 19.7217 37.1106C19.7217 36.8868 19.7127 36.6795 19.7291 36.4737C19.7321 36.4317 19.832 36.3671 19.8886 36.3656C20.2673 36.3566 20.6475 36.3611 21.0277 36.3596C21.794 36.3566 22.5588 36.3641 23.3236 36.346C23.744 36.337 24.0377 36.5038 24.2867 36.8402C25.138 37.9908 26.0042 39.1293 26.8659 40.2724C26.9091 40.331 26.9583 40.385 27.0329 40.4767C27.0433 40.3805 27.0523 40.3265 27.0537 40.2724C27.0537 39.4478 27.0567 38.6231 27.0537 37.7985C27.0537 37.3644 26.9568 37.2563 26.5334 37.1917C26.3501 37.1647 26.1682 37.1361 25.9803 37.1076V36.3971H29.463V37.1076C29.2811 37.1346 29.1007 37.1647 28.9173 37.1872C28.4865 37.2383 28.3896 37.3464 28.3881 37.7775C28.3851 39.0993 28.3806 40.4196 28.3746 41.7414C28.3746 41.8015 28.3687 41.86 28.3642 41.9472L28.3657 41.9487Z" fill="#262626"></path>
    <path id="Vector_8" d="M29.9069 41.0598C30.1067 41.0342 30.3035 41.0042 30.5017 40.9817C30.8223 40.9456 30.9684 40.8104 30.9699 40.495C30.9758 39.4886 30.9758 38.4838 30.9699 37.4774C30.9684 37.1965 30.8327 37.0643 30.5584 37.0298C30.3676 37.0058 30.1767 36.9817 29.9725 36.9562V36.2262C30.0798 36.2187 30.1782 36.2037 30.2766 36.2052C32.0329 36.2097 33.7891 36.2112 35.5468 36.2262C36.176 36.2322 36.7902 36.3554 37.3865 36.5597C38.6061 36.9772 39.2382 38.0782 39.0474 39.4391C38.9087 40.4259 38.366 41.0928 37.4447 41.4398C36.7589 41.6981 36.0433 41.8048 35.3113 41.8048C33.5953 41.8063 31.8778 41.8108 30.1618 41.8138C29.8845 41.8138 29.8845 41.8138 29.8845 41.5239C29.8845 41.3902 29.886 41.2565 29.889 41.1214C29.889 41.1093 29.8964 41.0973 29.9114 41.0568L29.9069 41.0598ZM33.1808 37.2897V40.6903C33.974 40.6903 34.7522 40.7083 35.5289 40.6828C35.9926 40.6677 36.3221 40.3463 36.3981 39.8807C36.495 39.2889 36.4876 38.6911 36.3921 38.1008C36.3221 37.6622 36.015 37.3963 35.5707 37.3572C35.2397 37.3272 34.9072 37.3002 34.5763 37.2927C34.1141 37.2821 33.6504 37.2897 33.1808 37.2897Z" fill="#262626"></path>
    <path id="Vector_9" d="M14.4702 36.0371C15.6227 36.0026 16.4814 36.0807 17.3148 36.3495C18.2168 36.6394 18.9443 37.1486 19.2977 38.0739C19.8329 39.4738 19.0994 41.0164 17.6428 41.5526C16.6603 41.9146 15.6346 42.0137 14.597 41.9987C13.6637 41.9852 12.7543 41.8335 11.9015 41.4279C10.4911 40.758 9.93652 39.2064 10.6178 37.811C10.9921 37.045 11.6555 36.6274 12.4263 36.3555C13.1791 36.0912 13.9663 36.0626 14.4702 36.0371ZM14.9518 40.9353C15.1754 40.9112 15.4363 40.9037 15.6883 40.8541C16.2533 40.743 16.6275 40.4095 16.7826 39.8418C16.9361 39.2785 16.9242 38.7137 16.7647 38.1565C16.6186 37.6473 16.2876 37.3138 15.7718 37.1832C15.2008 37.0375 14.6253 37.033 14.0543 37.1696C13.4967 37.3033 13.1121 37.6458 13.0047 38.2256C12.9361 38.5981 12.8944 38.9826 12.9033 39.3611C12.9182 40.0641 13.3879 40.776 14.2406 40.8662C14.4658 40.8902 14.6894 40.9112 14.9518 40.9368V40.9353Z" fill="#262626"></path>
    <path id="Vector_10" d="M49.2004 41.0379V41.8115H44.3938C44.3938 41.5907 44.3879 41.3714 44.3998 41.1536C44.4013 41.119 44.4728 41.068 44.5191 41.0605C44.7084 41.0244 44.9022 41.0109 45.0916 40.9718C45.345 40.9193 45.3987 40.8036 45.2913 40.5663C45.1646 40.2869 44.9991 40.1022 44.6443 40.1097C43.714 40.1322 42.7807 40.1172 41.8504 40.1232C41.591 40.1247 41.2481 40.5182 41.2943 40.7751C41.3077 40.8517 41.4211 40.9478 41.506 40.9688C41.7177 41.0229 41.9384 41.0409 42.171 41.0755V41.7799H38.6719C38.6719 41.5742 38.6659 41.3684 38.6779 41.1641C38.6808 41.128 38.7643 41.068 38.8106 41.068C39.3473 41.077 39.7244 40.8066 39.9913 40.3695C40.5429 39.4683 41.0811 38.5581 41.6238 37.6508C41.6551 37.5998 41.6805 37.5442 41.7013 37.4886C41.7774 37.2768 41.7207 37.1431 41.5031 37.0936C41.2839 37.044 41.0558 37.0275 40.8322 36.9959C40.7338 36.9824 40.6354 36.9674 40.5295 36.9524V36.2179C40.6011 36.2134 40.6711 36.2059 40.7412 36.2059C41.9935 36.2029 43.2444 36.2029 44.4967 36.1954C44.8828 36.1924 45.1736 36.3426 45.3838 36.6715C46.1381 37.8491 46.9089 39.0162 47.6469 40.2043C48.0107 40.7886 48.4863 41.104 49.2019 41.0409L49.2004 41.0379ZM44.37 39.0733C43.9883 38.489 43.6335 37.9407 43.2608 37.3699C42.9045 37.9557 42.572 38.5025 42.2231 39.0733H44.37Z" fill="#262626"></path>
  </g>
  <defs>
    <clipPath id="clip0_1569_2389">
      <rect width="49.2" height="42" fill="white"></rect>
    </clipPath>
  </defs>
</svg>
