<?xml version="1.0" encoding="UTF-8"?>
<svg xmlns="http://www.w3.org/2000/svg" width="28" height="28" viewBox="0 0 28 28" fill="none">
  <g clip-path="url(#clip0_1404_15638)">
    <mask id="mask0_1404_15638" style="mask-type:luminance" maskUnits="userSpaceOnUse" x="0" y="0" width="28" height="28">
      <path d="M0 8.39233e-05H27.9999V28H0V8.39233e-05Z" fill="white"></path>
    </mask>
    <g mask="url(#mask0_1404_15638)">
      <path d="M19.085 11.1495C6.98867 7.01576 15.145 2.06366 19.2501 0.110718C19.3062 0.0840302 19.2871 8.39233e-05 19.225 8.39233e-05H16.2965C15.8333 8.39233e-05 15.3757 0.107216 14.9522 0.314262C10.3016 2.58734 0.92472 8.11787 8.50017 12.7561C17.1873 18.0751 7.874 25.0207 2.99994 28H22.112C24.6678 24.3519 29.9636 14.8672 19.085 11.1495Z" fill="#F96515"></path>
      <path d="M19.9599 10.1357C8.43245 6.57301 15.0835 2.51603 19.3515 0.426371C19.5509 0.328699 19.4874 8.39233e-05 19.2693 8.39233e-05H19.1107C15.0958 1.8705 6.37867 6.93526 18.7105 11.1495C29.5891 14.8672 24.2934 24.3519 21.7375 28H23.9036C24.4459 28 24.9441 27.6711 25.2003 27.1436C27.656 22.0874 29.9478 13.2225 19.9599 10.1357Z" fill="#1A1A1A"></path>
      <path d="M8.52003 12.7559C2.91934 9.32671 6.47237 5.40979 10.6434 2.68204C5.97712 5.29882 0.62564 9.59954 6.89866 13.4404C14.246 17.939 6.53876 23.6011 0.923686 27.0431C0.506477 27.2988 0.671687 27.9998 1.14889 27.9998H3.01985C7.89386 25.0205 17.2072 18.0749 8.52003 12.7559Z" fill="#1A1A1A"></path>
    </g>
    <path d="M12 3.5C10.5 4.16667 8.09998 6.2 10.5 9C13.5 12.5 24.9999 16.5 13.9999 28" stroke="#1D1D1D" stroke-width="1.5" stroke-dasharray="2 2"></path>
  </g>
  <defs>
    <clipPath id="clip0_1404_15638">
      <rect width="28" height="28" fill="white"></rect>
    </clipPath>
  </defs>
</svg>
