<?xml version="1.0" encoding="UTF-8"?>
<svg xmlns="http://www.w3.org/2000/svg" width="91" height="90" viewBox="0 0 91 90" fill="none">
  <g id="Group">
    <g id="Group 1000004036">
      <path id="Vector" d="M90.8786 89.311L83.808 50.3558C83.7732 50.1638 83.6961 49.9818 83.5825 49.8231C83.4688 49.6644 83.3214 49.5329 83.1508 49.4381L65.3543 39.5398C65.1274 39.4143 64.8685 39.3586 64.61 39.3797L67.8477 81.1468L67.7393 81.1953L89.0377 90.7503C89.2571 90.8489 89.4994 90.8857 89.7382 90.8567C89.977 90.8276 90.2034 90.7339 90.3928 90.5856C90.5823 90.4376 90.7277 90.2407 90.8134 90.016C90.899 89.7913 90.9216 89.5475 90.8786 89.311ZM45.8998 49.0025L27.6985 39.5224C27.4835 39.4111 27.2419 39.3612 27.0003 39.3783C27.0634 39.3744 27.1269 39.3748 27.1898 39.3797L23.9521 81.1468L45.3589 90.7505C45.5291 90.8267 45.7134 90.8662 45.8998 90.8663V49.0025Z" fill="#1A1A1A"></path>
      <path id="Vector_2" d="M27.1898 39.3794C26.9314 39.3583 26.6725 39.4139 26.4456 39.5393L8.64891 49.4376C8.47828 49.5324 8.33081 49.6639 8.21716 49.8226C8.1035 49.9813 8.02648 50.1633 7.99167 50.3553L0.921202 89.3105C0.878292 89.5471 0.900858 89.7908 0.986459 90.0155C1.07206 90.2402 1.21744 90.4372 1.40689 90.5853C1.59636 90.7335 1.82271 90.8271 2.06152 90.8562C2.30032 90.8852 2.54252 90.8485 2.76199 90.75L23.9444 81.247L27.1898 39.3794ZM64.61 39.3785C64.4325 39.3915 64.2594 39.4404 64.1013 39.5223L45.9 49.0022V90.866C46.0865 90.866 46.271 90.8265 46.4411 90.7501L67.8479 81.1465L64.61 39.3785Z" fill="#F96515"></path>
      <path id="Vector_3" d="M27.1898 39.3794C26.9314 39.3583 26.6725 39.4139 26.4456 39.5393L8.64891 49.4376C8.47828 49.5324 8.33081 49.6639 8.21716 49.8226C8.1035 49.9813 8.02648 50.1633 7.99167 50.3553L0.921202 89.3105C0.878292 89.547 0.900858 89.7908 0.986459 90.0155C1.07206 90.2402 1.21744 90.4372 1.40689 90.5852C1.59636 90.7335 1.82271 90.8271 2.06152 90.8562C2.30032 90.8852 2.54252 90.8485 2.76199 90.75L23.9444 81.247L27.1898 39.3794Z" fill="#F96515"></path>
      <path id="Vector_4" d="M5.84876 62.1607L4.41245 70.0742L25.681 58.8407L26.1747 52.4705L26.2566 51.4141L5.84876 62.1607Z" fill="#1A1A1A"></path>
      <path id="Vector_5" d="M25.8725 56.3711L25.6811 58.8412L4.41258 70.0747L0.921202 89.311C0.878292 89.5476 0.900858 89.7914 0.986459 90.016C1.07206 90.2407 1.21744 90.4377 1.40689 90.5858C1.59636 90.734 1.82271 90.8277 2.06152 90.8567C2.30032 90.8857 2.54252 90.849 2.76199 90.7505L23.9444 81.2475L25.8725 56.3711Z" fill="#F96515"></path>
      <path id="Vector_6" d="M45.9053 54.2254L26.2567 51.4159L25.6811 58.8425L45.9 89.5479V78.3826L33.8349 59.3844L45.9053 60.8281V54.2254ZM81.7499 48.6603L73.2008 43.9053L65.1075 45.7963L65.2087 47.1034L65.6084 52.2598L81.7499 48.6603Z" fill="#F96515"></path>
      <path id="Vector_7" d="M66.3264 61.5182L65.56 51.6307L65.1077 45.7949L45.9055 54.224V60.8267L58.4486 55.3722L66.3264 61.5182Z" fill="#1A1A1A"></path>
      <path id="Vector_8" d="M90.8789 89.3108L89.103 79.5257L65.6086 52.2583L66.3265 61.5181L90.4209 90.5609C90.6013 90.412 90.7388 90.2177 90.8193 89.9979C90.8998 89.7782 90.9204 89.5411 90.8789 89.3108Z" fill="#F96515"></path>
      <path id="Vector_9" d="M46.4411 90.7496L54.4014 87.1784L45.9 78.3804V90.8654H45.9002C46.0867 90.8655 46.271 90.826 46.4411 90.7496Z" fill="#1A1A1A"></path>
      <path id="Vector_10" d="M83.8082 50.3552C83.7733 50.1631 83.6963 49.9812 83.5827 49.8225C83.469 49.6638 83.3216 49.5323 83.1509 49.4374L81.75 48.6582L65.6085 52.2577L89.1027 79.5251L83.8082 50.3552ZM45.9 90.8657C45.9002 90.8657 45.9002 90.8657 45.9 90.8657V89.5459L25.6813 58.8405L23.9521 81.1463L45.3589 90.75C45.5291 90.8263 45.7135 90.8657 45.9 90.8657Z" fill="#1A1A1A"></path>
    </g>
    <g id="Group 1000004037">
      <path id="Vector_11" d="M45.9848 0C36.7278 0 29.1967 7.52493 29.1967 16.7743C29.1967 22.4959 31.9131 28.6387 37.2707 35.032C41.2056 39.7278 45.0871 42.7479 45.2504 42.8743C45.4607 43.037 45.7191 43.1252 45.9849 43.125C46.2508 43.1252 46.5091 43.037 46.7194 42.8743C46.8826 42.7479 50.7642 39.7278 54.6992 35.032C60.0567 28.6387 62.7731 22.496 62.7731 16.7743C62.7728 7.52493 55.2417 0 45.9848 0ZM52.202 16.7742C52.202 20.2049 49.4184 22.9863 45.9848 22.9863C42.5511 22.9863 39.7675 20.2051 39.7675 16.7742C39.7675 13.3433 42.5511 10.562 45.9848 10.562C49.4184 10.562 52.202 13.3434 52.202 16.7742Z" fill="#F96515"></path>
    </g>
  </g>
</svg>
