<?xml version="1.0" encoding="UTF-8"?>
<svg xmlns="http://www.w3.org/2000/svg" width="107" height="103" viewBox="0 0 107 103" fill="none">
  <rect width="107" height="102.633" fill="#33E0A0"></rect>
  <path d="M72.3315 52.5662C72.3734 62.7676 64.1496 71.0788 54.0825 71.3743C43.3662 71.6906 34.9198 63.1833 34.6423 53.1256C34.3464 42.464 42.8268 34.0221 52.9096 33.7345C63.7176 33.426 72.4022 42.1581 72.3315 52.5662ZM70.2107 52.5609C70.2448 43.5856 63.0342 36.0875 53.9071 35.8783C44.4449 35.6639 36.9725 43.1673 36.7866 52.1897C36.5902 61.7218 44.2328 69.1546 53.1766 69.2488C63.0185 69.3533 70.2605 61.4447 70.2107 52.5609Z" fill="#262626"></path>
  <path d="M42.7596 28.2407C42.4899 29.6394 41.8013 30.6956 40.5367 31.2839C37.9552 32.4865 34.6222 31.3597 33.9938 28.0629C33.5173 25.5557 34.8578 23.1269 37.3189 22.5752C38.9972 22.1988 40.5734 22.4445 41.7987 23.804C42.3223 24.3844 42.5894 25.0929 42.702 25.8851H40.7593C40.5577 25.2498 40.1937 24.74 39.5627 24.4498C38.0101 23.7413 36.2455 24.6668 35.9077 26.3714C35.6354 27.7413 36.146 29.0198 37.2168 29.6342C38.3557 30.2878 40.2199 29.9714 40.7017 28.4498C40.7278 28.3662 40.843 28.2537 40.9216 28.2511C41.5159 28.2354 42.1129 28.2433 42.7596 28.2433V28.2407Z" fill="#262626"></path>
  <path d="M29.4398 51.694C28.9476 51.409 28.492 51.1816 28.0731 50.8992C26.1723 49.6103 24.9051 47.8116 23.9756 45.7462C23.054 43.7017 22.3942 41.5814 22.046 39.3644C22.0145 39.1605 21.9962 38.9513 21.9727 38.7422C23.3001 39.1056 26.1304 42.0285 27.2876 44.2299C28.4632 46.4626 29.4686 49.8953 29.4372 51.694H29.4398Z" fill="#262626"></path>
  <path d="M77.5 51.6597C77.7513 48.8937 78.5342 46.3551 79.8328 43.9812C81.0529 41.7563 82.7862 40.0099 85.0536 38.6504C84.9043 39.4582 84.7943 40.1851 84.632 40.9014C84.1005 43.2309 83.3046 45.4636 82.0662 47.5185C81.0555 49.1943 79.7229 50.5565 77.9582 51.4584C77.8325 51.5238 77.6964 51.5735 77.5 51.6597Z" fill="#262626"></path>
  <path d="M18.9258 55.4147C21.0806 55.7834 23.0128 56.5546 24.7461 57.7834C27.27 59.5717 29.1211 61.9299 30.5114 64.6619L30.4669 64.7717C29.9825 64.7011 29.4903 64.6593 29.0111 64.5521C27.071 64.1181 25.3928 63.1743 23.9266 61.8514C22.0048 60.1154 20.3946 58.1285 19.1483 55.8539C19.0803 55.7285 19.0174 55.5977 18.9258 55.4121V55.4147Z" fill="#262626"></path>
  <path d="M88.0748 55.5121C87.5302 56.3617 87.017 57.2323 86.4358 58.0559C85.2995 59.6664 83.9878 61.1252 82.443 62.3618C80.9061 63.5906 79.1781 64.4063 77.2197 64.6965C76.984 64.7305 76.7458 64.7279 76.4395 64.7462C77.6988 62.1814 79.3823 60.0272 81.5633 58.2807C83.4458 56.7748 85.6032 55.8441 87.9753 55.4258L88.0774 55.5121H88.0748Z" fill="#262626"></path>
  <path d="M77.6387 59.1426C78.1911 56.3504 79.2463 53.8171 80.9088 51.5608C82.3279 49.6366 84.9932 47.5477 86.4516 47.1738C86.1505 48.1412 85.9018 49.0745 85.5719 49.9791C84.8335 52.0079 83.8805 53.9347 82.54 55.6393C81.2911 57.2315 79.7542 58.455 77.8062 59.1113C77.7774 59.1217 77.746 59.1217 77.6387 59.14V59.1426Z" fill="#262626"></path>
  <path d="M20.5908 47.1484C22.8372 48.1864 24.6831 49.6557 26.1074 51.6139C27.7438 53.8623 28.7911 56.3721 29.3278 59.0937L29.2597 59.1721C28.8356 58.9891 28.3983 58.8297 27.9873 58.6179C26.4085 57.8126 25.1229 56.6571 24.1149 55.2165C22.4393 52.8243 21.2716 50.1968 20.6249 47.3471C20.6144 47.3001 20.6091 47.2478 20.5934 47.1484H20.5908Z" fill="#262626"></path>
  <path d="M23.1807 65.6103C25.4716 65.1606 27.6866 65.2286 29.8597 65.877C32.3942 66.6325 34.6354 67.9319 36.6514 69.7358C35.9314 70.0051 35.2506 70.1202 34.5542 70.1698C32.6167 70.3136 30.7787 69.9215 29.001 69.1659C27.0766 68.3502 25.2752 67.328 23.6467 66.0155C23.5027 65.9005 23.3666 65.7724 23.1807 65.6077V65.6103Z" fill="#262626"></path>
  <path d="M70.3242 69.7414C72.2826 67.9845 74.4505 66.7217 76.8907 65.9479C79.1319 65.2367 81.4202 65.1531 83.7949 65.608C83.6719 65.723 83.5881 65.8119 83.4965 65.8851C81.271 67.6838 78.8099 69.0512 76.0476 69.825C74.2777 70.3192 72.4816 70.361 70.696 69.8643C70.5965 69.8381 70.5023 69.7989 70.3268 69.7414H70.3242Z" fill="#262626"></path>
  <path d="M49.4644 31.5768H47.6656C47.6604 31.4644 47.6526 31.3546 47.6526 31.2448C47.6526 30.1258 47.6552 29.0094 47.6526 27.8905C47.6499 27.3127 47.3096 26.8578 46.7964 26.714C46.3042 26.5754 45.7753 26.7532 45.5187 27.195C45.4035 27.3911 45.3354 27.6421 45.3328 27.8696C45.3145 29.0905 45.325 30.314 45.325 31.5611H43.5262V22.6172H45.3171V26.0081C45.7596 25.4695 46.2466 25.1767 46.8488 25.0904C48.3123 24.8813 49.2916 25.6342 49.4565 27.0957C49.4696 27.2186 49.4696 27.3467 49.4696 27.4722C49.4696 28.829 49.4696 30.1859 49.4696 31.5768H49.4644Z" fill="#262626"></path>
  <path d="M41.275 14.2102L41.3064 13.7552H42.9323V20.0455H41.2985V19.4416C41.2435 19.4494 41.2043 19.4416 41.1912 19.4599C40.3429 20.5423 38.2902 20.5083 37.1801 19.4416C35.3866 17.7213 36.0202 14.4559 38.3295 13.7134C39.3637 13.3814 40.3507 13.5199 41.275 14.2075V14.2102ZM41.2619 16.9344C41.2592 15.9958 40.5576 15.2873 39.6307 15.2847C38.7143 15.2847 37.9734 16.0141 37.9734 16.9239C37.9734 17.839 38.7248 18.5736 39.6595 18.571C40.5759 18.571 41.2671 17.8651 41.2619 16.937V16.9344Z" fill="#262626"></path>
  <path d="M77.5288 72.8131C76.869 73.0196 76.2694 73.2288 75.662 73.3961C73.4182 74.0105 71.143 74.4392 68.8075 74.4288C67.2497 74.4209 65.7311 74.1569 64.2937 73.5242C64.189 73.4771 64.0895 73.4222 63.9141 73.336C64.3775 73.0693 64.7755 72.8078 65.2022 72.5987C67.2392 71.6078 69.3809 71.0327 71.6587 71.0431C73.6564 71.0536 75.5128 71.5974 77.2277 72.617C77.3062 72.664 77.3822 72.719 77.5288 72.8157V72.8131Z" fill="#262626"></path>
  <path d="M43.0659 73.3293C42.215 73.7816 41.385 74.0117 40.5341 74.1868C38.6516 74.5738 36.7691 74.4561 34.8918 74.1633C33.1874 73.8992 31.5091 73.5228 29.8832 72.9476C29.7654 72.9058 29.6502 72.8613 29.5271 72.8169C30.2105 72.0953 32.9596 71.1436 34.6012 71.0626C37.6383 70.9136 40.4189 71.711 43.0685 73.3267L43.0659 73.3293Z" fill="#262626"></path>
  <path d="M68.9204 17.3585H64.2704C64.2547 18.3336 65.3072 19.0003 66.2943 18.6604C66.6347 18.5428 66.9096 18.3415 67.0536 18.0068C67.1217 17.8474 67.2054 17.7898 67.3782 17.7951C67.8678 17.8055 68.3575 17.7977 68.8732 17.7977C68.7319 18.5585 68.4046 19.1703 67.8207 19.6225C66.5561 20.603 64.4406 20.4487 63.3305 19.3036C62.3565 18.297 62.1235 16.6055 62.7859 15.3114C63.4195 14.0747 64.8019 13.3845 66.2236 13.5937C67.9019 13.8421 68.7764 14.8408 68.9151 16.6761C68.9308 16.8826 68.9151 17.0918 68.9151 17.3558L68.9204 17.3585ZM67.1766 15.965C67.0824 15.3924 66.5561 14.9976 65.8859 14.9767C65.137 14.9532 64.548 15.3401 64.4013 15.965H67.1766Z" fill="#262626"></path>
  <path d="M56.3378 17.3569H51.659C51.6669 18.0184 52.1146 18.5439 52.7796 18.706C53.442 18.8681 54.1568 18.5988 54.4186 18.0393C54.5207 17.8223 54.6464 17.7883 54.848 17.7935C55.2879 17.804 55.7251 17.8014 56.165 17.804C56.1833 17.804 56.2043 17.8171 56.254 17.838C56.0943 18.6563 55.7094 19.3334 54.9842 19.7753C53.3661 20.7609 50.4232 20.3923 49.8839 17.6262C49.6194 16.2719 49.9755 15.085 51.104 14.2301C52.2246 13.383 53.4656 13.3464 54.7145 13.9137C55.6544 14.3399 56.076 15.1687 56.2383 16.1412C56.3037 16.5282 56.3038 16.9229 56.3352 17.3543L56.3378 17.3569ZM51.7481 15.9451H54.5679C54.4003 15.3517 53.9159 14.9961 53.2692 14.9726C52.5178 14.9464 51.9889 15.2785 51.7454 15.9451H51.7481Z" fill="#262626"></path>
  <path d="M73.5158 28.8436C72.7278 28.8436 71.958 28.8436 71.1856 28.8436C70.4133 28.8436 69.6409 28.8436 68.8685 28.8436C68.8816 29.5025 69.3346 30.0463 69.9839 30.2084C70.6489 30.3731 71.3768 30.0855 71.6464 29.5182C71.7328 29.3351 71.8297 29.2802 72.0208 29.2855C72.4895 29.2985 72.9608 29.2907 73.4687 29.2907C73.3666 29.9757 73.0917 30.5535 72.5864 30.977C71.4946 31.8894 70.2405 31.9836 68.9654 31.479C67.7113 30.9822 67.1222 29.9548 67.0462 28.6423C66.9441 26.8697 67.939 25.4606 69.6095 25.1442C71.6438 24.7599 73.3195 25.6933 73.5158 28.0698C73.5368 28.3077 73.5185 28.5482 73.5185 28.8436H73.5158ZM68.9994 27.458H71.8088C71.6045 26.773 71.0521 26.4227 70.2562 26.4619C69.6645 26.4907 69.1042 26.9299 68.9994 27.458Z" fill="#262626"></path>
  <path d="M53.5363 25.0606C55.5313 25.0579 56.9818 26.4514 56.9871 28.3756C56.9923 30.3417 55.5654 31.7508 53.5703 31.7508C51.5569 31.7508 50.1143 30.3574 50.1143 28.4096C50.1143 26.4776 51.5569 25.0632 53.5336 25.0606H53.5363ZM53.5572 30.0593C54.4657 30.0645 55.1569 29.3953 55.1674 28.5011C55.1779 27.5965 54.45 26.8462 53.5572 26.8436C52.6801 26.841 51.9339 27.5835 51.9365 28.4593C51.9365 29.3482 52.6539 30.0567 53.5572 30.0619V30.0593Z" fill="#262626"></path>
  <path d="M66.7527 29.1814C66.614 29.9814 66.2893 30.6298 65.6819 31.1082C64.0769 32.371 61.464 31.8455 60.5135 30.0441C59.5684 28.2532 60.2805 25.6676 62.6971 25.1369C63.5821 24.9434 64.4697 25.0323 65.2892 25.4454C66.1689 25.8872 66.6218 26.6323 66.7554 27.6389C66.1375 27.6389 65.5562 27.6415 64.975 27.6336C64.92 27.6336 64.8519 27.5657 64.8179 27.5108C64.1372 26.4571 62.7233 26.5251 62.1342 27.6415C61.8253 28.2297 61.9091 28.9644 62.3437 29.4873C62.7547 29.9814 63.425 30.1748 64.0429 29.9866C64.3806 29.882 64.6189 29.6677 64.7917 29.3644C64.8388 29.2833 64.9514 29.1918 65.0352 29.1892C65.5876 29.1735 66.1427 29.1814 66.7501 29.1814H66.7527Z" fill="#262626"></path>
  <path d="M28.3012 12.8577H25.8662V11.127H32.6186V12.8472H30.2124V20.0526H28.2985V12.8577H28.3012Z" fill="#262626"></path>
  <path d="M77.8169 60.0095C77.2514 60.8801 76.7251 61.782 76.1072 62.6134C74.9761 64.1429 73.6775 65.5128 72.0176 66.4906C70.9519 67.1155 69.813 67.5338 68.5668 67.6122C68.5275 67.6122 68.4856 67.6122 68.3809 67.6122C69.1925 65.8475 70.3079 64.3573 71.6615 63.0396C73.3581 61.3873 75.3898 60.3624 77.7096 59.918L77.8169 60.0069V60.0095Z" fill="#262626"></path>
  <path d="M38.5576 67.6168C37.7564 67.6089 37.026 67.4129 36.3112 67.1436C35.0099 66.6547 33.8946 65.8756 32.897 64.9161C31.4308 63.5095 30.2134 61.9147 29.2839 60.1029C29.2603 60.0585 29.242 60.0141 29.2158 59.9618C32.1953 59.8912 37.5993 64.3122 38.555 67.6168H38.5576Z" fill="#262626"></path>
  <path d="M71.2172 61.8353C71.712 59.7229 72.6074 57.8353 73.8773 56.1333C75.1471 54.4339 76.7939 53.2025 78.8309 52.3633C78.7445 52.6613 78.6791 52.8966 78.6058 53.1293C77.8596 55.4692 76.7521 57.6183 75.0895 59.4457C74.0841 60.5543 72.8692 61.37 71.4135 61.7935C71.3664 61.8066 71.3166 61.8118 71.2119 61.8327L71.2172 61.8353Z" fill="#262626"></path>
  <path d="M35.7712 61.8594C34.2239 61.4359 32.9907 60.6437 31.9774 59.5457C30.1211 57.5378 28.9429 55.1508 28.1941 52.539C28.1836 52.5024 28.1941 52.4606 28.1941 52.3848C30.0949 53.156 31.679 54.3168 32.9252 55.9064C34.2998 57.6554 35.2345 59.6267 35.7712 61.8568V61.8594Z" fill="#262626"></path>
  <path d="M77.3825 42.4733C77.6496 45.3701 77.4401 48.1937 76.2908 50.8865C75.7933 52.0525 75.0628 53.0643 74.0679 53.8696C73.9893 53.9349 73.9029 53.9924 73.7616 54.0944C73.4893 51.8905 73.6228 49.7675 74.2014 47.6786C74.7643 45.6472 75.8299 43.9139 77.3825 42.4707V42.4733Z" fill="#262626"></path>
  <path d="M33.1868 54.0702C32.6029 53.6729 32.15 53.1892 31.7389 52.6585C30.7466 51.3774 30.2099 49.9002 29.8774 48.3342C29.6129 47.0845 29.482 45.8218 29.4611 44.5485C29.4506 43.8583 29.5161 43.1655 29.5867 42.4648C30.922 43.6858 31.8698 45.1446 32.5008 46.8126C33.3727 49.1212 33.5167 52.4624 33.1842 54.0676L33.1868 54.0702Z" fill="#262626"></path>
  <path d="M73.9688 18.0006H75.7806C75.9481 18.5941 76.2047 18.8032 76.7022 18.6829C76.875 18.6411 77.0713 18.479 77.1499 18.3169C77.2494 18.1156 77.1316 17.8934 76.9247 17.7914C76.6472 17.6529 76.3539 17.5431 76.0607 17.4385C75.7387 17.3208 75.3931 17.2555 75.0867 17.1064C73.8457 16.5077 73.7122 14.8188 74.8563 14.045C75.7779 13.4227 76.7781 13.3887 77.773 13.8646C78.4407 14.1861 78.8124 14.8842 78.7444 15.5927H77.0949C76.8959 15.0907 76.6446 14.913 76.2466 15.0515C76.0921 15.1064 75.8958 15.2685 75.8748 15.4045C75.8565 15.5352 76.011 15.7731 76.1445 15.828C76.5765 16.0058 77.0347 16.1208 77.4824 16.2568C78.2129 16.4764 78.7679 16.8816 78.9067 17.6764C79.1266 18.9601 78.1684 20.1549 76.8593 20.249C76.0529 20.3091 75.2936 20.181 74.6678 19.6163C74.1992 19.1928 73.9923 18.6542 73.9688 17.9954V18.0006Z" fill="#262626"></path>
  <path d="M49.9311 13.7438C49.8735 13.9216 49.829 14.068 49.7819 14.2144C49.1666 16.0706 48.5461 17.9268 47.9386 19.7883C47.8706 19.9975 47.7868 20.089 47.5511 20.0785C47.0301 20.0576 46.5065 20.0785 45.9828 20.0654C45.8886 20.0628 45.7419 19.9765 45.7131 19.8981C45.0324 17.9085 44.3648 15.9164 43.6945 13.9216C43.6788 13.8745 43.6762 13.8222 43.6631 13.7464C44.2653 13.7464 44.8491 13.7385 45.433 13.7568C45.5089 13.7568 45.6189 13.8954 45.6477 13.9895C46.009 15.2078 46.3546 16.4288 46.7081 17.6471C46.7212 17.6942 46.7421 17.7386 46.7866 17.851C47.0249 17.0406 47.2422 16.2928 47.4621 15.5425C47.614 15.0222 47.7658 14.5046 47.9098 13.9817C47.957 13.8065 48.0355 13.7333 48.2319 13.7385C48.7843 13.7542 49.3368 13.7438 49.9337 13.7438H49.9311Z" fill="#262626"></path>
  <path d="M58.8643 20.0591H57.0996V11.1309H58.8643V20.0591Z" fill="#262626"></path>
  <path d="M61.7413 20.0604H59.9688V11.127H61.7413V20.0604Z" fill="#262626"></path>
  <path d="M34.0174 20.06H32.2266V13.7592H33.8787V14.5305C34.3421 13.6416 35.138 13.7017 35.9601 13.7592V15.4743C35.6512 15.4743 35.3396 15.4743 35.0281 15.4743C34.3368 15.4821 34.0305 15.7749 34.0227 16.4652C34.0122 17.5397 34.0174 18.6168 34.0174 19.6913C34.0174 19.8038 34.0174 19.9162 34.0174 20.06Z" fill="#262626"></path>
  <path d="M69.7637 13.7544H71.3896V14.6067C72.0756 13.5871 72.5102 13.7283 73.4946 13.7675V15.4747C73.1647 15.4747 72.8427 15.4695 72.5233 15.4747C71.8609 15.4852 71.565 15.7754 71.5624 16.4342C71.5571 17.5192 71.5624 18.6068 71.5624 19.6918C71.5624 19.8042 71.5624 19.9166 71.5624 20.05H69.7689V13.7544H69.7637Z" fill="#262626"></path>
  <path d="M36.6169 68.4426C39.9185 68.0086 42.6362 69.1224 45.1261 71.1747C44.414 71.3995 43.7542 71.4205 43.0892 71.3812C41.4423 71.2819 39.9787 70.6283 38.578 69.8257C37.9653 69.4727 37.4024 69.0361 36.8185 68.6335C36.7609 68.5943 36.7164 68.5394 36.6169 68.4452V68.4426Z" fill="#262626"></path>
  <path d="M70.3509 68.473C69.5261 69.1606 68.67 69.7149 67.7562 70.1776C66.6932 70.7162 65.5962 71.1737 64.4023 71.328C63.5723 71.4351 62.745 71.4325 61.9229 71.1972C63.1482 69.4064 67.7667 67.9057 70.3509 68.4704V68.473Z" fill="#262626"></path>
  <path d="M57.6523 25.2441H59.4275V31.5658H57.6523V25.2441Z" fill="#262626"></path>
  <path d="M51.405 72.4764C50.7399 73.0359 50.0042 73.36 49.1926 73.5143C47.5693 73.8228 45.98 73.6346 44.4012 73.1718C45.5873 71.909 49.423 71.5221 51.405 72.4738V72.4764Z" fill="#262626"></path>
  <path d="M55.5778 72.4693C57.7797 71.617 60.6755 71.7372 62.6287 73.1804C62.0553 73.3059 61.5421 73.4497 61.0185 73.5281C59.7408 73.719 58.4605 73.7608 57.2063 73.366C56.6172 73.1804 56.0674 72.9111 55.5752 72.4693H55.5778Z" fill="#262626"></path>
  <path d="M79.5708 14.9174V14.0259C80.1206 14.0207 80.5421 13.8351 80.618 13.2102C79.6938 13.252 79.1126 12.6272 79.3011 11.801C79.4058 11.3409 79.7069 11.0585 80.1651 10.954C80.6154 10.852 81.0212 10.9775 81.2752 11.3514C81.4559 11.618 81.5684 11.9474 81.6339 12.2664C81.7543 12.839 81.6627 13.4089 81.4349 13.9475C81.1181 14.6952 80.4793 15.0272 79.5681 14.9174H79.5708Z" fill="#262626"></path>
  <path d="M58.5181 24.4544C57.895 24.4491 57.3897 23.9341 57.3976 23.3145C57.4054 22.6687 57.9133 22.1772 58.5653 22.1877C59.1989 22.1955 59.6963 22.7001 59.6885 23.3249C59.6806 23.9655 59.1675 24.4596 58.5181 24.4544Z" fill="#262626"></path>
  <path d="M52.4287 73.3628C52.4339 72.7824 52.9078 72.3145 53.4917 72.3145C54.0755 72.3145 54.5494 72.785 54.552 73.3655C54.552 73.9589 54.065 74.4426 53.4733 74.4347C52.8947 74.4243 52.426 73.9432 52.4287 73.3628Z" fill="#262626"></path>
  <path d="M75.3954 23.8162C75.3195 24.0149 75.2488 24.2162 75.1624 24.4123C75.1336 24.475 75.0629 24.5404 74.9974 24.5561C74.9634 24.5639 74.8849 24.4776 74.8587 24.4201C74.7775 24.2319 74.7147 24.0358 74.5838 23.8502C74.5838 24.028 74.5942 24.2084 74.5785 24.3861C74.5733 24.4489 74.5052 24.5064 74.4659 24.5665C74.4188 24.5142 74.3324 24.4646 74.3298 24.4123C74.3193 23.9861 74.3246 23.5626 74.3246 23.1443C74.699 23.0083 74.6911 23.3012 74.767 23.4789C74.8482 23.6698 74.911 23.8685 75.0105 24.1456C75.1231 23.8345 75.2095 23.5861 75.2985 23.3404C75.3902 23.0868 75.3928 23.0894 75.7122 23.1495C75.7122 23.5678 75.7174 23.994 75.707 24.4201C75.707 24.4698 75.6337 24.5195 75.5918 24.5691C75.5446 24.5169 75.4635 24.4672 75.4582 24.4123C75.4425 24.2214 75.453 24.028 75.453 23.8345L75.3954 23.8214V23.8162Z" fill="#262626"></path>
  <path d="M73.4606 23.4487L73.0312 23.2134C73.1648 23.1742 73.2983 23.1193 73.4345 23.1036C73.5889 23.0853 73.7486 23.0853 73.9031 23.1036C73.9843 23.114 74.055 23.1898 74.1309 23.2369C74.0576 23.2735 73.9869 23.3153 73.911 23.3441C73.8638 23.3598 73.8089 23.3546 73.712 23.3624C73.712 23.6944 73.7172 24.0238 73.7067 24.3533C73.7067 24.4239 73.6361 24.4944 73.5994 24.565C73.5549 24.4918 73.4737 24.4212 73.4711 24.3454C73.4554 24.0265 73.4659 23.7049 73.4659 23.4487H73.4606Z" fill="#262626"></path>
  <path d="M42.5732 49.0363C41.8767 48.2781 41.196 47.5356 40.4551 46.7303H40.8373C42.1883 46.7303 43.5367 46.7382 44.8877 46.7225C45.0814 46.7225 45.3014 46.6571 45.4637 46.5526C47.3462 45.3421 49.3963 44.5734 51.6139 44.2989C55.2008 43.8571 58.5234 44.6257 61.5736 46.5656C61.728 46.665 61.9375 46.7225 62.1208 46.7251C63.4587 46.7382 64.7992 46.733 66.1397 46.733H66.5325C65.802 47.5277 65.1239 48.2676 64.4274 49.0284C65.9329 50.5029 66.6451 52.2964 66.4696 54.3958C66.3387 55.9828 65.6711 57.3397 64.5348 58.4639C62.3067 60.6678 58.416 61.1123 55.5752 58.6233C54.8893 59.3632 54.2033 60.1031 53.4911 60.8691C52.7921 60.1135 52.1061 59.3763 51.4018 58.6155C49.8675 60.1318 48.0295 60.8038 45.8983 60.558C44.1729 60.3593 42.7486 59.5567 41.6437 58.2155C39.5099 55.6298 39.6225 51.5356 42.5732 49.0389V49.0363ZM64.362 53.8206C64.362 51.3918 62.4062 49.4337 59.9843 49.4363C57.5782 49.4389 55.6198 51.3918 55.6093 53.7997C55.5988 56.2181 57.5651 58.1972 59.9791 58.1998C62.4062 58.1998 64.362 56.2468 64.362 53.8206ZM51.3756 53.852C51.3782 51.4729 49.446 49.5225 47.1315 49.465C44.7175 49.4049 42.6334 51.3552 42.6229 53.7762C42.6151 56.1998 44.5552 58.2233 46.8723 58.2155C49.3989 58.205 51.373 56.2913 51.3756 53.852ZM58.3139 47.2454C55.0752 45.9931 51.9019 45.9878 48.6789 47.2454C51.2159 48.3774 52.9675 50.1186 53.4938 52.903C54.02 50.116 55.7585 48.3774 58.3139 47.2454Z" fill="#262626"></path>
  <path d="M59.9742 56.1464C58.6808 56.1411 57.6754 55.1267 57.6807 53.8326C57.6859 52.5437 58.7044 51.5319 59.9978 51.5371C61.3017 51.5397 62.3437 52.6038 62.3228 53.9058C62.3045 55.1581 61.2598 56.1542 59.9742 56.1464Z" fill="#262626"></path>
  <path d="M47.0373 51.5341C48.3124 51.5524 49.3492 52.6113 49.3256 53.8662C49.2995 55.176 48.26 56.1616 46.9247 56.1433C45.6654 56.125 44.66 55.0845 44.6809 53.8165C44.7019 52.5145 45.7334 51.5132 47.0373 51.5315V51.5341Z" fill="#262626"></path>
  <path d="M43.7822 88.2461H36.7071V86.7321L40.4339 82.9179C41.0017 82.3356 41.3074 81.7824 41.3074 81.1855C41.3074 80.4577 40.8707 80.0355 40.1573 80.0355C39.4149 80.0355 39.0073 80.5159 38.9782 81.302H36.7217C36.7217 79.3221 37.9154 77.8518 40.201 77.8518C42.2973 77.8518 43.6949 79.1329 43.6949 81.0545C43.6949 82.4375 42.836 83.5439 41.948 84.4174L40.2301 86.1207H43.7822V88.2461ZM48.8318 88.4499C46.3278 88.4499 44.5226 86.6011 44.5226 83.1509C44.5226 79.7007 46.3278 77.8518 48.8318 77.8518C51.3357 77.8518 53.1409 79.7007 53.1409 83.1509C53.1409 86.6011 51.3357 88.4499 48.8318 88.4499ZM48.8318 86.2662C49.8508 86.2662 50.7534 85.2617 50.7534 83.1509C50.7534 81.04 49.8945 80.0355 48.8318 80.0355C47.769 80.0355 46.9101 81.04 46.9101 83.1509C46.9101 85.2617 47.8127 86.2662 48.8318 86.2662ZM60.9337 88.2461H53.8586V86.7321L57.5854 82.9179C58.1532 82.3356 58.4589 81.7824 58.4589 81.1855C58.4589 80.4577 58.0222 80.0355 57.3089 80.0355C56.5664 80.0355 56.1588 80.5159 56.1297 81.302H53.8732C53.8732 79.3221 55.0669 77.8518 57.3525 77.8518C59.4489 77.8518 60.8464 79.1329 60.8464 81.0545C60.8464 82.4375 59.9875 83.5439 59.0995 84.4174L57.3816 86.1207H60.9337V88.2461ZM65.3979 88.4499C62.9667 88.4499 61.7148 86.834 61.7148 85.0143H63.9858C64.0149 85.7713 64.5681 86.2662 65.4124 86.2662C66.2131 86.2662 66.7372 85.8295 66.7372 85.0725C66.7372 84.2864 66.1694 83.9079 65.3251 83.9079H64.801V82.1172H65.3688C66.0967 82.1172 66.6062 81.6223 66.6062 81.04C66.6062 80.414 66.1549 80.0064 65.3833 80.0064C64.7137 80.0064 64.2333 80.4431 64.1605 81.0109H61.904C61.904 79.293 63.2288 77.8518 65.3688 77.8518C67.4797 77.8518 68.8772 78.9728 68.8772 80.7343C68.8772 81.7387 68.324 82.4521 67.6398 82.8743C68.4987 83.2236 69.1247 84.0243 69.1247 85.2326C69.1247 87.1543 67.5961 88.4499 65.3979 88.4499Z" fill="#262626"></path>
</svg>
