<?xml version="1.0" encoding="UTF-8"?>
<svg xmlns="http://www.w3.org/2000/svg" width="57" height="56" viewBox="0 0 57 56" fill="none">
  <g clip-path="url(#clip0_2310_4363)">
    <path d="M5.95076 17.0615L24.9894 10.1319C26.1225 9.71953 27.3751 10.3064 27.7832 11.441L32.3471 24.127H6.21526L4.65081 19.8568C4.23645 18.7259 4.81891 17.4734 5.95076 17.0615Z" fill="#1D1D1D"></path>
    <path d="M36.9762 16.2871H21.5154C20.523 16.2871 19.7185 17.0916 19.7185 18.084V24.1267H38.773V18.084C38.773 17.0916 37.9686 16.2871 36.9762 16.2871Z" fill="#1D1D1D"></path>
    <path d="M40.2109 21.6797C42.1957 21.6797 43.8047 23.2887 43.8047 25.2734V52.4062C43.8047 54.391 42.1957 56 40.2109 56H4.09375C2.10901 56 0.5 54.391 0.5 52.4062V25.2734C0.5 23.2887 2.10901 21.6797 4.09375 21.6797H40.2109Z" fill="#F96515"></path>
    <path d="M37.5156 44.2305H44.7031C45.6955 44.2305 46.5 43.426 46.5 42.4336V35.2461C46.5 34.2537 45.6955 33.4492 44.7031 33.4492H37.5156C34.5385 33.4492 32.125 35.8627 32.125 38.8398C32.125 41.817 34.5385 44.2305 37.5156 44.2305Z" fill="#1D1D1D"></path>
    <path d="M37.5156 40.1875C38.2599 40.1875 38.8633 39.5841 38.8633 38.8398C38.8633 38.0956 38.2599 37.4922 37.5156 37.4922C36.7713 37.4922 36.168 38.0956 36.168 38.8398C36.168 39.5841 36.7713 40.1875 37.5156 40.1875Z" fill="#F96515"></path>
    <path d="M56.5228 9.01128C56.5228 13.9693 52.4971 18.0051 47.5432 18.0228H47.5115C42.543 18.0228 38.5 13.98 38.5 9.01128C38.5 4.0428 42.543 0 47.5115 0H47.5433C52.4971 0.0176551 56.5228 4.05353 56.5228 9.01128Z" fill="#F96515"></path>
    <path d="M51.9314 7.80914L47.873 11.8682L46.996 12.7451C46.8976 12.8438 46.7806 12.922 46.6518 12.9753C46.523 13.0286 46.385 13.0559 46.2457 13.0557C46.1063 13.0559 45.9682 13.0286 45.8394 12.9753C45.7106 12.922 45.5935 12.8438 45.495 12.7451L43.6095 10.8588C43.1952 10.4444 43.1952 9.77323 43.6095 9.35862C44.0234 8.94429 44.6953 8.94429 45.1097 9.35862L46.2457 10.4946L50.4313 6.30895C50.8456 5.89441 51.5177 5.89441 51.9314 6.30895C52.3458 6.72335 52.3458 7.39537 51.9314 7.80914Z" fill="#1A1A1A"></path>
  </g>
  <defs>
    <clipPath id="clip0_2310_4363">
      <rect width="56" height="56" fill="white" transform="translate(0.5)"></rect>
    </clipPath>
  </defs>
</svg>
